<svg width="28" height="29" viewBox="0 0 28 29" fill="none" xmlns="http://www.w3.org/2000/svg">
<path d="M14.3481 3.64966C8.26895 3.64966 3.34308 5.40858 3.34308 7.57833C3.34308 7.99458 3.5262 8.3956 3.8623 8.77211L3.85931 8.77251C5.42621 10.6826 11.201 17.4491 11.201 19.3644V23.6368C11.201 24.751 12.6198 25.6502 14.3439 25.6502C16.0681 25.6502 17.4869 24.751 17.4869 23.6368V19.5565C17.4869 19.4955 17.4872 19.4317 17.4872 19.3644C17.4872 17.4491 23.1834 10.7916 24.9022 8.66177V8.66167C25.1969 8.31756 25.3431 7.95411 25.3431 7.57833C25.3431 5.40858 20.4272 3.64966 14.3481 3.64966ZM14.3527 9.93554C9.83183 9.93554 5.70407 8.85515 5.70407 7.57833C5.70407 6.30151 9.78267 5.22113 14.3527 5.22113C18.9227 5.22113 23.0012 6.3218 23.0012 7.57833C23.0012 8.83487 18.8735 9.93554 14.3527 9.93554Z" fill="white"/>
</svg>
