<svg width="70" height="85" viewBox="0 0 70 85" fill="none" xmlns="http://www.w3.org/2000/svg">
<path d="M51.513 54.0444C51.2755 54.281 50.9879 54.4596 50.6523 54.5819L50.3137 54.6836C50.3137 54.6836 4.65527 73.1056 1.10503 69.5425C-2.4452 65.9792 16.143 20.3882 16.143 20.3882L16.2459 20.05C16.3694 19.7149 16.5491 19.4279 16.7865 19.1912C19.6268 16.3613 29.7037 21.8688 39.2931 31.4931C48.8824 41.1174 54.3532 51.2146 51.513 54.0444Z" fill="url(#paint0_linear_99_73930)"/>
<path d="M48.6723 55.3382C46.2693 56.291 41.458 58.177 35.7768 60.2882C32.302 61.5799 28.5016 62.9557 24.7277 64.2523C21.4299 65.3857 18.1519 66.4606 15.1313 67.3664C13.056 65.6223 10.9936 63.7306 8.97307 61.7028C6.95254 59.675 5.06858 57.6056 3.33203 55.524C4.24876 52.5069 5.33568 49.2325 6.48107 45.939C7.79144 42.1698 9.18115 38.3744 10.4855 34.9045C12.6173 29.2309 14.5209 24.4266 15.4824 22.0271C21.6086 25.3492 28.155 30.2623 34.3191 36.4489C40.4834 42.6357 45.3725 49.1999 48.6723 55.3382Z" fill="url(#paint1_linear_99_73930)"/>
<path d="M51.5121 54.044C51.2752 54.2814 50.9869 54.459 50.6514 54.5822L50.3132 54.683C50.3132 54.683 49.7229 54.9212 48.6718 55.338C46.2689 56.2908 41.4575 58.1769 35.7763 60.288C32.3015 61.5797 28.5011 62.9555 24.7273 64.2522C21.4472 61.7783 18.1595 58.9204 14.9739 55.7232C11.7884 52.5259 8.94255 49.2278 6.48047 45.9388C7.79084 42.1696 9.18055 38.3743 10.4849 34.9043C12.6167 29.2308 14.5203 24.4264 15.4818 22.0269C15.9025 20.9774 16.1428 20.388 16.1428 20.388L16.2449 20.0501C16.3694 19.715 16.548 19.4273 16.7863 19.1913C19.6266 16.3612 29.7026 21.8691 39.2926 31.4926C48.8814 41.1179 54.3525 51.2139 51.5121 54.044Z" fill="url(#paint2_linear_99_73930)"/>
<path d="M51.5115 54.044C51.2746 54.2814 50.9862 54.459 50.6508 54.5821L50.3126 54.683C50.3126 54.683 49.7223 54.9212 48.6712 55.338C46.2682 56.2908 41.4569 58.1769 35.7756 60.288C31.1514 57.2426 26.4145 53.3832 21.8848 48.8369C17.3551 44.2906 13.5129 39.5397 10.4844 34.9045C12.6162 29.2309 14.5198 24.4266 15.4813 22.0271C15.902 20.9775 16.1423 20.3881 16.1423 20.3881L16.2444 20.0502C16.3689 19.7151 16.5475 19.4275 16.7857 19.1914C19.6261 16.3613 29.7021 21.8692 39.2921 31.4927C48.8808 41.1179 54.3519 51.2139 51.5115 54.044Z" fill="url(#paint3_linear_99_73930)"/>
<path d="M51.5122 54.0448C48.6714 56.8753 38.5946 51.3678 29.0053 41.7433C19.416 32.1189 13.945 22.0222 16.7857 19.1916C19.6265 16.361 29.7034 21.8687 39.2927 31.4931C48.882 41.1176 54.353 51.2143 51.5122 54.0448Z" fill="url(#paint4_linear_99_73930)"/>
<path d="M49.7424 51.4505C47.6437 53.5415 39.1442 48.4137 30.7584 39.9972C22.3725 31.5807 17.2757 23.0627 19.3743 20.9716C21.4729 18.8806 29.9724 24.0084 38.3583 32.4249C46.7442 40.8413 51.8411 49.3594 49.7424 51.4505Z" fill="url(#paint5_linear_99_73930)"/>
<path d="M51.5121 54.0444C54.3524 51.2145 48.8817 41.1176 39.2922 31.4933C33.6693 25.8499 27.8795 21.6231 23.4785 19.6616C23.6504 19.9779 23.8421 20.2913 24.0564 20.6004C24.4046 21.1028 24.8122 21.5607 25.2712 21.9735L27.7062 24.4255C27.4256 24.5528 27.1677 24.6536 26.9508 24.73C26.5625 24.8669 26.3352 25.2685 26.4165 25.672L27.2781 29.9522C27.3543 30.3306 27.6198 30.618 27.9515 30.7436L51.3293 54.2066C51.3931 54.1561 51.4542 54.1022 51.5121 54.0444Z" fill="url(#paint6_linear_99_73930)"/>
<path d="M35.9679 40.7463L38.3591 43.6049L49.4983 54.7847C50.3497 54.7607 51.0338 54.5215 51.512 54.0449C53.9944 51.5714 50.1297 43.5494 42.7163 35.1426C40.4061 36.1073 38.2039 37.3702 36.1702 38.923C35.5956 39.3614 35.5041 40.1919 35.9679 40.7463Z" fill="url(#paint7_linear_99_73930)"/>
<path d="M38.3591 43.6049L35.9679 40.7463C35.5041 40.1919 35.5956 39.3615 36.1701 38.9229C43.5809 33.2649 53.2204 31.4272 62.2231 34.0165C64.4889 34.6681 66.6585 35.5818 68.6893 36.7385C69.3175 37.0963 69.5189 37.9076 69.1329 38.5189L67.1435 41.6704C66.7828 42.2418 66.0388 42.4285 65.4494 42.0983C63.8906 41.225 62.2283 40.532 60.4929 40.033C53.4524 38.0081 45.9171 39.421 40.0949 43.8035C39.5552 44.2097 38.7924 44.1229 38.3591 43.6049Z" fill="url(#paint8_linear_99_73930)"/>
<path d="M17.6957 13.9275L15.5244 11.6934C14.5403 10.6807 14.244 9.05071 14.8187 7.81129C15.4859 6.37218 17.0871 5.95039 18.3767 6.87398C19.4875 7.66951 20.0327 9.23394 19.6752 10.6L18.8865 13.6139C18.7472 14.1464 18.0794 14.3224 17.6957 13.9275Z" fill="url(#paint9_linear_99_73930)"/>
<path d="M13.8555 16.3537L10.7724 15.9057C9.37506 15.7027 8.14663 14.5909 7.84686 13.258C7.49878 11.7103 8.51117 10.4001 10.0965 10.3464C11.4619 10.3002 12.8476 11.2081 13.3968 12.5091L14.6083 15.3793C14.8226 15.8864 14.4002 16.4328 13.8555 16.3537Z" fill="url(#paint10_linear_99_73930)"/>
<path d="M55.1344 52.1911L58.237 51.9102C59.6433 51.783 61.0965 52.5787 61.6978 53.8054C62.396 55.2297 61.7159 56.7394 60.1865 57.1602C58.8691 57.5226 57.3104 56.9615 56.4739 55.8238L54.6285 53.3138C54.3025 52.8702 54.586 52.2406 55.1344 52.1911Z" fill="url(#paint11_linear_99_73930)"/>
<path d="M55.6661 47.6796L57.9548 45.566C58.9922 44.6079 60.6293 44.3533 61.8537 44.9593C63.2754 45.663 63.6563 47.2744 62.7 48.5402C61.8765 49.6304 60.2986 50.1355 58.9421 49.7433L55.9493 48.8781C55.4206 48.7252 55.2618 48.053 55.6661 47.6796Z" fill="url(#paint12_linear_99_73930)"/>
<path d="M28.6536 30.7621C28.0466 30.9579 27.405 30.5777 27.2792 29.9523L26.4175 25.6722C26.3362 25.2685 26.5635 24.867 26.9518 24.7302C27.4056 24.5703 28.0361 24.3072 28.688 23.9064C26.7193 23.2565 25.1174 22.1296 24.0575 20.6006C22.0594 17.7178 21.9028 14.4685 23.6383 11.9085C25.3558 9.37536 28.5293 8.13951 31.5359 8.83361C34.8227 9.59236 37.1315 12.4683 37.7118 16.5269C37.7359 16.6958 37.7573 16.864 37.7759 17.0314C38.5822 16.559 39.2338 15.9762 39.6419 15.3238C40.6748 13.6728 40.7728 11.2088 39.8919 9.04663C39.3328 7.67436 38.4696 6.6249 37.496 6.09702C37.0617 5.86163 36.8303 5.37314 36.9467 4.89316L37.9339 0.822591C38.0851 0.199179 38.7491 -0.159605 39.3483 0.0698853C42.1111 1.12798 44.3843 3.48122 45.6894 6.6842C47.3296 10.7096 47.0461 15.2923 44.9492 18.644C43.2902 21.2958 40.2305 23.2738 36.6927 24.1099C35.898 25.7715 34.7086 27.2313 33.1487 28.4272C31.483 29.7039 29.7573 30.4064 28.6536 30.7621ZM29.8807 14.906C29.4713 14.9054 29.0316 15.1092 28.82 15.4216C28.5038 15.888 28.924 16.6323 29.2027 17.0343C29.5848 17.5857 30.4745 17.997 31.5951 18.1812C31.5789 17.9317 31.552 17.6757 31.5144 17.413C31.3145 16.0146 30.796 15.0878 30.1276 14.9335C30.0481 14.9151 29.9651 14.9062 29.8807 14.906Z" fill="url(#paint13_radial_99_73930)"/>
<path d="M42.2622 21.5349L37.7748 17.0311C37.7748 17.0311 38.0613 21.3799 36.6914 24.1098C38.7778 23.6168 40.6976 22.7262 42.2622 21.5349Z" fill="url(#paint14_linear_99_73930)"/>
<path d="M29.2021 17.0343C28.998 16.7398 28.7191 16.262 28.7082 15.8439L22.4395 15.8325C22.4492 17.4193 22.9907 19.0621 24.057 20.6006C25.1169 22.1298 26.7187 23.2566 28.6874 23.9064C28.6874 23.9064 31.9003 22.9318 31.5948 18.1812C30.4739 17.997 29.5843 17.5857 29.2021 17.0343Z" fill="url(#paint15_linear_99_73930)"/>
<path d="M42.4958 31.2912C41.0406 32.2395 39.7989 33.4887 38.8587 34.9499C38.6471 35.2785 38.1592 35.2777 37.9489 34.9482C37.014 33.4836 35.777 32.2299 34.3251 31.2763C34.0029 31.0646 34.0038 30.5833 34.3268 30.3729C35.7819 29.4246 37.0236 28.1754 37.9639 26.7142C38.1753 26.3856 38.6633 26.3864 38.8736 26.7158C39.8086 28.1805 41.0457 29.4342 42.4974 30.3878C42.8197 30.5995 42.8187 31.0808 42.4958 31.2912Z" fill="url(#paint16_linear_99_73930)"/>
<path d="M69.1032 29.3779C67.648 30.3262 66.4063 31.5753 65.4661 33.0366C65.2547 33.3652 64.7666 33.3643 64.5563 33.0349C63.6214 31.5703 62.3844 30.3166 60.9325 29.3629C60.6103 29.1513 60.6112 28.6699 60.9342 28.4595C62.3894 27.5112 63.631 26.2621 64.5713 24.8009C64.7827 24.4723 65.2708 24.4731 65.481 24.8025C66.416 26.2672 67.6531 27.5208 69.1048 28.4745C69.4271 28.686 69.4262 29.1673 69.1032 29.3779Z" fill="url(#paint17_linear_99_73930)"/>
<path d="M56.6423 8.12607C55.1871 9.07436 53.9453 10.3235 53.0051 11.7847C52.7936 12.1133 52.3057 12.1125 52.0954 11.7831C51.1604 10.3184 49.9235 9.06475 48.4716 8.11111C48.1493 7.89946 48.1503 7.41811 48.4733 7.2077C49.9284 6.2594 51.17 5.01024 52.1104 3.54903C52.3217 3.22044 52.8098 3.22126 53.0201 3.55067C53.9551 5.01532 55.1922 6.26901 56.6439 7.22266C56.9662 7.4343 56.9652 7.91566 56.6423 8.12607Z" fill="url(#paint18_linear_99_73930)"/>
<path d="M55.2939 22.7808C54.2331 23.4721 53.328 24.3827 52.6426 25.4478C52.4884 25.6873 52.1327 25.6866 51.9795 25.4465C51.298 24.3788 50.3963 23.465 49.3379 22.7698C49.103 22.6155 49.1036 22.2647 49.3391 22.1112C50.4 21.4199 51.305 20.5093 51.9905 19.4442C52.1446 19.2047 52.5004 19.2053 52.6535 19.4455C53.3352 20.5132 54.2369 21.427 55.2952 22.1222C55.5301 22.2765 55.5295 22.6273 55.2939 22.7808Z" fill="url(#paint19_linear_99_73930)"/>
<path d="M59.6142 14.5469C58.5534 15.2383 57.6483 16.1488 56.9629 17.2139C56.8087 17.4534 56.453 17.4528 56.2998 17.2127C55.6183 16.145 54.7166 15.2311 53.6582 14.5359C53.4234 14.3817 53.4239 14.0309 53.6594 13.8774C54.7203 13.186 55.6253 12.2755 56.3108 11.2104C56.4649 10.9709 56.8207 10.9714 56.9739 11.2116C57.6555 12.2793 58.5572 13.1932 59.6155 13.8884C59.8503 14.0427 59.8496 14.3935 59.6142 14.5469Z" fill="url(#paint20_linear_99_73930)"/>
<path d="M26 53.75C17.8654 53.75 11.25 60.3654 11.25 68.5C11.25 76.6346 17.8654 83.25 26 83.25C34.1346 83.25 40.75 76.6346 40.75 68.5C40.75 60.3654 34.1346 53.75 26 53.75Z" fill="#4640DE" stroke="white" stroke-width="2.5"/>
<path d="M32.8426 65.6392L25.53 72.9516C25.3106 73.1709 25.0226 73.2813 24.7346 73.2813C24.4467 73.2813 24.1587 73.1709 23.9393 72.9516L20.2831 69.2954C19.8431 68.8556 19.8431 68.1445 20.2831 67.7047C20.7229 67.2647 21.4338 67.2647 21.8738 67.7047L24.7346 70.5655L31.2519 64.0485C31.6917 63.6085 32.4026 63.6085 32.8426 64.0485C33.2824 64.4883 33.2824 65.1992 32.8426 65.6392Z" fill="#FAFAFA"/>
<defs>
<linearGradient id="paint0_linear_99_73930" x1="9.67501" y1="34.2424" x2="29.9923" y2="63.4814" gradientUnits="userSpaceOnUse">
<stop stop-color="#FFE548"/>
<stop offset="0.1758" stop-color="#FFDE50"/>
<stop offset="0.4446" stop-color="#FFCA65"/>
<stop offset="0.7709" stop-color="#FFAA87"/>
<stop offset="1" stop-color="#FF90A4"/>
</linearGradient>
<linearGradient id="paint1_linear_99_73930" x1="25.5013" y1="57.1642" x2="21.5785" y2="70.9754" gradientUnits="userSpaceOnUse">
<stop stop-color="#FBA5C2" stop-opacity="0"/>
<stop offset="0.3857" stop-color="#FCA0BA" stop-opacity="0.386"/>
<stop offset="0.9737" stop-color="#FF91A5" stop-opacity="0.974"/>
<stop offset="1" stop-color="#FF90A4"/>
</linearGradient>
<linearGradient id="paint2_linear_99_73930" x1="29.4417" y1="48.9267" x2="24.5841" y2="66.3531" gradientUnits="userSpaceOnUse">
<stop stop-color="#FBA5C2" stop-opacity="0"/>
<stop offset="0.3857" stop-color="#FCA0BA" stop-opacity="0.386"/>
<stop offset="0.9737" stop-color="#FF91A5" stop-opacity="0.974"/>
<stop offset="1" stop-color="#FF90A4"/>
</linearGradient>
<linearGradient id="paint3_linear_99_73930" x1="32.6667" y1="39.4623" x2="26.5986" y2="59.2976" gradientUnits="userSpaceOnUse">
<stop stop-color="#FBA5C2" stop-opacity="0"/>
<stop offset="0.3857" stop-color="#FCA0BA" stop-opacity="0.386"/>
<stop offset="0.9737" stop-color="#FF91A5" stop-opacity="0.974"/>
<stop offset="1" stop-color="#FF90A4"/>
</linearGradient>
<linearGradient id="paint4_linear_99_73930" x1="36.1196" y1="32.178" x2="29.6913" y2="46.6335" gradientUnits="userSpaceOnUse">
<stop stop-color="#FFE548"/>
<stop offset="0.1758" stop-color="#FFDE50"/>
<stop offset="0.4446" stop-color="#FFCA65"/>
<stop offset="0.7709" stop-color="#FFAA87"/>
<stop offset="1" stop-color="#FF90A4"/>
</linearGradient>
<linearGradient id="paint5_linear_99_73930" x1="30.0574" y1="43.1017" x2="39.1278" y2="29.2081" gradientUnits="userSpaceOnUse">
<stop stop-color="#FFD00D" stop-opacity="0"/>
<stop offset="1" stop-color="#DB722B"/>
</linearGradient>
<linearGradient id="paint6_linear_99_73930" x1="38.4592" y1="37.009" x2="32.7902" y2="19.608" gradientUnits="userSpaceOnUse">
<stop stop-color="#FFD00D" stop-opacity="0"/>
<stop offset="1" stop-color="#DB722B"/>
</linearGradient>
<linearGradient id="paint7_linear_99_73930" x1="45.1971" y1="46.6077" x2="40.6212" y2="39.0862" gradientUnits="userSpaceOnUse">
<stop stop-color="#A34A9E" stop-opacity="0"/>
<stop offset="1" stop-color="#343168"/>
</linearGradient>
<linearGradient id="paint8_linear_99_73930" x1="52.4009" y1="44.2562" x2="52.6095" y2="32.7889" gradientUnits="userSpaceOnUse">
<stop stop-color="#A34A9E"/>
<stop offset="1" stop-color="#343168"/>
</linearGradient>
<linearGradient id="paint9_linear_99_73930" x1="16.5885" y1="9.77318" x2="19.1092" y2="10.8701" gradientUnits="userSpaceOnUse">
<stop stop-color="#3FA9F5"/>
<stop offset="1" stop-color="#666AD6"/>
</linearGradient>
<linearGradient id="paint10_linear_99_73930" x1="10.5046" y1="13.7097" x2="13.1703" y2="13.0438" gradientUnits="userSpaceOnUse">
<stop stop-color="#A34A9E"/>
<stop offset="1" stop-color="#343168"/>
</linearGradient>
<linearGradient id="paint11_linear_99_73930" x1="58.8117" y1="54.0047" x2="52.2189" y2="57.9794" gradientUnits="userSpaceOnUse">
<stop stop-color="#FF4974"/>
<stop offset="0.4497" stop-color="#FE4773"/>
<stop offset="0.6292" stop-color="#FC406D"/>
<stop offset="0.7605" stop-color="#F73464"/>
<stop offset="0.8683" stop-color="#F12257"/>
<stop offset="0.9606" stop-color="#E80C46"/>
<stop offset="1" stop-color="#E4003D"/>
</linearGradient>
<linearGradient id="paint12_linear_99_73930" x1="59.999" y1="45.8355" x2="56.9208" y2="54.6402" gradientUnits="userSpaceOnUse">
<stop stop-color="#C4F8B6"/>
<stop offset="1" stop-color="#3B8EAC"/>
</linearGradient>
<radialGradient id="paint13_radial_99_73930" cx="0" cy="0" r="1" gradientUnits="userSpaceOnUse" gradientTransform="translate(23.3973 5.1199) rotate(0.114591) scale(27.5551)">
<stop stop-color="#FF4974"/>
<stop offset="0.4497" stop-color="#FE4773"/>
<stop offset="0.6292" stop-color="#FC406D"/>
<stop offset="0.7605" stop-color="#F73464"/>
<stop offset="0.8683" stop-color="#F12257"/>
<stop offset="0.9606" stop-color="#E80C46"/>
<stop offset="1" stop-color="#E4003D"/>
</radialGradient>
<linearGradient id="paint14_linear_99_73930" x1="43.0197" y1="24.7656" x2="33.0872" y2="17.5812" gradientUnits="userSpaceOnUse">
<stop stop-color="#E4003D" stop-opacity="0"/>
<stop offset="0.3434" stop-color="#CD0E2D" stop-opacity="0.343"/>
<stop offset="1" stop-color="#972E07"/>
</linearGradient>
<linearGradient id="paint15_linear_99_73930" x1="27.9461" y1="19.6353" x2="30.7234" y2="22.2145" gradientUnits="userSpaceOnUse">
<stop stop-color="#E4003D" stop-opacity="0"/>
<stop offset="0.3434" stop-color="#CD0E2D" stop-opacity="0.343"/>
<stop offset="1" stop-color="#972E07"/>
</linearGradient>
<linearGradient id="paint16_linear_99_73930" x1="36.9952" y1="28.9506" x2="41.5738" y2="35.0809" gradientUnits="userSpaceOnUse">
<stop stop-color="#3FA9F5"/>
<stop offset="1" stop-color="#666AD6"/>
</linearGradient>
<linearGradient id="paint17_linear_99_73930" x1="63.603" y1="27.0419" x2="68.1816" y2="33.1722" gradientUnits="userSpaceOnUse">
<stop stop-color="#3FA9F5"/>
<stop offset="1" stop-color="#666AD6"/>
</linearGradient>
<linearGradient id="paint18_linear_99_73930" x1="51.1459" y1="5.78797" x2="55.7244" y2="11.9183" gradientUnits="userSpaceOnUse">
<stop stop-color="#A34A9E"/>
<stop offset="1" stop-color="#343168"/>
</linearGradient>
<linearGradient id="paint19_linear_99_73930" x1="51.2843" y1="21.0789" x2="54.622" y2="25.5477" gradientUnits="userSpaceOnUse">
<stop stop-color="#C4F8B6"/>
<stop offset="1" stop-color="#3B8EAC"/>
</linearGradient>
<linearGradient id="paint20_linear_99_73930" x1="55.606" y1="12.8457" x2="58.9437" y2="17.3146" gradientUnits="userSpaceOnUse">
<stop stop-color="#FFE548"/>
<stop offset="0.1758" stop-color="#FFDE50"/>
<stop offset="0.4446" stop-color="#FFCA65"/>
<stop offset="0.7709" stop-color="#FFAA87"/>
<stop offset="1" stop-color="#FF90A4"/>
</linearGradient>
</defs>
</svg>
