<svg width="13" height="13" viewBox="0 0 13 13" fill="none" xmlns="http://www.w3.org/2000/svg">
<g clip-path="url(#clip0_303_50330)">
<path d="M11.5 6.5C11.5 9.26142 9.26142 11.5 6.5 11.5M11.5 6.5C11.5 3.73858 9.26142 1.5 6.5 1.5M11.5 6.5H1.5M6.5 11.5C3.73858 11.5 1.5 9.26142 1.5 6.5M6.5 11.5C7.75064 10.1308 8.46138 8.35398 8.5 6.5C8.46138 4.64602 7.75064 2.86918 6.5 1.5M6.5 11.5C5.24936 10.1308 4.53862 8.35398 4.5 6.5C4.53862 4.64602 5.24936 2.86918 6.5 1.5M1.5 6.5C1.5 3.73858 3.73858 1.5 6.5 1.5" stroke="#667085" stroke-width="1.04167" stroke-linecap="round" stroke-linejoin="round"/>
</g>
<defs>
<clipPath id="clip0_303_50330">
<rect width="12" height="12" fill="white" transform="translate(0.5 0.5)"/>
</clipPath>
</defs>
</svg>
