<svg width="28" height="28" viewBox="0 0 28 28" fill="none" xmlns="http://www.w3.org/2000/svg">
<path d="M18.0833 8.75016L22.1667 4.66683M24.5 2.3335L22.1667 4.66683L24.5 2.3335ZM13.2883 13.5452C13.8907 14.1395 14.3696 14.8472 14.6974 15.6274C15.0252 16.4076 15.1954 17.245 15.1982 18.0912C15.201 18.9375 15.0364 19.776 14.7139 20.5583C14.3914 21.3407 13.9172 22.0516 13.3188 22.65C12.7204 23.2484 12.0096 23.7225 11.2272 24.0451C10.4448 24.3676 9.60633 24.5322 8.76007 24.5294C7.91381 24.5265 7.07647 24.3563 6.29626 24.0285C5.51605 23.7008 4.80838 23.2219 4.214 22.6195C3.04515 21.4093 2.39839 19.7884 2.41301 18.106C2.42763 16.4236 3.10246 14.8142 4.29216 13.6245C5.48187 12.4348 7.09125 11.76 8.77368 11.7453C10.4561 11.7307 12.077 12.3775 13.2872 13.5463L13.2883 13.5452ZM13.2883 13.5452L18.0833 8.75016L13.2883 13.5452ZM18.0833 8.75016L21.5833 12.2502L25.6667 8.16683L22.1667 4.66683L18.0833 8.75016Z" stroke="#4640DE" stroke-width="2.33333" stroke-linecap="round" stroke-linejoin="round"/>
</svg>
