<svg width="28" height="28" viewBox="0 0 28 28" fill="none" xmlns="http://www.w3.org/2000/svg">
<path d="M18.0833 8.74992L22.1667 4.66659M24.5 2.33325L22.1667 4.66659L24.5 2.33325ZM13.2883 13.5449C13.8907 14.1393 14.3696 14.847 14.6974 15.6272C15.0252 16.4074 15.1954 17.2447 15.1982 18.091C15.201 18.9373 15.0364 19.7757 14.7139 20.5581C14.3914 21.3405 13.9172 22.0514 13.3188 22.6498C12.7204 23.2482 12.0096 23.7223 11.2272 24.0448C10.4448 24.3674 9.60633 24.532 8.76007 24.5291C7.91381 24.5263 7.07647 24.3561 6.29626 24.0283C5.51605 23.7005 4.80838 23.2216 4.214 22.6193C3.04515 21.4091 2.39839 19.7882 2.41301 18.1058C2.42763 16.4233 3.10246 14.814 4.29216 13.6242C5.48187 12.4345 7.09125 11.7597 8.77368 11.7451C10.4561 11.7305 12.077 12.3772 13.2872 13.5461L13.2883 13.5449ZM13.2883 13.5449L18.0833 8.74992L13.2883 13.5449ZM18.0833 8.74992L21.5833 12.2499L25.6667 8.16659L22.1667 4.66659L18.0833 8.74992Z" stroke="#4640DE" stroke-width="2.33333" stroke-linecap="round" stroke-linejoin="round"/>
</svg>
