<svg width="21" height="21" viewBox="0 0 21 21" fill="none" xmlns="http://www.w3.org/2000/svg">
<path d="M15.2122 5.75258C14.8923 5.43048 14.8923 4.91414 15.2122 4.59204L16.9307 2.46315L16.9307 2.42619C17.366 1.99549 18.0718 1.99549 18.5072 2.42619C18.9425 2.85689 18.9425 3.5552 18.5072 3.9859L16.4824 5.75258L16.4067 5.81962C16.2487 5.9445 16.0516 6.01348 15.8473 6.01348C15.609 6.01348 15.3805 5.9196 15.2122 5.75258ZM2.16699 11.6218C2.16699 9.72603 2.92819 7.9079 4.28313 6.56738C5.63807 5.22686 7.47576 4.47377 9.39193 4.47377C13.3822 4.47377 16.6169 7.67405 16.6169 11.6218C16.6169 15.5696 13.3822 18.7698 9.39193 18.7698C5.40171 18.7698 2.16699 15.5696 2.16699 11.6218Z" fill="white"/>
</svg>
