<svg width="16" height="6" viewBox="0 0 16 6" fill="none" xmlns="http://www.w3.org/2000/svg">
<mask id="path-1-inside-1_316_61596" fill="white">
<path d="M8 5.43665C10.6652 5.43665 13.3304 3.33194 15.0607 1.61564C15.4599 1.21973 14.9792 0.648825 14.4822 0.911532C12.6013 1.90566 10.0181 3.03665 8 3.03665C5.98194 3.03665 3.39867 1.90566 1.5178 0.911531C1.02076 0.648825 0.540123 1.21973 0.939264 1.61564C2.66956 3.33194 5.33478 5.43665 8 5.43665Z"/>
</mask>
<path d="M15.0607 1.61564L17.1734 3.74556V3.74556L15.0607 1.61564ZM0.939264 1.61564L-1.17342 3.74556H-1.17342L0.939264 1.61564ZM1.5178 0.911531L2.91967 -1.74078L2.91967 -1.74078L1.5178 0.911531ZM14.4822 0.911532L13.0803 -1.74078L13.0803 -1.74078L14.4822 0.911532ZM12.948 -0.51428C12.1783 0.249286 11.2652 1.03198 10.3201 1.60781C9.34913 2.19936 8.56719 2.43665 8 2.43665V8.43665C10.098 8.43665 11.9813 7.62158 13.4419 6.7317C14.9282 5.82611 16.2129 4.69829 17.1734 3.74556L12.948 -0.51428ZM8 2.43665C7.43281 2.43665 6.65087 2.19936 5.67995 1.60781C4.73482 1.03197 3.82175 0.249285 3.05195 -0.514282L-1.17342 3.74556C-0.212916 4.69829 1.07177 5.82611 2.55813 6.7317C4.0187 7.62158 5.90197 8.43665 8 8.43665V2.43665ZM0.115926 3.56384C1.1314 4.10057 2.3827 4.69953 3.69336 5.17029C4.96695 5.62774 6.49206 6.03665 8 6.03665V0.0366457C7.48988 0.0366457 6.71432 -0.119937 5.72155 -0.476516C4.76584 -0.819784 3.78507 -1.28338 2.91967 -1.74078L0.115926 3.56384ZM8 6.03665C9.50794 6.03665 11.033 5.62774 12.3066 5.17029C13.6173 4.69954 14.8686 4.10057 15.8841 3.56384L13.0803 -1.74078C12.2149 -1.28338 11.2342 -0.819784 10.2785 -0.476515C9.28568 -0.119937 8.51013 0.0366457 8 0.0366457V6.03665ZM17.1734 3.74556C17.7674 3.15637 18.1776 2.33615 18.2071 1.39591C18.2356 0.491708 17.905 -0.310772 17.4152 -0.900376C16.4114 -2.1087 14.6321 -2.56098 13.0803 -1.74078L15.8841 3.56384C14.8293 4.12133 13.5389 3.82316 12.7999 2.93358C12.4425 2.50336 12.1883 1.90142 12.2101 1.2074C12.2331 0.477346 12.5536 -0.123049 12.948 -0.51428L17.1734 3.74556ZM3.05195 -0.514281C3.44637 -0.123051 3.76695 0.477345 3.7899 1.2074C3.81171 1.90142 3.55749 2.50336 3.2001 2.93359C2.46112 3.82316 1.17068 4.12133 0.115926 3.56384L2.91967 -1.74078C1.36787 -2.56098 -0.411398 -2.1087 -1.41517 -0.900383C-1.90496 -0.31078 -2.23557 0.4917 -2.20714 1.39591C-2.17759 2.33614 -1.76741 3.15637 -1.17342 3.74556L3.05195 -0.514281Z" fill="white" mask="url(#path-1-inside-1_316_61596)"/>
</svg>
