<svg width="20" height="8" viewBox="0 0 20 8" fill="none" xmlns="http://www.w3.org/2000/svg">
<mask id="path-1-inside-1_292_61248" fill="white">
<path d="M10 7.125C13.6647 7.125 17.3293 4.23103 19.7085 1.87112C20.2573 1.32674 19.5965 0.541747 18.913 0.902969C16.3268 2.2699 12.7748 3.825 10 3.825C7.22517 3.825 3.67317 2.2699 1.08697 0.902968C0.403544 0.541746 -0.25733 1.32674 0.291489 1.87111C2.67065 4.23103 6.33533 7.125 10 7.125Z"/>
</mask>
<path d="M19.7085 1.87112L22.6135 4.79976L22.6135 4.79975L19.7085 1.87112ZM0.291489 1.87111L-2.61346 4.79975L-2.61345 4.79975L0.291489 1.87111ZM1.08697 0.902968L-0.840603 4.5499L-0.840602 4.5499L1.08697 0.902968ZM18.913 0.902969L16.9855 -2.74396V-2.74396L18.913 0.902969ZM16.8036 -1.05752C15.7451 -0.00761962 14.4896 1.06858 13.1901 1.86035C11.8551 2.67373 10.7799 3 10 3V11.25C12.8848 11.25 15.4743 10.1293 17.4826 8.9057C19.5263 7.66051 21.2928 6.10977 22.6135 4.79976L16.8036 -1.05752ZM10 3C9.22012 3 8.14494 2.67373 6.80993 1.86035C5.51038 1.06858 4.2549 -0.00762069 3.19643 -1.05752L-2.61345 4.79975C-1.29276 6.10976 0.473679 7.66051 2.51743 8.9057C4.52571 10.1293 7.11521 11.25 10 11.25V3ZM-0.840602 4.5499C0.555676 5.2879 2.27621 6.11147 4.07836 6.75876C5.82956 7.38775 7.92659 7.95 10 7.95V-0.3C9.29858 -0.3 8.23219 -0.5153 6.86713 -1.0056C5.55303 -1.47759 4.20447 -2.11503 3.01454 -2.74396L-0.840602 4.5499ZM10 7.95C12.0734 7.95 14.1704 7.38775 15.9216 6.75876C17.7238 6.11147 19.4443 5.2879 20.8406 4.5499L16.9855 -2.74396C15.7955 -2.11503 14.447 -1.47759 13.1329 -1.0056C11.7678 -0.5153 10.7014 -0.3 10 -0.3V7.95ZM22.6135 4.79975C23.4302 3.98962 23.9942 2.86181 24.0348 1.56899C24.0739 0.325713 23.6193 -0.777697 22.9459 -1.5884C21.5657 -3.24985 19.1192 -3.87173 16.9855 -2.74396L20.8406 4.5499C19.3903 5.31645 17.616 4.90645 16.5999 3.68329C16.1084 3.09172 15.7589 2.26406 15.7889 1.30978C15.8204 0.305964 16.2612 -0.519577 16.8036 -1.05752L22.6135 4.79975ZM3.19643 -1.05752C3.73876 -0.519581 4.17955 0.305962 4.21111 1.30978C4.2411 2.26406 3.89155 3.09173 3.40013 3.68329C2.38404 4.90645 0.609689 5.31644 -0.840603 4.5499L3.01454 -2.74396C0.880824 -3.87173 -1.56568 -3.24985 -2.94586 -1.58841C-3.61932 -0.777706 -4.0739 0.325704 -4.03482 1.56899C-3.99418 2.86181 -3.4302 3.98962 -2.61346 4.79975L3.19643 -1.05752Z" fill="white" mask="url(#path-1-inside-1_292_61248)"/>
</svg>
