<svg width="16" height="6" viewBox="0 0 16 6" fill="none" xmlns="http://www.w3.org/2000/svg">
<mask id="path-1-inside-1_316_61646" fill="white">
<path d="M8 5.43652C10.6652 5.43652 13.3304 3.33182 15.0607 1.61552C15.4599 1.21961 14.9792 0.648703 14.4822 0.91141C12.6013 1.90554 10.0181 3.03652 8 3.03652C5.98194 3.03652 3.39867 1.90554 1.5178 0.911409C1.02076 0.648703 0.540123 1.2196 0.939264 1.61552C2.66956 3.33182 5.33478 5.43652 8 5.43652Z"/>
</mask>
<path d="M15.0607 1.61552L17.1734 3.74544V3.74544L15.0607 1.61552ZM0.939264 1.61552L-1.17342 3.74543H-1.17342L0.939264 1.61552ZM1.5178 0.911409L2.91967 -1.7409L2.91967 -1.7409L1.5178 0.911409ZM14.4822 0.91141L13.0803 -1.7409L13.0803 -1.7409L14.4822 0.91141ZM12.948 -0.514403C12.1783 0.249164 11.2652 1.03185 10.3201 1.60769C9.34913 2.19924 8.56719 2.43652 8 2.43652V8.43652C10.098 8.43652 11.9813 7.62146 13.4419 6.73158C14.9282 5.82599 16.2129 4.69817 17.1734 3.74544L12.948 -0.514403ZM8 2.43652C7.43281 2.43652 6.65087 2.19924 5.67995 1.60769C4.73482 1.03185 3.82175 0.249163 3.05195 -0.514404L-1.17342 3.74543C-0.212916 4.69817 1.07177 5.82598 2.55813 6.73158C4.0187 7.62146 5.90197 8.43652 8 8.43652V2.43652ZM0.115926 3.56372C1.1314 4.10045 2.3827 4.69941 3.69336 5.17017C4.96695 5.62761 6.49206 6.03652 8 6.03652V0.0365236C7.48988 0.0365236 6.71432 -0.120059 5.72155 -0.476638C4.76584 -0.819906 3.78507 -1.2835 2.91967 -1.7409L0.115926 3.56372ZM8 6.03652C9.50794 6.03652 11.033 5.62761 12.3066 5.17017C13.6173 4.69941 14.8686 4.10045 15.8841 3.56372L13.0803 -1.7409C12.2149 -1.2835 11.2342 -0.819906 10.2785 -0.476637C9.28568 -0.120059 8.51013 0.0365236 8 0.0365236V6.03652ZM17.1734 3.74544C17.7674 3.15625 18.1776 2.33603 18.2071 1.39579C18.2356 0.491586 17.905 -0.310894 17.4152 -0.900498C16.4114 -2.10882 14.6321 -2.5611 13.0803 -1.7409L15.8841 3.56372C14.8293 4.12121 13.5389 3.82303 12.7999 2.93346C12.4425 2.50323 12.1883 1.90129 12.2101 1.20727C12.2331 0.477224 12.5536 -0.123171 12.948 -0.514402L17.1734 3.74544ZM3.05195 -0.514403C3.44637 -0.123173 3.76695 0.477223 3.7899 1.20728C3.81171 1.9013 3.55749 2.50324 3.2001 2.93347C2.46112 3.82304 1.17068 4.12121 0.115926 3.56372L2.91967 -1.7409C1.36787 -2.5611 -0.411398 -2.10883 -1.41517 -0.900505C-1.90496 -0.310902 -2.23557 0.491578 -2.20714 1.39578C-2.17759 2.33602 -1.76741 3.15625 -1.17342 3.74543L3.05195 -0.514403Z" fill="white" mask="url(#path-1-inside-1_316_61646)"/>
</svg>
