<svg width="28" height="29" viewBox="0 0 28 29" fill="none" xmlns="http://www.w3.org/2000/svg">
<path d="M14.3481 3.6496C8.26895 3.6496 3.34308 5.40851 3.34308 7.57827C3.34308 7.99452 3.5262 8.39554 3.8623 8.77205L3.85931 8.77244C5.42621 10.6826 11.201 17.4491 11.201 19.3643V23.6367C11.201 24.7509 12.6198 25.6502 14.3439 25.6502C16.0681 25.6502 17.4869 24.7509 17.4869 23.6367V19.5564C17.4869 19.4955 17.4872 19.4317 17.4872 19.3643C17.4872 17.4491 23.1834 10.7915 24.9022 8.6617V8.66161C25.1969 8.3175 25.3431 7.95405 25.3431 7.57827C25.3431 5.40851 20.4272 3.6496 14.3481 3.6496ZM14.3527 9.93548C9.83183 9.93548 5.70407 8.85509 5.70407 7.57827C5.70407 6.30145 9.78267 5.22107 14.3527 5.22107C18.9227 5.22107 23.0012 6.32174 23.0012 7.57827C23.0012 8.83481 18.8735 9.93548 14.3527 9.93548Z" fill="white"/>
</svg>
