<svg width="28" height="29" viewBox="0 0 28 29" fill="none" xmlns="http://www.w3.org/2000/svg">
<path d="M14.348 3.6496C8.26889 3.6496 3.34302 5.40851 3.34302 7.57827C3.34302 7.99452 3.52614 8.39554 3.86224 8.77205L3.85925 8.77244C5.42615 10.6826 11.2009 17.4491 11.2009 19.3643V23.6367C11.2009 24.7509 12.6197 25.6502 14.3439 25.6502C16.068 25.6502 17.4868 24.7509 17.4868 23.6367V19.5564C17.4868 19.4955 17.4872 19.4317 17.4872 19.3643C17.4872 17.4491 23.1834 10.7915 24.9022 8.6617V8.66161C25.1968 8.3175 25.343 7.95405 25.343 7.57827C25.343 5.40851 20.4272 3.6496 14.348 3.6496ZM14.3526 9.93548C9.83177 9.93548 5.70401 8.85509 5.70401 7.57827C5.70401 6.30145 9.78261 5.22107 14.3526 5.22107C18.9226 5.22107 23.0011 6.32174 23.0011 7.57827C23.0011 8.83481 18.8734 9.93548 14.3526 9.93548Z" fill="white"/>
</svg>
