<svg width="20" height="20" viewBox="0 0 20 20" fill="none" xmlns="http://www.w3.org/2000/svg">
<g clip-path="url(#clip0_329_45374)">
<path d="M14.9998 6.66665H15.8332C16.7172 6.66665 17.5651 7.01784 18.1902 7.64296C18.8153 8.26808 19.1665 9.11592 19.1665 9.99998C19.1665 10.884 18.8153 11.7319 18.1902 12.357C17.5651 12.9821 16.7172 13.3333 15.8332 13.3333H14.9998M14.9998 6.66665H1.6665V14.1666C1.6665 15.0507 2.01769 15.8985 2.64281 16.5237C3.26794 17.1488 4.11578 17.5 4.99984 17.5H11.6665C12.5506 17.5 13.3984 17.1488 14.0235 16.5237C14.6486 15.8985 14.9998 15.0507 14.9998 14.1666V6.66665ZM4.99984 0.833313V3.33331M8.33317 0.833313V3.33331M11.6665 0.833313V3.33331" stroke="#344054" stroke-width="1.67" stroke-linecap="round" stroke-linejoin="round"/>
</g>
<defs>
<clipPath id="clip0_329_45374">
<rect width="20" height="20" fill="white"/>
</clipPath>
</defs>
</svg>
