<svg width="44" height="45" viewBox="0 0 44 45" fill="none" xmlns="http://www.w3.org/2000/svg">
<path d="M41.2499 23.4167C41.2499 33.5419 33.0418 41.75 22.9166 41.75C12.7914 41.75 4.58325 33.5419 4.58325 23.4167C4.58325 13.2915 12.7914 5.08334 22.9166 5.08334C33.0418 5.08334 41.2499 13.2915 41.2499 23.4167Z" fill="#1D1D1D"/>
<path d="M40.3334 22.5C40.3334 32.6252 32.1253 40.8333 22.0001 40.8333C11.8749 40.8333 3.66675 32.6252 3.66675 22.5C3.66675 12.3748 11.8749 4.16666 22.0001 4.16666C32.1253 4.16666 40.3334 12.3748 40.3334 22.5Z" fill="#FF7E7E"/>
<path fill-rule="evenodd" clip-rule="evenodd" d="M22.0001 39C31.1128 39 38.5001 31.6127 38.5001 22.5C38.5001 13.3873 31.1128 5.99999 22.0001 5.99999C12.8874 5.99999 5.50008 13.3873 5.50008 22.5C5.50008 31.6127 12.8874 39 22.0001 39ZM22.0001 40.8333C32.1253 40.8333 40.3334 32.6252 40.3334 22.5C40.3334 12.3748 32.1253 4.16666 22.0001 4.16666C11.8749 4.16666 3.66675 12.3748 3.66675 22.5C3.66675 32.6252 11.8749 40.8333 22.0001 40.8333Z" fill="#1D1D1D"/>
<path fill-rule="evenodd" clip-rule="evenodd" d="M21.9999 28C22.5062 28 22.9166 28.4104 22.9166 28.9167V29.8333C22.9166 30.3396 22.5062 30.75 21.9999 30.75C21.4936 30.75 21.0833 30.3396 21.0833 29.8333V28.9167C21.0833 28.4104 21.4936 28 21.9999 28ZM21.9999 14.25C22.5062 14.25 22.9166 14.6604 22.9166 15.1667V25.25C22.9166 25.7563 22.5062 26.1667 21.9999 26.1667C21.4936 26.1667 21.0833 25.7563 21.0833 25.25V15.1667C21.0833 14.6604 21.4936 14.25 21.9999 14.25Z" fill="#1D1D1D"/>
</svg>
