<svg width="135" height="64" viewBox="0 0 135 64" fill="none" xmlns="http://www.w3.org/2000/svg">
<g filter="url(#filter0_dd_97_48149)">
<rect x="12" width="111" height="34" rx="8" fill="#101828"/>
<path d="M24.5577 13.4062V12.2727H31.312V13.4062H28.589V21H27.2765V13.4062H24.5577ZM33.9764 17.1136V21H32.7022V12.2727H33.9593V15.5199H34.0403C34.1937 15.1676 34.4281 14.8878 34.7434 14.6804C35.0588 14.473 35.4707 14.3693 35.9792 14.3693C36.4281 14.3693 36.8201 14.4616 37.1554 14.6463C37.4934 14.831 37.7548 15.1065 37.9395 15.473C38.127 15.8366 38.2207 16.2912 38.2207 16.8366V21H36.9466V16.9901C36.9466 16.5099 36.823 16.1378 36.5758 15.8736C36.3287 15.6065 35.9849 15.473 35.5446 15.473C35.2434 15.473 34.9735 15.5369 34.7349 15.6648C34.4991 15.7926 34.313 15.9801 34.1767 16.2273C34.0431 16.4716 33.9764 16.767 33.9764 17.1136ZM39.921 21V14.4545H41.1951V21H39.921ZM40.5645 13.4446C40.3429 13.4446 40.1525 13.3707 39.9934 13.223C39.8372 13.0724 39.7591 12.8935 39.7591 12.6861C39.7591 12.4759 39.8372 12.2969 39.9934 12.1491C40.1525 11.9986 40.3429 11.9233 40.5645 11.9233C40.786 11.9233 40.975 11.9986 41.1312 12.1491C41.2903 12.2969 41.3699 12.4759 41.3699 12.6861C41.3699 12.8935 41.2903 13.0724 41.1312 13.223C40.975 13.3707 40.786 13.4446 40.5645 13.4446ZM47.8141 16.0526L46.6593 16.2571C46.611 16.1094 46.5343 15.9687 46.4292 15.8352C46.3269 15.7017 46.1877 15.5923 46.0115 15.5071C45.8354 15.4219 45.6152 15.3793 45.351 15.3793C44.9902 15.3793 44.6891 15.4602 44.4476 15.6222C44.2061 15.7812 44.0854 15.9872 44.0854 16.2401C44.0854 16.4588 44.1664 16.6349 44.3283 16.7685C44.4902 16.902 44.7516 17.0114 45.1124 17.0966L46.1522 17.3352C46.7544 17.4744 47.2033 17.6889 47.4988 17.9787C47.7942 18.2685 47.9419 18.6449 47.9419 19.108C47.9419 19.5 47.8283 19.8494 47.601 20.1562C47.3766 20.4602 47.0627 20.6989 46.6593 20.8722C46.2587 21.0455 45.7942 21.1321 45.2658 21.1321C44.5328 21.1321 43.9348 20.9759 43.4718 20.6634C43.0087 20.348 42.7246 19.9006 42.6195 19.321L43.851 19.1335C43.9277 19.4545 44.0854 19.6974 44.324 19.8622C44.5627 20.0241 44.8738 20.1051 45.2573 20.1051C45.6749 20.1051 46.0087 20.0185 46.2587 19.8452C46.5087 19.669 46.6337 19.4545 46.6337 19.2017C46.6337 18.9972 46.557 18.8253 46.4036 18.6861C46.253 18.5469 46.0215 18.4418 45.709 18.3707L44.601 18.1278C43.9902 17.9886 43.5385 17.767 43.2459 17.4631C42.9561 17.1591 42.8113 16.7741 42.8113 16.3082C42.8113 15.9219 42.9192 15.5838 43.1351 15.294C43.351 15.0043 43.6493 14.7784 44.03 14.6165C44.4107 14.4517 44.8468 14.3693 45.3382 14.3693C46.0456 14.3693 46.6025 14.5227 47.0087 14.8295C47.415 15.1335 47.6834 15.5412 47.8141 16.0526ZM52.5186 21V14.4545H53.7928V21H52.5186ZM53.1621 13.4446C52.9405 13.4446 52.7502 13.3707 52.5911 13.223C52.4348 13.0724 52.3567 12.8935 52.3567 12.6861C52.3567 12.4759 52.4348 12.2969 52.5911 12.1491C52.7502 11.9986 52.9405 11.9233 53.1621 11.9233C53.3837 11.9233 53.5726 11.9986 53.7289 12.1491C53.888 12.2969 53.9675 12.4759 53.9675 12.6861C53.9675 12.8935 53.888 13.0724 53.7289 13.223C53.5726 13.3707 53.3837 13.4446 53.1621 13.4446ZM60.4118 16.0526L59.2569 16.2571C59.2086 16.1094 59.1319 15.9687 59.0268 15.8352C58.9245 15.7017 58.7853 15.5923 58.6092 15.5071C58.4331 15.4219 58.2129 15.3793 57.9487 15.3793C57.5879 15.3793 57.2868 15.4602 57.0453 15.6222C56.8038 15.7812 56.6831 15.9872 56.6831 16.2401C56.6831 16.4588 56.764 16.6349 56.926 16.7685C57.0879 16.902 57.3493 17.0114 57.71 17.0966L58.7498 17.3352C59.3521 17.4744 59.801 17.6889 60.0964 17.9787C60.3919 18.2685 60.5396 18.6449 60.5396 19.108C60.5396 19.5 60.426 19.8494 60.1987 20.1562C59.9743 20.4602 59.6603 20.6989 59.2569 20.8722C58.8564 21.0455 58.3919 21.1321 57.8635 21.1321C57.1305 21.1321 56.5325 20.9759 56.0694 20.6634C55.6064 20.348 55.3223 19.9006 55.2172 19.321L56.4487 19.1335C56.5254 19.4545 56.6831 19.6974 56.9217 19.8622C57.1603 20.0241 57.4714 20.1051 57.8549 20.1051C58.2725 20.1051 58.6064 20.0185 58.8564 19.8452C59.1064 19.669 59.2314 19.4545 59.2314 19.2017C59.2314 18.9972 59.1547 18.8253 59.0012 18.6861C58.8507 18.5469 58.6191 18.4418 58.3066 18.3707L57.1987 18.1278C56.5879 17.9886 56.1362 17.767 55.8436 17.4631C55.5538 17.1591 55.4089 16.7741 55.4089 16.3082C55.4089 15.9219 55.5169 15.5838 55.7328 15.294C55.9487 15.0043 56.247 14.7784 56.6277 14.6165C57.0083 14.4517 57.4444 14.3693 57.9359 14.3693C58.6433 14.3693 59.2001 14.5227 59.6064 14.8295C60.0126 15.1335 60.2811 15.5412 60.4118 16.0526ZM67.0211 21.1449C66.6064 21.1449 66.2314 21.0682 65.8961 20.9148C65.5609 20.7585 65.2953 20.5327 65.0993 20.2372C64.9061 19.9418 64.8095 19.5795 64.8095 19.1506C64.8095 18.7812 64.8805 18.4773 65.0225 18.2386C65.1646 18 65.3564 17.8111 65.5978 17.6719C65.8393 17.5327 66.1092 17.4276 66.4075 17.3565C66.7058 17.2855 67.0098 17.2315 67.3194 17.1946C67.7115 17.1491 68.0297 17.1122 68.274 17.0838C68.5183 17.0526 68.6958 17.0028 68.8066 16.9347C68.9174 16.8665 68.9728 16.7557 68.9728 16.6023V16.5724C68.9728 16.2003 68.8677 15.9119 68.6575 15.7074C68.4501 15.5028 68.1404 15.4006 67.7285 15.4006C67.2995 15.4006 66.9615 15.4957 66.7143 15.6861C66.47 15.8736 66.301 16.0824 66.2072 16.3125L65.0098 16.0398C65.1518 15.642 65.3592 15.321 65.6319 15.0767C65.9075 14.8295 66.2243 14.6506 66.5822 14.5398C66.9402 14.4261 67.3166 14.3693 67.7115 14.3693C67.9728 14.3693 68.2498 14.4006 68.5424 14.4631C68.8379 14.5227 69.1135 14.6335 69.3691 14.7955C69.6277 14.9574 69.8393 15.1889 70.0041 15.4901C70.1689 15.7884 70.2512 16.1761 70.2512 16.6534V21H69.0069V20.1051H68.9558C68.8734 20.2699 68.7498 20.4318 68.585 20.5909C68.4203 20.75 68.2086 20.8821 67.9501 20.9872C67.6916 21.0923 67.3819 21.1449 67.0211 21.1449ZM67.2981 20.1222C67.6504 20.1222 67.9515 20.0526 68.2015 19.9134C68.4544 19.7741 68.6461 19.5923 68.7768 19.3679C68.9103 19.1406 68.9771 18.8977 68.9771 18.6392V17.7955C68.9316 17.8409 68.8436 17.8835 68.7129 17.9233C68.585 17.9602 68.4387 17.9929 68.274 18.0213C68.1092 18.0469 67.9487 18.071 67.7924 18.0938C67.6362 18.1136 67.5055 18.1307 67.4004 18.1449C67.1532 18.1761 66.9274 18.2287 66.7228 18.3026C66.5211 18.3764 66.3592 18.483 66.237 18.6222C66.1177 18.7585 66.0581 18.9403 66.0581 19.1676C66.0581 19.483 66.1745 19.7216 66.4075 19.8835C66.6404 20.0426 66.9373 20.1222 67.2981 20.1222ZM78.1795 14.4545V15.4773H74.6042V14.4545H78.1795ZM75.563 12.8864H76.8372V19.0781C76.8372 19.3253 76.8741 19.5114 76.948 19.6364C77.0218 19.7585 77.117 19.8423 77.2335 19.8878C77.3528 19.9304 77.4821 19.9517 77.6213 19.9517C77.7235 19.9517 77.813 19.9446 77.8897 19.9304C77.9664 19.9162 78.0261 19.9048 78.0687 19.8963L78.2988 20.9489C78.225 20.9773 78.1199 21.0057 77.9835 21.0341C77.8471 21.0653 77.6767 21.0824 77.4721 21.0852C77.1369 21.0909 76.8244 21.0312 76.5346 20.9062C76.2449 20.7812 76.0105 20.5881 75.8315 20.3267C75.6525 20.0653 75.563 19.7372 75.563 19.3423V12.8864ZM82.2757 21.1321C81.6621 21.1321 81.1266 20.9915 80.6692 20.7102C80.2118 20.429 79.8567 20.0355 79.6039 19.5298C79.351 19.0241 79.2246 18.4332 79.2246 17.7571C79.2246 17.0781 79.351 16.4844 79.6039 15.9759C79.8567 15.4673 80.2118 15.0724 80.6692 14.7912C81.1266 14.5099 81.6621 14.3693 82.2757 14.3693C82.8894 14.3693 83.4249 14.5099 83.8823 14.7912C84.3397 15.0724 84.6948 15.4673 84.9476 15.9759C85.2005 16.4844 85.3269 17.0781 85.3269 17.7571C85.3269 18.4332 85.2005 19.0241 84.9476 19.5298C84.6948 20.0355 84.3397 20.429 83.8823 20.7102C83.4249 20.9915 82.8894 21.1321 82.2757 21.1321ZM82.28 20.0625C82.6777 20.0625 83.0073 19.9574 83.2686 19.7472C83.53 19.5369 83.7232 19.2571 83.8482 18.9077C83.976 18.5582 84.04 18.1733 84.04 17.7528C84.04 17.3352 83.976 16.9517 83.8482 16.6023C83.7232 16.25 83.53 15.9673 83.2686 15.7543C83.0073 15.5412 82.6777 15.4347 82.28 15.4347C81.8794 15.4347 81.5471 15.5412 81.2828 15.7543C81.0215 15.9673 80.8269 16.25 80.699 16.6023C80.574 16.9517 80.5115 17.3352 80.5115 17.7528C80.5115 18.1733 80.574 18.5582 80.699 18.9077C80.8269 19.2571 81.0215 19.5369 81.2828 19.7472C81.5471 19.9574 81.8794 20.0625 82.28 20.0625ZM89.5062 21.1321C88.8926 21.1321 88.3571 20.9915 87.8997 20.7102C87.4423 20.429 87.0872 20.0355 86.8343 19.5298C86.5815 19.0241 86.4551 18.4332 86.4551 17.7571C86.4551 17.0781 86.5815 16.4844 86.8343 15.9759C87.0872 15.4673 87.4423 15.0724 87.8997 14.7912C88.3571 14.5099 88.8926 14.3693 89.5062 14.3693C90.1199 14.3693 90.6554 14.5099 91.1127 14.7912C91.5701 15.0724 91.9252 15.4673 92.1781 15.9759C92.4309 16.4844 92.5574 17.0781 92.5574 17.7571C92.5574 18.4332 92.4309 19.0241 92.1781 19.5298C91.9252 20.0355 91.5701 20.429 91.1127 20.7102C90.6554 20.9915 90.1199 21.1321 89.5062 21.1321ZM89.5105 20.0625C89.9082 20.0625 90.2377 19.9574 90.4991 19.7472C90.7605 19.5369 90.9537 19.2571 91.0787 18.9077C91.2065 18.5582 91.2704 18.1733 91.2704 17.7528C91.2704 17.3352 91.2065 16.9517 91.0787 16.6023C90.9537 16.25 90.7605 15.9673 90.4991 15.7543C90.2377 15.5412 89.9082 15.4347 89.5105 15.4347C89.1099 15.4347 88.7775 15.5412 88.5133 15.7543C88.252 15.9673 88.0574 16.25 87.9295 16.6023C87.8045 16.9517 87.742 17.3352 87.742 17.7528C87.742 18.1733 87.8045 18.5582 87.9295 18.9077C88.0574 19.2571 88.252 19.5369 88.5133 19.7472C88.7775 19.9574 89.1099 20.0625 89.5105 20.0625ZM95.2537 12.2727V21H93.9796V12.2727H95.2537ZM100.023 14.4545V15.4773H96.448V14.4545H100.023ZM97.4068 12.8864H98.6809V19.0781C98.6809 19.3253 98.7179 19.5114 98.7917 19.6364C98.8656 19.7585 98.9608 19.8423 99.0772 19.8878C99.1966 19.9304 99.3258 19.9517 99.465 19.9517C99.5673 19.9517 99.6568 19.9446 99.7335 19.9304C99.8102 19.9162 99.8699 19.9048 99.9125 19.8963L100.143 20.9489C100.069 20.9773 99.9636 21.0057 99.8272 21.0341C99.6909 21.0653 99.5204 21.0824 99.3159 21.0852C98.9806 21.0909 98.6681 21.0312 98.3784 20.9062C98.0886 20.7812 97.8542 20.5881 97.6752 20.3267C97.4963 20.0653 97.4068 19.7372 97.4068 19.3423V12.8864ZM101.433 21V14.4545H102.707V21H101.433ZM102.076 13.4446C101.855 13.4446 101.664 13.3707 101.505 13.223C101.349 13.0724 101.271 12.8935 101.271 12.6861C101.271 12.4759 101.349 12.2969 101.505 12.1491C101.664 11.9986 101.855 11.9233 102.076 11.9233C102.298 11.9233 102.487 11.9986 102.643 12.1491C102.802 12.2969 102.882 12.4759 102.882 12.6861C102.882 12.8935 102.802 13.0724 102.643 13.223C102.487 13.3707 102.298 13.4446 102.076 13.4446ZM104.421 23.4545V14.4545H105.665V15.5156H105.772C105.846 15.3793 105.952 15.2216 106.091 15.0426C106.231 14.8636 106.424 14.7074 106.671 14.5739C106.918 14.4375 107.245 14.3693 107.651 14.3693C108.18 14.3693 108.651 14.5028 109.066 14.7699C109.481 15.0369 109.806 15.4219 110.042 15.9247C110.28 16.4276 110.4 17.0327 110.4 17.7401C110.4 18.4474 110.282 19.054 110.046 19.5597C109.81 20.0625 109.486 20.4503 109.074 20.723C108.662 20.9929 108.192 21.1278 107.664 21.1278C107.266 21.1278 106.941 21.0611 106.688 20.9276C106.438 20.794 106.242 20.6378 106.1 20.4588C105.958 20.2798 105.849 20.1207 105.772 19.9815H105.695V23.4545H104.421ZM105.67 17.7273C105.67 18.1875 105.736 18.5909 105.87 18.9375C106.003 19.2841 106.197 19.5554 106.449 19.7514C106.702 19.9446 107.012 20.0412 107.378 20.0412C107.759 20.0412 108.077 19.9403 108.333 19.7386C108.589 19.5341 108.782 19.2571 108.912 18.9077C109.046 18.5582 109.113 18.1648 109.113 17.7273C109.113 17.2955 109.047 16.9077 108.917 16.5639C108.789 16.2202 108.596 15.9489 108.337 15.75C108.081 15.5511 107.762 15.4517 107.378 15.4517C107.009 15.4517 106.697 15.5469 106.441 15.7372C106.188 15.9276 105.996 16.1932 105.866 16.5341C105.735 16.875 105.67 17.2727 105.67 17.7273Z" fill="white"/>
<path d="M73.5711 31.4853C74.462 31.4853 74.9081 32.5624 74.2782 33.1924L68.2071 39.2635C67.8166 39.654 67.1834 39.654 66.7929 39.2635L60.7218 33.1924C60.0919 32.5624 60.538 31.4853 61.4289 31.4853L73.5711 31.4853Z" fill="#101828"/>
</g>
<defs>
<filter id="filter0_dd_97_48149" x="0" y="0" width="135" height="64" filterUnits="userSpaceOnUse" color-interpolation-filters="sRGB">
<feFlood flood-opacity="0" result="BackgroundImageFix"/>
<feColorMatrix in="SourceAlpha" type="matrix" values="0 0 0 0 0 0 0 0 0 0 0 0 0 0 0 0 0 0 127 0" result="hardAlpha"/>
<feMorphology radius="2" operator="erode" in="SourceAlpha" result="effect1_dropShadow_97_48149"/>
<feOffset dy="4"/>
<feGaussianBlur stdDeviation="3"/>
<feColorMatrix type="matrix" values="0 0 0 0 0.0627451 0 0 0 0 0.0941176 0 0 0 0 0.156863 0 0 0 0.05 0"/>
<feBlend mode="normal" in2="BackgroundImageFix" result="effect1_dropShadow_97_48149"/>
<feColorMatrix in="SourceAlpha" type="matrix" values="0 0 0 0 0 0 0 0 0 0 0 0 0 0 0 0 0 0 127 0" result="hardAlpha"/>
<feMorphology radius="4" operator="erode" in="SourceAlpha" result="effect2_dropShadow_97_48149"/>
<feOffset dy="12"/>
<feGaussianBlur stdDeviation="8"/>
<feColorMatrix type="matrix" values="0 0 0 0 0.0627451 0 0 0 0 0.0941176 0 0 0 0 0.156863 0 0 0 0.1 0"/>
<feBlend mode="normal" in2="effect1_dropShadow_97_48149" result="effect2_dropShadow_97_48149"/>
<feBlend mode="normal" in="SourceGraphic" in2="effect2_dropShadow_97_48149" result="shape"/>
</filter>
</defs>
</svg>
