<svg width="20" height="21" viewBox="0 0 20 21" fill="none" xmlns="http://www.w3.org/2000/svg">
<path d="M10.2536 2.56339C5.83245 2.56339 2.25 3.8426 2.25 5.4206C2.25 5.72333 2.38318 6.01498 2.62762 6.28881L2.62544 6.28909C3.765 7.67827 7.96483 12.5994 7.96483 13.9923V17.0995C7.96483 17.9098 8.99668 18.5638 10.2506 18.5638C11.5045 18.5638 12.5364 17.9098 12.5364 17.0995V14.132C12.5364 14.0877 12.5367 14.0413 12.5367 13.9923C12.5367 12.5994 16.6794 7.75752 17.9294 6.20855V6.20848C18.1437 5.95823 18.25 5.6939 18.25 5.4206C18.25 3.8426 14.6748 2.56339 10.2536 2.56339ZM10.257 7.13494C6.96909 7.13494 3.96708 6.3492 3.96708 5.4206C3.96708 4.49201 6.93334 3.70627 10.257 3.70627C13.5806 3.70627 16.5468 4.50676 16.5468 5.4206C16.5468 6.33445 13.5448 7.13494 10.257 7.13494Z" fill="white"/>
</svg>
