<svg width="15" height="6" viewBox="0 0 15 6" fill="none" xmlns="http://www.w3.org/2000/svg">
<mask id="path-1-inside-1_314_61478" fill="white">
<path d="M7.5 5.43661C10.1652 5.43661 12.8304 3.33191 14.5607 1.61561C14.9599 1.2197 14.4792 0.648795 13.9822 0.911501C12.1013 1.90563 9.51806 3.03662 7.5 3.03662C5.48194 3.03662 2.89867 1.90563 1.0178 0.911501C0.520759 0.648794 0.0401229 1.21969 0.439264 1.61561C2.16956 3.33191 4.83478 5.43661 7.5 5.43661Z"/>
</mask>
<path d="M14.5607 1.61561L16.6734 3.74553V3.74553L14.5607 1.61561ZM0.439264 1.61561L-1.67342 3.74553H-1.67342L0.439264 1.61561ZM1.0178 0.911501L2.41967 -1.74081L2.41967 -1.74081L1.0178 0.911501ZM13.9822 0.911501L12.5803 -1.74081L12.5803 -1.74081L13.9822 0.911501ZM12.448 -0.514311C11.6783 0.249255 10.7652 1.03194 9.82005 1.60778C8.84913 2.19933 8.06719 2.43661 7.5 2.43661V8.43661C9.59803 8.43661 11.4813 7.62155 12.9419 6.73167C14.4282 5.82608 15.7129 4.69826 16.6734 3.74553L12.448 -0.514311ZM7.5 2.43661C6.93281 2.43661 6.15087 2.19933 5.17995 1.60778C4.23482 1.03194 3.32175 0.249254 2.55195 -0.514312L-1.67342 3.74553C-0.712916 4.69826 0.571766 5.82608 2.05813 6.73167C3.5187 7.62155 5.40197 8.43661 7.5 8.43661V2.43661ZM-0.384074 3.56381C0.631401 4.10054 1.8827 4.6995 3.19336 5.17026C4.46695 5.62771 5.99206 6.03662 7.5 6.03662V0.0366151C6.98988 0.0366151 6.21432 -0.119967 5.22155 -0.476546C4.26584 -0.819815 3.28507 -1.28341 2.41967 -1.74081L-0.384074 3.56381ZM7.5 6.03662C9.00794 6.03662 10.533 5.62771 11.8066 5.17026C13.1173 4.6995 14.3686 4.10054 15.3841 3.56381L12.5803 -1.74081C11.7149 -1.28341 10.7342 -0.819815 9.77845 -0.476546C8.78568 -0.119967 8.01013 0.0366151 7.5 0.0366151V6.03662ZM16.6734 3.74553C17.2674 3.15634 17.6776 2.33612 17.7071 1.39588C17.7356 0.491677 17.405 -0.310803 16.9152 -0.900407C15.9114 -2.10873 14.1321 -2.56101 12.5803 -1.74081L15.3841 3.56381C14.3293 4.1213 13.0389 3.82313 12.2999 2.93355C11.9425 2.50332 11.6883 1.90139 11.7101 1.20737C11.7331 0.477315 12.0536 -0.123079 12.448 -0.51431L16.6734 3.74553ZM2.55195 -0.514312C2.94637 -0.123081 3.26695 0.477314 3.2899 1.20737C3.31171 1.90139 3.05749 2.50333 2.7001 2.93356C1.96112 3.82313 0.670682 4.1213 -0.384074 3.56381L2.41967 -1.74081C0.867873 -2.56101 -0.911398 -2.10873 -1.91517 -0.900414C-2.40496 -0.310811 -2.73557 0.49167 -2.70714 1.39588C-2.67759 2.33611 -2.26741 3.15634 -1.67342 3.74553L2.55195 -0.514312Z" fill="white" mask="url(#path-1-inside-1_314_61478)"/>
</svg>
