<svg width="16" height="6" viewBox="0 0 16 6" fill="none" xmlns="http://www.w3.org/2000/svg">
<mask id="path-1-inside-1_316_61569" fill="white">
<path d="M8 5.43661C10.6652 5.43661 13.3304 3.33191 15.0607 1.61561C15.4599 1.2197 14.9792 0.648795 14.4822 0.911501C12.6013 1.90563 10.0181 3.03662 8 3.03662C5.98194 3.03662 3.39867 1.90563 1.5178 0.911501C1.02076 0.648794 0.540123 1.21969 0.939264 1.61561C2.66956 3.33191 5.33478 5.43661 8 5.43661Z"/>
</mask>
<path d="M15.0607 1.61561L17.1734 3.74553V3.74553L15.0607 1.61561ZM0.939264 1.61561L-1.17342 3.74553H-1.17342L0.939264 1.61561ZM1.5178 0.911501L2.91967 -1.74081L2.91967 -1.74081L1.5178 0.911501ZM14.4822 0.911501L13.0803 -1.74081L13.0803 -1.74081L14.4822 0.911501ZM12.948 -0.514311C12.1783 0.249255 11.2652 1.03194 10.3201 1.60778C9.34913 2.19933 8.56719 2.43661 8 2.43661V8.43661C10.098 8.43661 11.9813 7.62155 13.4419 6.73167C14.9282 5.82608 16.2129 4.69826 17.1734 3.74553L12.948 -0.514311ZM8 2.43661C7.43281 2.43661 6.65087 2.19933 5.67995 1.60778C4.73482 1.03194 3.82175 0.249254 3.05195 -0.514312L-1.17342 3.74553C-0.212916 4.69826 1.07177 5.82608 2.55813 6.73167C4.0187 7.62155 5.90197 8.43661 8 8.43661V2.43661ZM0.115926 3.56381C1.1314 4.10054 2.3827 4.6995 3.69336 5.17026C4.96695 5.62771 6.49206 6.03662 8 6.03662V0.0366151C7.48988 0.0366151 6.71432 -0.119967 5.72155 -0.476546C4.76584 -0.819815 3.78507 -1.28341 2.91967 -1.74081L0.115926 3.56381ZM8 6.03662C9.50794 6.03662 11.033 5.62771 12.3066 5.17026C13.6173 4.6995 14.8686 4.10054 15.8841 3.56381L13.0803 -1.74081C12.2149 -1.28341 11.2342 -0.819815 10.2785 -0.476546C9.28568 -0.119967 8.51013 0.0366151 8 0.0366151V6.03662ZM17.1734 3.74553C17.7674 3.15634 18.1776 2.33612 18.2071 1.39588C18.2356 0.491677 17.905 -0.310803 17.4152 -0.900407C16.4114 -2.10873 14.6321 -2.56101 13.0803 -1.74081L15.8841 3.56381C14.8293 4.1213 13.5389 3.82313 12.7999 2.93355C12.4425 2.50332 12.1883 1.90139 12.2101 1.20737C12.2331 0.477315 12.5536 -0.123079 12.948 -0.51431L17.1734 3.74553ZM3.05195 -0.514312C3.44637 -0.123081 3.76695 0.477314 3.7899 1.20737C3.81171 1.90139 3.55749 2.50333 3.2001 2.93356C2.46112 3.82313 1.17068 4.1213 0.115926 3.56381L2.91967 -1.74081C1.36787 -2.56101 -0.411398 -2.10873 -1.41517 -0.900414C-1.90496 -0.310811 -2.23557 0.49167 -2.20714 1.39588C-2.17759 2.33611 -1.76741 3.15634 -1.17342 3.74553L3.05195 -0.514312Z" fill="white" mask="url(#path-1-inside-1_316_61569)"/>
</svg>
