<svg width="37" height="44" viewBox="0 0 37 44" fill="none" xmlns="http://www.w3.org/2000/svg">
<path d="M18.6364 29.4545V14.9091H19.5682V29.4545H18.6364ZM21.7727 19.2727C21.7045 18.697 21.428 18.25 20.9432 17.9318C20.4583 17.6136 19.8636 17.4545 19.1591 17.4545C18.6439 17.4545 18.1932 17.5379 17.8068 17.7045C17.4242 17.8712 17.125 18.1004 16.9091 18.392C16.697 18.6837 16.5909 19.0152 16.5909 19.3864C16.5909 19.697 16.6648 19.964 16.8125 20.1875C16.964 20.4072 17.1572 20.5909 17.392 20.7386C17.6269 20.8826 17.8731 21.0019 18.1307 21.0966C18.3883 21.1875 18.625 21.2614 18.8409 21.3182L20.0227 21.6364C20.3258 21.7159 20.6629 21.8258 21.0341 21.9659C21.4091 22.1061 21.767 22.2973 22.108 22.5398C22.4527 22.7784 22.7367 23.0852 22.9602 23.4602C23.1837 23.8352 23.2955 24.2955 23.2955 24.8409C23.2955 25.4697 23.1307 26.0379 22.8011 26.5455C22.4754 27.053 21.9981 27.4564 21.3693 27.7557C20.7443 28.0549 19.9848 28.2045 19.0909 28.2045C18.2576 28.2045 17.536 28.0701 16.9261 27.8011C16.3201 27.5322 15.8428 27.1572 15.4943 26.6761C15.1496 26.1951 14.9545 25.6364 14.9091 25H16.3636C16.4015 25.4394 16.5492 25.803 16.8068 26.0909C17.0682 26.375 17.3977 26.5871 17.7955 26.7273C18.197 26.8636 18.6288 26.9318 19.0909 26.9318C19.6288 26.9318 20.1117 26.8447 20.5398 26.6705C20.9678 26.4924 21.3068 26.2462 21.5568 25.9318C21.8068 25.6136 21.9318 25.2424 21.9318 24.8182C21.9318 24.4318 21.8239 24.1174 21.608 23.875C21.392 23.6326 21.108 23.4356 20.7557 23.2841C20.4034 23.1326 20.0227 23 19.6136 22.8864L18.1818 22.4773C17.2727 22.2159 16.553 21.8428 16.0227 21.358C15.4924 20.8731 15.2273 20.2386 15.2273 19.4545C15.2273 18.803 15.4034 18.2348 15.7557 17.75C16.1117 17.2614 16.589 16.8826 17.1875 16.6136C17.7898 16.3409 18.4621 16.2045 19.2045 16.2045C19.9545 16.2045 20.6212 16.339 21.2045 16.608C21.7879 16.8731 22.25 17.2367 22.5909 17.6989C22.9356 18.161 23.1174 18.6856 23.1364 19.2727H21.7727Z" fill="#667085"/>
</svg>
