<svg width="21" height="20" viewBox="0 0 21 20" fill="none" xmlns="http://www.w3.org/2000/svg">
<path d="M10.7536 2C6.33245 2 2.75 3.27921 2.75 4.85722C2.75 5.15994 2.88318 5.45159 3.12762 5.72542L3.12544 5.72571C4.265 7.11489 8.46483 12.036 8.46483 13.4289V16.5361C8.46483 17.3464 9.49668 18.0004 10.7506 18.0004C12.0045 18.0004 13.0364 17.3464 13.0364 16.5361V13.5686C13.0364 13.5243 13.0367 13.4779 13.0367 13.4289C13.0367 12.036 17.1794 7.19414 18.4294 5.64517V5.6451C18.6437 5.39484 18.75 5.13051 18.75 4.85722C18.75 3.27921 15.1748 2 10.7536 2ZM10.757 6.57155C7.46909 6.57155 4.46708 5.78582 4.46708 4.85722C4.46708 3.92862 7.43334 3.14289 10.757 3.14289C14.0806 3.14289 17.0468 3.94337 17.0468 4.85722C17.0468 5.77107 14.0448 6.57155 10.757 6.57155Z" fill="white"/>
</svg>
