<svg width="20" height="21" viewBox="0 0 20 21" fill="none" xmlns="http://www.w3.org/2000/svg">
<path d="M10.2536 2.5C5.83245 2.5 2.25 3.77921 2.25 5.35722C2.25 5.65994 2.38318 5.95159 2.62762 6.22542L2.62544 6.22571C3.765 7.61489 7.96483 12.536 7.96483 13.9289V17.0361C7.96483 17.8464 8.99668 18.5004 10.2506 18.5004C11.5045 18.5004 12.5364 17.8464 12.5364 17.0361V14.0686C12.5364 14.0243 12.5367 13.9779 12.5367 13.9289C12.5367 12.536 16.6794 7.69414 17.9294 6.14517V6.1451C18.1437 5.89484 18.25 5.63051 18.25 5.35722C18.25 3.77921 14.6748 2.5 10.2536 2.5ZM10.257 7.07155C6.96909 7.07155 3.96708 6.28582 3.96708 5.35722C3.96708 4.42862 6.93334 3.64289 10.257 3.64289C13.5806 3.64289 16.5468 4.44337 16.5468 5.35722C16.5468 6.27107 13.5448 7.07155 10.257 7.07155Z" fill="white"/>
</svg>
