<svg width="16" height="5" viewBox="0 0 16 5" fill="none" xmlns="http://www.w3.org/2000/svg">
<mask id="path-1-inside-1_316_61276" fill="white">
<path d="M8 4.93661C10.6652 4.93661 13.3304 2.83191 15.0607 1.11561C15.4599 0.719697 14.9792 0.148795 14.4822 0.411501C12.6013 1.40563 10.0181 2.53662 8 2.53662C5.98194 2.53662 3.39867 1.40563 1.5178 0.411501C1.02076 0.148794 0.540123 0.719695 0.939264 1.11561C2.66956 2.83191 5.33478 4.93661 8 4.93661Z"/>
</mask>
<path d="M15.0607 1.11561L17.1734 3.24553V3.24553L15.0607 1.11561ZM0.939264 1.11561L-1.17342 3.24553H-1.17342L0.939264 1.11561ZM1.5178 0.411501L2.91967 -2.24081L2.91967 -2.24081L1.5178 0.411501ZM14.4822 0.411501L13.0803 -2.24081L13.0803 -2.24081L14.4822 0.411501ZM12.948 -1.01431C12.1783 -0.250745 11.2652 0.531945 10.3201 1.10778C9.34913 1.69933 8.56719 1.93661 8 1.93661V7.93661C10.098 7.93661 11.9813 7.12155 13.4419 6.23167C14.9282 5.32608 16.2129 4.19826 17.1734 3.24553L12.948 -1.01431ZM8 1.93661C7.43281 1.93661 6.65087 1.69933 5.67995 1.10778C4.73482 0.531944 3.82175 -0.250746 3.05195 -1.01431L-1.17342 3.24553C-0.212916 4.19826 1.07177 5.32608 2.55813 6.23167C4.0187 7.12155 5.90197 7.93661 8 7.93661V1.93661ZM0.115926 3.06381C1.1314 3.60054 2.3827 4.1995 3.69336 4.67026C4.96695 5.12771 6.49206 5.53662 8 5.53662V-0.463385C7.48988 -0.463385 6.71432 -0.619967 5.72155 -0.976546C4.76584 -1.31981 3.78507 -1.78341 2.91967 -2.24081L0.115926 3.06381ZM8 5.53662C9.50794 5.53662 11.033 5.12771 12.3066 4.67026C13.6173 4.1995 14.8686 3.60054 15.8841 3.06381L13.0803 -2.24081C12.2149 -1.78341 11.2342 -1.31981 10.2785 -0.976546C9.28568 -0.619967 8.51013 -0.463385 8 -0.463385V5.53662ZM17.1734 3.24553C17.7674 2.65634 18.1776 1.83612 18.2071 0.895881C18.2356 -0.00832272 17.905 -0.810803 17.4152 -1.40041C16.4114 -2.60873 14.6321 -3.06101 13.0803 -2.24081L15.8841 3.06381C14.8293 3.6213 13.5389 3.32313 12.7999 2.43355C12.4425 2.00332 12.1883 1.40139 12.2101 0.707366C12.2331 -0.0226849 12.5536 -0.623079 12.948 -1.01431L17.1734 3.24553ZM3.05195 -1.01431C3.44637 -0.623081 3.76695 -0.0226859 3.7899 0.707368C3.81171 1.40139 3.55749 2.00333 3.2001 2.43356C2.46112 3.32313 1.17068 3.6213 0.115926 3.06381L2.91967 -2.24081C1.36787 -3.06101 -0.411398 -2.60873 -1.41517 -1.40041C-1.90496 -0.810811 -2.23557 -0.00833023 -2.20714 0.895876C-2.17759 1.83611 -1.76741 2.65634 -1.17342 3.24553L3.05195 -1.01431Z" fill="white" mask="url(#path-1-inside-1_316_61276)"/>
</svg>
