<svg width="300" height="200" viewBox="0 0 300 200" fill="none" xmlns="http://www.w3.org/2000/svg">
<path d="M261.092 160.886C260.738 160.364 260.279 159.921 259.744 159.585C259.483 159.445 259.402 159.238 259.528 159.025C259.717 158.653 259.855 158.256 259.938 157.846C260.099 157.243 260.201 156.626 260.243 156.003C260.269 155.68 259.99 155.481 259.673 155.415C259.483 155.386 259.291 155.366 259.098 155.357C258.527 155.383 257.958 155.446 257.395 155.544C257.044 155.552 256.906 155.478 256.908 155.075C256.912 154.137 257.135 153.218 257.094 152.274C257.079 151.924 256.993 151.808 256.675 151.707C255.74 151.411 254.781 151.813 253.849 151.564C253.675 151.546 253.5 151.548 253.327 151.57C252.601 151.748 251.768 151.65 251.301 152.468C251.12 152.758 251.013 153.088 250.991 153.428C250.97 153.769 251.033 154.11 251.176 154.42C251.316 154.886 251.414 155.363 251.471 155.847C251.486 155.908 251.488 155.972 251.477 156.034C251.466 156.096 251.442 156.156 251.407 156.208C251.371 156.261 251.326 156.305 251.272 156.339C251.219 156.373 251.159 156.395 251.096 156.404C250.611 156.461 250.148 156.635 249.745 156.911C249.082 157.319 248.022 157.183 247.81 158.246C247.806 158.269 247.719 158.291 247.672 158.288C247.37 158.269 247.343 158.5 247.388 158.679C247.574 159.423 247.242 160.134 247.268 160.871C247.282 161.243 247.246 161.773 246.654 161.774C246.051 161.775 245.468 161.9 244.876 161.959C244.497 162.067 244.106 162.128 243.713 162.141C243.005 162.007 242.381 162.272 241.721 162.344C241.438 162.375 241.174 162.479 241.169 162.805C241.162 163.151 241.386 163.316 241.723 163.402C242.72 163.656 243.753 163.655 244.761 163.88C245.955 164.146 247.191 164.219 248.4 164.427C248.692 164.42 248.984 164.449 249.269 164.512C250.346 164.987 251.516 164.952 252.646 165.102C253.77 165.251 254.914 165.245 256.048 165.318C257.416 165.407 258.684 165.177 259.667 164.129C260.13 163.636 260.552 163.101 260.967 162.566C261.372 162.044 261.557 161.474 261.092 160.886ZM252.593 152.789C253.533 152.395 254.481 152.669 255.427 152.666C255.899 152.665 255.903 152.982 255.918 153.304C255.919 153.34 255.909 153.376 255.889 153.407C255.941 154.148 255.619 154.719 255.567 155.341C255.535 155.486 255.533 155.636 255.562 155.781C255.59 155.927 255.648 156.065 255.732 156.187C255.816 156.31 255.924 156.414 256.049 156.493C256.175 156.572 256.315 156.624 256.462 156.647C256.977 156.8 257.523 156.81 258.043 156.675C258.631 156.516 258.95 156.881 258.787 157.491C258.578 158.031 258.445 158.598 258.394 159.174C258.397 159.385 258.257 159.451 258.092 159.471C257.353 159.575 256.599 159.508 255.89 159.273C255.012 158.966 254.201 158.484 253.293 158.249C253.261 158.24 253.235 158.208 253.202 158.197C252.906 158.099 252.429 158.296 252.345 157.877C252.316 157.465 252.405 157.052 252.6 156.688C252.687 156.535 252.71 156.354 252.663 156.184C252.278 155.383 252.475 154.464 252.114 153.653C251.921 153.22 252.155 152.973 252.593 152.789ZM254.066 160.644C253.748 160.973 253.503 161.365 253.348 161.796C253.194 162.226 253.132 162.684 253.168 163.14C253.186 163.514 252.997 163.618 252.634 163.509C252.283 163.401 251.914 163.359 251.548 163.386C251.284 163.421 251.016 163.369 250.784 163.238C250.553 163.108 250.37 162.905 250.265 162.661C249.92 161.718 249.449 161.579 248.45 161.608C248.05 161.619 247.855 161.615 247.987 161.107C248.156 160.465 248.26 159.808 248.298 159.145C248.308 158.944 248.377 158.751 248.498 158.589C248.618 158.428 248.784 158.307 248.974 158.24C249.599 157.936 250.245 157.671 250.893 157.418C251.363 157.235 251.149 157.605 251.168 157.853C251.16 157.988 251.142 158.123 251.114 158.256C250.883 159.123 251.079 159.427 251.992 159.584C252.659 159.694 253.309 159.885 253.929 160.154C254.23 160.286 254.28 160.421 254.066 160.644ZM259.691 162.145C259.342 162.622 258.882 162.993 258.523 163.453C258.047 164.062 257.341 163.949 256.682 164.103C256.036 163.933 255.402 163.72 254.785 163.463C254.462 163.361 254.447 162.621 254.76 162.14C255.111 161.635 255.381 161.078 255.56 160.489C255.6 160.346 255.662 160.332 255.782 160.361C256.667 160.549 257.573 160.623 258.477 160.58C258.864 160.602 259.236 160.737 259.548 160.967C260.14 161.34 260.122 161.553 259.691 162.145Z" fill="#020202"/>
<path d="M255.889 153.407C255.889 153.404 255.889 153.401 255.889 153.397C255.885 153.408 255.886 153.41 255.889 153.407Z" fill="#020202"/>
<path d="M229.856 161.462C229.743 161.4 229.644 161.315 229.565 161.213C229.486 161.111 229.428 160.994 229.395 160.87C229.258 160.413 228.985 160.009 228.613 159.711C228.117 159.371 228.155 159.068 228.439 158.613C228.981 157.744 228.833 157.402 227.932 156.913C227.522 156.762 227.132 156.563 226.77 156.319C225.979 155.621 225.142 154.976 224.292 154.347C223.69 153.96 223.115 153.532 222.571 153.066C222.391 152.889 222.159 152.775 221.91 152.741C221.66 152.706 221.406 152.754 221.185 152.876C220.453 153.31 219.451 153.29 218.977 154.164C218.96 154.197 218.885 154.201 218.835 154.212C218.485 154.3 218.157 154.459 217.872 154.679C217.587 154.9 217.351 155.177 217.178 155.494C216.971 155.858 216.847 156.264 216.817 156.682C216.787 157.1 216.851 157.52 217.005 157.91C217.334 158.773 217.722 159.613 218.166 160.423C218.241 160.582 218.33 160.741 218.185 160.914C217.747 161.433 217.333 161.993 216.51 161.697C216.437 161.671 216.34 161.72 216.255 161.716C215.549 161.688 214.844 161.767 214.161 161.95C213.404 161.728 212.733 162.138 212.017 162.22C211.658 162.309 211.33 162.49 211.062 162.744C210.976 162.808 210.912 162.897 210.88 163C210.848 163.102 210.849 163.212 210.883 163.314C210.939 163.434 211.024 163.538 211.13 163.618C211.236 163.697 211.359 163.75 211.49 163.771C211.912 163.879 212.416 163.645 212.756 163.935C213.33 164.425 214.086 164.422 214.704 164.784C215.444 165.217 216.334 165.106 217.147 165.338C217.997 165.536 218.862 165.66 219.733 165.709C221.392 165.877 223.043 166.082 224.688 166.348C224.92 166.421 225.165 166.438 225.404 166.398C225.644 166.359 225.871 166.264 226.067 166.121C226.418 165.82 226.776 165.524 227.151 165.254C228.105 164.554 229.115 163.935 230.172 163.402C230.297 163.362 230.406 163.281 230.479 163.171C230.552 163.061 230.585 162.929 230.574 162.797C230.571 162.533 230.504 162.274 230.379 162.041C230.254 161.809 230.074 161.61 229.856 161.462ZM221.929 164.447C222.336 164.304 222.336 164.304 222.475 164.672C222.28 164.592 222.114 164.523 221.929 164.447ZM228.405 162.891C228.092 163.083 227.762 163.246 227.42 163.378C227.324 163.397 227.191 163.443 227.155 163.516C226.842 164.148 226.159 164.27 225.641 164.61C225.273 164.852 224.851 164.605 224.541 164.426C224.348 164.298 224.141 164.192 223.924 164.112C223.496 163.966 223.124 163.691 222.858 163.325C222.639 163.041 222.424 162.898 222.137 163.167C221.667 163.505 221.156 163.781 220.615 163.988C219.959 164.347 219.298 163.958 218.641 163.864C218.573 163.846 218.509 163.817 218.451 163.778C218.246 163.666 217.846 163.837 217.832 163.657C217.842 163.349 217.948 163.052 218.136 162.807C218.389 162.305 218.712 161.841 219.094 161.428C219.743 160.883 219.388 160.299 219.051 159.806C218.625 159.182 218.437 158.454 218.055 157.816C217.674 157.179 217.899 156.474 217.872 155.8C217.868 155.706 218.172 155.652 218.32 155.58C218.784 155.281 219.223 154.945 219.633 154.575C220.134 154.225 220.705 154.07 221.217 153.776C221.358 153.687 221.527 153.655 221.691 153.688C221.854 153.721 221.998 153.816 222.093 153.952C222.698 154.616 223.534 154.956 224.223 155.498C224.795 155.949 225.333 156.446 225.887 156.92C226.233 157.244 226.626 157.514 227.053 157.718C227.374 157.853 227.429 157.944 227.351 158.351C227.113 159.394 226.79 160.416 226.385 161.407C226.244 161.795 226.119 162.193 225.595 161.787C225.531 161.756 225.46 161.744 225.39 161.752C224.527 161.727 223.706 161.381 222.837 161.412C222.582 161.422 222.666 161.257 222.654 161.133C222.601 160.618 222.887 160.17 222.949 159.668C223.013 159.154 223.049 158.632 223.127 158.117C223.231 157.423 222.33 156.579 221.647 156.668C221.553 156.7 221.468 156.751 221.397 156.819C221.325 156.887 221.269 156.97 221.233 157.062C221.197 157.153 221.181 157.252 221.186 157.35C221.192 157.448 221.219 157.544 221.265 157.631C221.357 157.76 221.47 157.873 221.599 157.966C221.73 158.036 221.829 158.155 221.874 158.297C221.918 158.439 221.905 158.594 221.837 158.726C221.603 159.444 221.642 160.219 221.42 160.946C221.369 161.13 221.259 161.293 221.108 161.409C221.029 161.468 220.963 161.541 220.913 161.626C220.864 161.711 220.832 161.805 220.82 161.902C220.808 162 220.816 162.098 220.843 162.193C220.87 162.287 220.917 162.375 220.979 162.45C221.138 162.739 221.514 162.501 221.769 162.622C222.838 162.656 223.904 162.757 224.96 162.925C225.331 163.004 225.691 163.123 226.036 163.281C226.1 163.318 226.173 163.34 226.247 163.346C226.322 163.352 226.396 163.34 226.466 163.313C226.535 163.286 226.598 163.244 226.649 163.189C226.7 163.135 226.738 163.069 226.76 162.998C227.007 162.488 227.043 161.893 227.457 161.447C227.739 161.142 228.006 161.109 228.182 161.497C228.282 161.74 228.42 161.967 228.592 162.166C228.922 162.523 228.685 162.782 228.405 162.891Z" fill="#020202"/>
<path d="M237.864 145.272C237.698 145.219 237.385 145.19 237.583 144.881C237.617 144.367 237.411 144.067 236.929 144.003C236.742 143.965 236.559 143.906 236.385 143.826C235.018 143.329 233.921 143.929 233.621 145.35C233.611 145.507 233.54 145.653 233.424 145.757C233.307 145.862 233.155 145.917 232.998 145.911C231.895 146.002 231.431 146.637 231.553 147.776C231.563 147.875 231.601 148.04 231.458 148.011C230.973 147.991 230.487 148.031 230.012 148.129C229.492 148.125 228.974 148.194 228.473 148.333C228.151 148.435 227.85 148.569 227.883 148.956C227.898 149.125 227.972 149.284 228.093 149.403C228.213 149.523 228.372 149.596 228.541 149.609C229.716 149.806 230.889 150.002 232.06 150.22C233.024 150.362 233.997 150.424 234.97 150.405C235.238 150.41 235.421 150.7 235.714 150.541C236.29 150.228 236.969 150.229 237.56 149.958C238.232 149.651 238.806 149.3 238.866 148.421C238.911 147.757 238.746 147.121 238.758 146.472C238.783 146.197 238.706 145.922 238.541 145.701C238.376 145.479 238.135 145.327 237.864 145.272ZM233.592 147.137C233.485 147.095 233.366 147.095 233.258 147.137C233.15 147.178 233.062 147.258 233.011 147.362C232.903 147.565 232.739 147.797 232.984 148.028C233.188 148.221 233.203 148.591 233.564 148.64C233.582 148.64 233.599 148.646 233.614 148.655C233.629 148.665 233.642 148.678 233.65 148.694C233.658 148.71 233.661 148.728 233.66 148.746C233.659 148.763 233.653 148.78 233.643 148.795C233.603 148.848 233.545 148.885 233.48 148.898C233.324 148.918 233.164 148.905 233.014 148.857C232.863 148.81 232.725 148.73 232.608 148.624C232.492 148.517 232.4 148.386 232.34 148.241C232.279 148.095 232.251 147.938 232.257 147.78C232.369 146.899 232.489 146.789 233.817 146.551C233.994 146.536 234.159 146.454 234.28 146.322C234.4 146.191 234.466 146.019 234.466 145.841C234.546 144.773 234.783 144.582 235.812 144.825C235.981 144.865 236.144 144.928 236.337 144.989C236.134 145.356 236.029 145.706 236.382 146.041C236.406 146.063 236.423 146.091 236.431 146.122C236.439 146.153 236.438 146.186 236.427 146.216C236.416 146.246 236.397 146.272 236.371 146.291C236.345 146.31 236.314 146.321 236.282 146.322C235.48 146.327 234.977 147.051 234.215 147.157C234.008 147.191 233.797 147.184 233.592 147.137ZM236.974 149.164C236.668 149.283 236.341 149.34 236.012 149.332C235.693 149.241 235.399 149.075 235.158 148.847C234.973 148.708 234.617 148.678 234.633 148.387C234.653 148.034 235.055 148.298 235.223 148.106C235.73 147.527 236.46 147.467 237.149 147.335C237.34 147.298 237.433 147.145 237.658 147.056C237.699 147.432 237.761 147.758 237.766 148.085C237.776 148.824 237.682 148.896 236.974 149.164Z" fill="#020202"/>
<path d="M136.191 88.9191C136.158 88.9175 136.124 88.9137 136.092 88.9078C136.079 88.9041 136.065 88.9045 136.053 88.9088C136.04 88.9132 136.03 88.9213 136.022 88.9321C136.031 88.9389 136.039 88.951 136.048 88.9547C136.072 88.9666 136.1 88.9696 136.126 88.9631C136.152 88.9565 136.175 88.941 136.191 88.9191Z" fill="#020202"/>
<path d="M204.256 80.3115C205.437 79.6639 206.544 78.8958 207.724 78.2435C209.277 77.3858 210.754 76.3916 212.287 75.4977C212.753 75.1355 213.248 74.8109 213.765 74.5269C214.029 74.4257 214.003 74.3634 213.932 74.1784C213.771 73.7567 213.438 73.3933 213.319 72.9936C213.077 72.2489 212.797 71.5171 212.481 70.801C212.103 70.0473 211.779 69.2678 211.51 68.4683C211.418 68.1653 211.28 67.878 211.102 67.6166C210.581 66.8393 210.164 65.9967 209.863 65.1107C209.55 64.0817 209.057 63.1434 208.671 62.156C208.168 60.8689 207.555 59.6221 206.942 58.3812C206.652 57.7937 206.606 57.1006 206.214 56.5837C205.956 56.192 205.74 55.774 205.569 55.3368C204.885 53.897 204.328 52.4 203.605 50.9754C203.36 50.5899 203.168 50.1734 203.034 49.7369C202.885 49.0285 202.724 48.9188 201.985 48.9498C201.863 48.9646 201.74 48.971 201.616 48.9689C199.504 48.7619 197.393 48.5454 195.28 48.3422C194.232 48.2414 193.17 48.2341 192.137 48.0568C190.819 47.8307 189.485 47.8262 188.165 47.6552C187.087 47.5155 186.005 47.4074 184.92 47.3176C183.403 47.1921 181.895 46.9428 180.376 46.8489C179.535 46.7968 178.716 46.6152 177.878 46.5683C176.773 46.5067 175.677 46.3441 174.573 46.2664C173.336 46.1795 172.109 45.9487 170.872 45.8572C169.836 45.7805 168.8 45.6551 167.776 45.5217C166.752 45.3883 165.72 45.3442 164.698 45.2466C163.653 45.1467 162.595 45.0503 161.548 44.9594C159.877 44.8143 158.201 44.6624 156.533 44.4426C154.351 44.155 152.149 44.0173 149.957 43.7933C148.2 43.6136 146.446 43.3965 144.689 43.2047C142.488 42.9643 140.276 42.8535 138.081 42.5332C136.799 42.3461 135.498 42.3244 134.21 42.1304C133.032 41.9532 131.827 41.9748 130.64 41.7991C129.754 41.6682 128.84 41.7275 127.957 41.5842C126.008 41.2679 124.036 41.1894 122.083 40.925C121.25 40.8122 120.403 40.8024 119.564 40.7291C118.455 40.6323 118.475 40.6259 118.435 41.742C118.372 43.4971 118.61 45.2339 118.716 46.9787C118.726 47.14 118.688 47.3544 119.004 47.2556C120.088 46.9289 121.215 46.7693 122.346 46.7823C123.584 46.7828 124.807 46.4136 126.044 46.6287C126.239 46.6622 126.438 46.6557 126.63 46.6097C126.822 46.5637 127.003 46.4791 127.161 46.3611C127.884 45.8722 128.703 45.5419 129.563 45.3917C130.423 45.2416 131.305 45.2751 132.151 45.49C134.174 45.9848 135.999 46.9522 137.883 47.7624C139.042 48.2195 140.073 48.9488 140.89 49.8885C141.446 50.4995 142.112 51 142.853 51.364C145.013 52.6249 147.131 53.9568 149.183 55.3912C151.16 56.7635 152.944 58.3941 154.488 60.2396C156.334 62.5113 157.824 65.05 158.907 67.769C158.967 67.9151 159.01 68.0571 159.229 68.0513C159.982 68.0792 160.733 68.1499 161.477 68.2631C162.108 68.3183 162.739 68.3768 163.37 68.4307C163.76 68.4641 163.977 68.6182 163.946 69.0642C163.867 70.2147 163.836 71.3687 163.752 72.5189C163.656 73.8517 163.517 75.1816 163.409 76.5136C163.305 77.8026 163.252 79.0968 163.111 80.3816C162.952 81.8256 162.913 83.2779 162.716 84.7211C162.535 86.053 162.588 87.4164 162.418 88.7509C162.176 90.6574 162.022 92.5692 161.937 94.4852C161.873 95.9242 161.764 97.3552 161.598 98.7854C161.486 99.752 161.452 100.728 161.385 101.699C161.34 102.36 161.333 103.025 161.25 103.681C161.098 104.883 161.028 106.094 160.886 107.298C160.765 108.326 160.739 109.383 160.719 110.43C160.704 111.224 160.476 111.357 159.679 111.26C158.959 111.173 158.223 111.204 157.509 111.091C156.933 110.999 156.358 111.075 155.782 110.963C154.754 110.764 153.698 110.738 152.658 110.63C151.532 110.514 150.395 110.412 149.26 110.369C148.157 110.328 147.068 110.163 145.972 110.065C144.849 109.965 143.705 110.082 142.604 109.743C142.502 109.72 142.397 109.718 142.294 109.737C141.406 109.848 140.531 109.632 139.65 109.632C138.958 109.633 138.297 109.446 137.612 109.415C136.25 109.354 134.888 109.272 133.529 109.152C132.754 109.084 132.704 108.958 132.902 108.179C132.91 108.145 132.933 108.115 132.94 108.081C133.22 107.012 133.445 105.931 133.615 104.839C133.784 103.317 134.089 101.82 134.313 100.308C134.443 99.4252 134.691 98.5594 134.816 97.676C135.022 96.2203 135.098 94.7482 135.416 93.3049C135.578 92.5698 135.728 91.8301 135.822 91.0771C135.9 90.456 135.758 89.8238 135.957 89.2164C135.984 89.1337 135.977 88.9903 136.022 88.9319C135.978 88.9006 135.947 88.8534 135.936 88.8001C135.924 88.6431 135.939 88.484 135.94 88.3258C136.036 86.2901 136.311 84.2668 136.761 82.2791C137.036 80.7864 137.201 79.2834 137.389 77.7831C137.589 76.1873 137.703 74.5802 137.836 72.9765C138.006 70.9238 138.071 68.8596 138.779 66.8856C138.848 66.6273 139.008 66.4025 139.229 66.252C139.45 66.1015 139.718 66.0352 139.984 66.0652C140.975 66.0671 141.908 66.4224 142.912 66.3959C143.602 66.3776 144.319 66.558 145.032 66.5986C146.169 66.6636 147.31 66.7739 148.434 66.926C149.993 67.1371 151.567 67.2054 153.116 67.4712C153.582 67.5512 154.036 67.4807 154.493 67.5258C155.673 67.6422 156.841 67.8838 158.033 67.9005C158.004 67.152 157.795 66.4215 157.424 65.7709C156.599 63.8582 155.492 62.0797 154.14 60.4944C152.353 58.4877 150.326 56.7076 148.106 55.194C146.885 54.3436 145.604 53.5995 144.351 52.8064C143.514 52.1897 142.613 51.666 141.663 51.2444C141.285 51.0949 140.946 50.8585 140.676 50.5542C140.194 50.061 139.653 49.6289 139.065 49.2675C136.813 47.8135 134.34 46.7344 131.742 46.0725C130.975 45.8555 130.165 45.8334 129.388 46.0082C128.61 46.1831 127.888 46.5493 127.287 47.0736C126.983 47.3501 126.585 47.5005 126.174 47.4943C125.591 47.4799 125.008 47.4599 124.425 47.4479C122.636 47.4112 120.832 47.4082 119.142 48.0539C117.681 48.6116 116.196 49.1015 114.749 49.6927C111.367 51.0748 108.697 53.3902 106.391 56.1597C105.154 57.7209 104.121 59.4339 103.319 61.2571C103.011 61.8682 102.739 62.4967 102.504 63.1394C102.36 63.5684 102.341 64.0531 102.172 64.417C101.932 64.9268 101.745 65.4604 101.617 66.009C101.34 67.4253 101.229 68.8688 101.284 70.3107C101.337 70.9905 101.274 71.6742 101.099 72.3332C100.954 72.9722 100.989 73.639 101.203 74.2587C101.242 74.4331 101.255 74.6122 101.242 74.7904L101.249 74.7887C101.445 74.7877 101.418 74.9741 101.415 75.1037C101.411 75.279 101.356 75.4557 101.369 75.6282C101.439 76.4484 101.402 77.2741 101.26 78.0849C101.119 78.8612 101.375 79.6574 101.1 80.4237C100.97 80.7857 101.243 81.1898 101.107 81.5172C100.754 82.3685 100.945 83.2708 100.785 84.1438C100.664 85.136 100.636 86.1374 100.701 87.1349C100.708 88.0999 100.677 89.0624 100.65 90.0264C100.625 90.9004 100.366 91.7499 100.424 92.6224C100.472 93.3385 100.213 93.6363 99.5148 93.5261C99.0669 93.4557 98.6131 93.4296 98.16 93.4481C97.4561 93.476 97.1961 93.8586 97.3907 94.5156C97.4606 94.7342 97.4951 94.9626 97.4931 95.192C97.5111 95.3612 97.4651 95.531 97.3641 95.6679C97.2632 95.8049 97.1146 95.899 96.9476 95.9318C96.4551 96.0209 95.9601 96.1151 95.4679 96.1841C94.0273 96.386 92.629 96.7845 91.2049 97.0597C89.8451 97.3224 88.4835 97.6113 87.1316 97.9315C85.9601 98.209 84.7563 98.3402 83.592 98.6619C83.0157 98.8211 82.3585 98.7171 81.8804 99.1927C81.3828 98.8126 80.9334 99.2785 80.5076 99.3615C79.4162 99.5276 78.334 99.7492 77.2651 100.025C76.4437 100.274 76.3895 100.244 76.4166 99.4123C76.453 98.2936 76.5728 97.1779 76.6483 96.0603C76.7396 95.2233 76.7823 94.3817 76.7762 93.5397C76.7446 92.8882 76.777 92.2352 76.8729 91.59C76.935 91.2435 76.9783 90.8938 77.0027 90.5426C77.0477 89.295 76.9904 88.038 77.1227 86.8006C77.3783 84.4109 77.4571 82.0102 77.6432 79.6169C77.8404 77.0808 78.0479 74.5449 78.2389 72.008C78.3409 70.6532 78.4836 69.2943 78.4666 67.9391C78.4387 65.7133 78.5861 63.4962 78.6565 61.2754C78.6675 60.9268 78.4791 60.5934 78.6248 60.2336C78.6833 60.0893 78.6864 59.9902 78.8883 60.0043C79.725 60.0628 80.5697 60.1336 81.39 60.2515C82.5496 60.4182 83.7124 60.5593 84.8752 60.6931C85.5662 60.7726 86.2791 60.6969 86.9608 60.8146C88.4944 61.0796 90.0474 61.1341 91.5874 61.3219C92.6516 61.4517 93.7299 61.4779 94.7888 61.6377C96.3354 61.8712 97.8974 61.9172 99.4481 62.0943C100.133 62.1725 100.791 62.394 101.488 62.4075C101.63 62.4355 101.778 62.408 101.901 62.3305C102.024 62.2531 102.113 62.1316 102.15 61.9908C102.304 61.5659 102.53 61.1678 102.719 60.7554C103.603 58.8062 104.754 56.99 106.14 55.3593C107.73 53.4569 109.599 51.8072 111.684 50.4667C113.212 49.587 114.8 48.8151 116.436 48.1565C116.86 47.9663 117.364 47.9686 117.801 47.7601C117.98 47.6749 118.103 47.5945 118.092 47.379C118.048 46.5525 118.135 45.7234 118.032 44.8971C117.917 44.1288 117.851 43.3539 117.834 42.5772C117.835 41.9774 117.768 41.3777 117.745 40.7775C117.736 40.5376 117.611 40.4455 117.409 40.511C116.827 40.6998 116.256 40.9235 115.674 41.1122C114.962 41.3427 114.402 41.8466 113.665 42.0792C112.398 42.51 111.165 43.0353 109.977 43.6507C108.563 44.3449 107.125 44.9865 105.698 45.6515C104.488 46.2157 103.282 46.7907 102.06 47.3309C101.783 47.4535 101.682 47.8323 101.452 47.8422C101.008 47.8821 100.579 48.021 100.196 48.2488C99.8766 48.4499 99.5313 48.6066 99.1696 48.7147C98.4244 48.8379 97.8541 49.298 97.191 49.5613C95.8793 50.0822 94.6572 50.8245 93.3594 51.3856C92.0579 51.9482 90.7542 52.5057 89.4657 53.0973C88.5597 53.5133 87.6902 53.9951 86.7573 54.3703C85.8907 54.7187 85.0397 55.1531 84.1993 55.5896C82.6589 56.39 81.0697 57.0975 79.4914 57.8233C78.9823 58.0938 78.4527 58.3237 77.9075 58.511C77.7474 58.5349 77.5978 58.605 77.4769 58.7126C77.356 58.8202 77.2691 58.9607 77.2268 59.1169C76.9354 60.0998 76.8526 61.1266 76.5422 62.1153C76.2389 63.0813 76.1987 64.1267 75.947 65.1127C75.5113 66.819 75.1567 68.5428 74.7903 70.263C74.5233 71.5158 74.269 72.7771 73.9657 74.0167C73.562 75.6663 73.1851 77.325 72.7795 78.9743C72.3331 80.7895 72.0417 82.644 71.5732 84.459C71.3363 85.3766 71.2475 86.3394 70.9426 87.2308C70.6456 88.099 70.9047 89.0929 70.293 89.8749C70.2473 89.9333 70.2773 90.0477 70.2633 90.1347C70.1659 90.7418 70.114 91.3612 69.9577 91.9528C69.5113 93.4332 69.1471 94.9372 68.8668 96.4578C68.8239 96.7457 68.8425 97.014 69.103 97.1461C69.2348 97.2059 69.3849 97.2114 69.5207 97.1614C69.6565 97.1114 69.7672 97.0099 69.8288 96.8789C69.9344 96.7089 70.0534 96.5658 70.2227 96.5977C70.5625 96.6615 70.7725 96.4526 71.0088 96.2999C72.2497 95.4979 73.7056 95.1265 74.9488 94.3283C75.1207 94.2179 75.3871 94.0231 75.5194 94.1815C75.5949 94.2871 75.6438 94.4092 75.6622 94.5376C75.6806 94.666 75.6679 94.797 75.6251 94.9195C75.4958 95.3008 75.4294 95.7006 75.4283 96.1032C75.4832 97.4779 75.2666 98.8376 75.2468 100.207C75.2435 100.436 75.124 100.567 74.8698 100.639C74.1833 100.782 73.4871 100.873 72.7871 100.911C72.5777 100.96 72.3601 100.961 72.1504 100.914C71.9408 100.867 71.7444 100.773 71.5758 100.64C71.4828 100.567 71.3743 100.517 71.2587 100.492C71.1431 100.468 71.0236 100.471 70.9092 100.5C70.7948 100.529 70.6886 100.584 70.5988 100.661C70.509 100.738 70.438 100.834 70.3911 100.942C70.0687 101.528 69.9426 101.565 69.3004 101.269C68.605 100.948 68.3137 101.121 68.3087 101.879C68.307 102.125 68.3034 102.263 67.9944 102.361C67.4647 102.461 66.9213 102.467 66.3898 102.376C65.0687 102.326 63.7512 102.167 62.4342 102.032C61.8339 101.971 61.2342 101.886 60.6414 101.774C59.6419 101.587 58.6628 101.305 57.7176 100.93C56.5264 100.456 55.2594 100.176 54.0355 99.7803C53.3417 99.5495 52.6237 99.3988 51.8957 99.331C51.7842 99.3204 51.6721 99.3421 51.5726 99.3934C51.4731 99.4448 51.3905 99.5236 51.3346 99.6206C51.0772 99.9489 51.1216 100.359 50.9614 100.708C50.4937 101.728 50.155 102.799 49.649 103.805C49.1482 104.801 48.7965 105.866 48.3081 106.873C47.6814 108.164 46.9909 109.42 46.3004 110.676C45.7282 111.717 45.094 112.726 44.5622 113.786C43.9643 114.979 43.1845 116.061 42.545 117.229C42.4198 117.457 42.507 117.768 42.2267 117.934C41.633 118.285 41.6008 118.971 41.3497 119.522C41.2447 119.753 41.4831 119.918 41.6213 120.054C41.7805 120.21 41.9013 119.996 42.0194 119.912C42.9887 119.229 43.8523 118.408 44.5821 117.473C45.0387 116.886 45.9244 116.751 46.1276 115.928C46.1336 115.904 46.2214 115.891 46.2718 115.889C46.597 115.823 46.8953 115.662 47.1286 115.427C48.3549 114.575 49.6431 113.816 50.9823 113.156C51.3005 112.997 51.3974 112.808 51.2938 112.497C51.1162 111.962 50.9226 111.434 50.7475 110.899C50.6938 110.734 50.4673 110.529 50.7127 110.393C50.9692 110.252 51.0745 110.526 51.1776 110.695C51.4486 111.227 51.652 111.791 51.7833 112.374C51.8228 112.501 51.7916 112.669 52.0123 112.656C52.1324 112.652 52.2499 112.62 52.356 112.564C52.4621 112.508 52.554 112.428 52.6246 112.33C52.6952 112.233 52.7428 112.121 52.7636 112.003C52.7845 111.885 52.7781 111.763 52.7449 111.647C52.5849 111.074 52.4002 110.507 52.2164 109.94C52.1703 109.798 52.1134 109.622 52.2486 109.558C52.4187 109.478 52.501 109.651 52.5783 109.793C52.8393 110.309 53.0407 110.852 53.1786 111.414C53.2261 111.583 53.0641 112.079 53.6056 111.911C54.3001 111.696 54.4258 111.555 54.2951 111.072C54.1146 110.502 53.8996 109.944 53.6513 109.401C53.5851 109.238 53.3878 109.02 53.6744 108.913C53.9205 108.821 53.987 109.079 54.0548 109.251C54.2974 109.776 54.4953 110.321 54.6465 110.879C54.7323 111.284 54.9045 111.407 55.3302 111.248C56.2239 110.909 57.143 110.642 58.0789 110.448C58.3395 110.395 58.5334 110.167 58.817 110.186C60.5742 110.303 62.336 110.319 64.093 110.466C64.7541 110.573 65.4249 110.607 66.0934 110.568C66.4962 110.518 66.9051 110.57 67.283 110.718C67.6097 110.851 67.2353 111.236 67.3714 111.49C67.3922 111.519 67.4079 111.551 67.4177 111.585C67.5468 112.705 68.2223 113.575 68.7682 114.499C69.0373 114.954 69.388 114.945 69.7851 114.605C70.0046 114.377 70.2061 114.133 70.3879 113.874C70.8219 113.372 70.9697 113.347 71.5108 113.679C71.6755 113.779 71.8392 113.882 72.0068 113.978C72.5332 114.279 72.8355 114.261 73.1569 113.746C73.3008 113.468 73.524 113.239 73.7982 113.089C74.0724 112.938 74.3853 112.872 74.697 112.899C75.454 112.936 76.204 112.736 76.9655 112.787C77.1718 112.801 77.3361 112.808 77.3381 113.097C77.3471 114.413 77.435 115.731 77.3797 117.044C77.3249 118.344 77.539 119.631 77.451 120.933C77.378 122.013 77.5095 123.112 77.4657 124.184C77.4141 125.448 77.4477 126.709 77.4552 127.968C77.4611 128.942 77.4797 129.931 77.4549 130.895C77.4245 132.074 77.399 133.261 77.4251 134.435C77.4555 135.804 77.4881 137.173 77.4817 138.541C77.3949 139.06 77.4272 139.592 77.5763 140.097C77.6183 140.188 77.7128 140.259 77.6484 140.381C77.363 140.924 77.5131 141.529 77.4843 142.09C77.4035 143.667 77.4623 145.251 77.4813 146.832C77.5592 147.212 77.5861 147.601 77.5613 147.989C77.4449 148.626 77.4303 149.277 77.518 149.918C77.5378 150.748 77.2895 150.8 76.6317 150.83C75.241 150.893 73.8496 150.95 72.4653 151.088C71.9841 151.136 71.517 151.015 71.0354 151.103C69.9607 151.28 68.877 151.398 67.7894 151.456C66.4681 151.549 65.1475 151.663 63.8245 151.716C62.9358 151.759 62.0509 151.859 61.1755 152.019C60.3345 152.166 59.4989 152.017 58.6589 152.165C57.6356 152.36 56.5952 152.451 55.5536 152.436C54.3017 152.458 53.0852 152.856 52.0625 153.579C52.158 153.697 52.2934 153.778 52.4436 153.804C53.7506 154.053 55.0731 154.212 56.4017 154.282C56.553 154.293 56.6801 154.161 56.8557 154.27C57.2815 154.481 57.7543 154.579 58.2289 154.555C59.7775 154.621 61.3148 154.788 62.8483 154.977C64.3768 155.166 65.9144 155.247 67.4413 155.466C68.9647 155.684 70.5101 155.746 72.0433 155.901C73.0136 155.999 73.9771 156.222 74.9474 156.248C76.976 156.302 78.996 156.418 81.0101 156.668C82.1245 156.806 83.2577 156.875 84.3553 157.054C85.9772 157.318 87.6167 157.389 89.2364 157.666C90.9136 157.953 92.6196 158.085 94.3176 158.23C94.7975 158.271 95.2419 158.433 95.7119 158.478C96.7695 158.58 97.828 158.674 98.8861 158.771C98.9943 158.781 99.1359 158.803 99.1545 158.899C99.1832 159.047 99.032 159.071 98.9177 159.126C98.4389 159.358 97.8884 159.364 97.417 159.594C96.7728 159.871 96.0934 160.057 95.3982 160.148C94.4177 160.327 93.4693 160.639 92.5173 160.892C91.3474 161.203 90.1796 161.572 89.0146 161.926C87.5166 162.38 85.9847 162.714 84.4965 163.212C83.4029 163.578 82.2765 163.846 81.1679 164.166C80.0399 164.492 78.9026 164.8 77.7694 165.116C76.4039 165.496 75.052 165.93 73.677 166.27C72.2519 166.624 70.8795 167.168 69.43 167.421C69.109 167.477 69.0687 167.71 68.9912 167.938C68.8978 168.212 69.1245 168.349 69.2871 168.43C69.6603 168.616 69.5548 168.777 69.3023 168.938C68.7742 169.305 68.2242 169.639 67.6554 169.939C67.549 169.971 67.4505 170.025 67.3659 170.097C67.2814 170.17 67.2126 170.258 67.1638 170.358C67.115 170.458 67.0874 170.567 67.0825 170.678C67.0776 170.789 67.0957 170.9 67.1355 171.004C67.3543 171.52 67.0941 172.147 67.5558 172.581C67.578 172.602 67.5677 172.682 67.5467 172.721C67.4477 172.963 67.3989 173.224 67.4034 173.486C67.4078 173.748 67.4653 174.007 67.5725 174.246C67.8741 175.108 68.0573 176.006 68.1172 176.917C68.119 177.183 68.1764 177.446 68.2856 177.688C68.3948 177.93 68.5535 178.147 68.7515 178.324C68.9091 178.468 69.1179 178.464 69.1187 178.295C69.1211 177.775 69.5544 177.448 69.6367 176.98C69.8209 175.931 69.8496 174.859 70.2732 173.848C70.596 173.077 70.7114 172.22 71.134 171.488C71.2518 171.214 71.4258 170.967 71.6447 170.764C71.8637 170.561 72.1228 170.407 72.4052 170.31C74.1642 169.847 75.9105 169.334 77.6728 168.885C78.4371 168.69 79.1901 168.436 79.9549 168.277C80.8793 168.086 81.7924 167.841 82.6888 167.579C83.7117 167.28 84.753 167.027 85.7792 166.762C86.5253 166.569 87.2878 166.354 88.0608 166.214C89.1576 166.014 90.2119 165.591 91.3041 165.355C92.376 165.123 93.4282 164.811 94.4773 164.517C96.4437 163.965 98.419 163.446 100.385 162.894C101.363 162.62 102.356 162.398 103.335 162.127C104.177 161.895 105.005 161.616 105.845 161.38C106.862 161.094 107.882 160.828 108.884 160.484C109.3 160.296 109.745 160.18 110.2 160.142C111.43 160.153 112.619 160.61 113.864 160.492C113.916 160.492 113.967 160.503 114.013 160.527C114.06 160.55 114.1 160.584 114.13 160.626C114.192 160.763 114.053 160.84 113.952 160.911C113.463 161.218 112.99 161.552 112.537 161.911C112.219 162.203 111.883 162.475 111.533 162.726C110.936 163.134 110.272 163.405 109.671 163.784C108.859 164.296 107.986 164.688 107.14 165.123C105.996 165.71 104.902 166.383 103.791 167.021C103.25 167.332 102.689 167.613 102.14 167.901C100.897 168.48 99.6997 169.153 98.5593 169.915C97.7353 170.525 97.7698 170.902 98.5937 171.453C99.8289 172.323 100.946 173.35 101.919 174.507C102.647 175.329 103.598 175.905 104.383 176.672C104.735 177.014 105.223 176.708 105.327 176.225C105.487 175.477 105.099 174.85 104.873 174.224C104.487 173.286 104.034 172.377 103.517 171.504C103.38 171.248 103.414 171.184 103.672 171.043C104.016 170.855 104.411 170.82 104.737 170.642C105.771 170.076 106.886 169.695 107.942 169.183C108.917 168.711 109.971 168.432 110.896 167.817C111.564 167.449 112.275 167.164 113.012 166.97C113.642 166.701 114.247 166.376 114.819 166C115.03 165.883 115.259 165.961 115.469 165.833C116.234 165.363 117.11 165.125 117.889 164.657C118.59 164.276 119.331 163.973 120.098 163.753C120.752 163.536 121.296 163.118 121.924 162.85C122.506 162.664 123.058 162.395 123.562 162.051C123.705 161.938 123.869 161.857 124.045 161.811C124.221 161.766 124.404 161.757 124.583 161.786C126.131 161.942 127.671 162.183 129.217 162.366C130.636 162.534 132.059 162.67 133.478 162.86C134.396 162.983 135.327 163.082 136.261 163.124C137.448 163.178 138.611 163.475 139.8 163.57C140.048 163.59 140.174 163.374 140.425 163.457C141.814 163.912 143.275 163.963 144.709 164.132C146.17 164.304 147.63 164.5 149.105 164.586C150.747 164.682 152.38 164.963 154.011 165.2C154.635 165.29 155.272 165.26 155.876 165.357C156.556 165.523 157.249 165.627 157.947 165.669C159.446 165.633 160.882 166.082 162.374 166.125C163.546 166.159 164.716 166.562 165.856 165.969C166.248 165.777 166.639 165.583 167.032 165.392C167.308 165.258 167.578 165.122 167.398 164.553C167.976 165.192 168.318 164.739 168.694 164.579C169.502 164.166 170.33 163.793 171.175 163.464L171.17 163.435L171.2 163.433C172.1 162.876 173.11 162.498 173.979 161.919C174.8 161.372 175.841 161.293 176.553 160.571C176.613 160.52 176.685 160.483 176.763 160.464C176.84 160.444 176.921 160.443 176.999 160.46C177.033 160.417 177.077 160.383 177.127 160.361C177.177 160.339 177.232 160.329 177.287 160.333C177.426 160.208 177.513 160.006 177.746 160.017C177.81 159.926 177.894 159.957 177.977 159.981C178.171 159.537 178.668 159.621 179.006 159.425C179.669 159.041 180.364 158.691 181.061 158.357C181.376 158.206 181.687 157.979 182.031 157.837C182.092 157.812 182.177 157.752 182.183 157.7C182.221 157.358 182.333 157.289 182.581 157.563C182.601 157.585 182.68 157.553 182.732 157.546C183.498 157.142 184.25 156.708 185.033 156.34C186.211 155.788 187.385 155.23 188.512 154.58C189.314 154.118 190.152 153.725 190.955 153.262C191.807 152.772 192.753 152.434 193.64 151.991C194.263 151.633 194.906 151.311 195.566 151.027C196.281 150.74 196.967 150.388 197.617 149.976C198.43 149.503 199.278 149.079 200.105 148.655C201.307 147.948 202.556 147.324 203.843 146.787C203.968 146.746 204.077 146.669 204.157 146.565C204.237 146.462 204.284 146.337 204.293 146.206C204.334 145.726 204.351 145.243 204.343 144.761C204.4 143.735 204.284 142.701 204.309 141.672C204.333 140.677 204.293 139.68 204.259 138.693C204.219 137.522 204.222 136.348 204.175 135.177C204.108 133.512 204.161 131.843 204.159 130.175C204.158 129.072 204.168 127.968 204.143 126.864C204.115 125.597 204.088 124.326 204.096 123.064C204.101 122.316 204.037 121.566 204.053 120.815C204.082 119.437 203.932 118.05 203.952 116.675C203.969 115.507 203.949 114.334 204 113.164C204.058 111.801 203.934 110.432 203.912 109.066C203.892 107.881 203.886 106.694 203.844 105.513C203.823 104.902 203.953 104.31 203.883 103.696C203.728 102.313 203.865 100.918 203.772 99.5262C203.69 98.2911 203.755 97.0465 203.741 95.8066C203.719 93.7603 203.66 91.7151 203.632 89.6691C203.614 88.3927 203.663 87.1155 203.649 85.8391C203.633 84.4052 203.626 82.9684 203.522 81.5395C203.494 81.2829 203.551 81.0243 203.683 80.8027C203.816 80.5811 204.017 80.4087 204.256 80.3115ZM156.127 45.6808C155.814 47.1204 155.952 48.6155 155.583 50.0488C155.497 50.2796 155.367 50.4911 155.199 50.6709C155.031 50.8508 154.829 50.9954 154.604 51.0964C154.57 51.1236 154.529 51.1427 154.486 51.1523C154.443 51.162 154.399 51.1619 154.356 51.1521C154.313 51.1423 154.272 51.123 154.238 51.0957C154.203 51.0684 154.175 51.0337 154.156 50.9942C153.827 50.561 153.455 50.1595 153.13 49.7237C152.891 49.4036 152.694 49.4849 152.502 49.739C152.315 49.9886 152.209 50.1626 151.799 49.9566C151.476 49.7938 151.116 50.1914 150.801 50.3937C150.651 50.4877 150.522 50.6108 150.421 50.7555C150.11 51.2208 149.859 50.9969 149.604 50.7067C149.581 50.6804 149.562 50.6502 149.541 50.622C148.846 49.6902 148.769 49.6652 147.725 50.1519C147.631 50.217 147.521 50.2555 147.407 50.2632C147.293 50.2709 147.179 50.2476 147.077 50.1957C146.879 50.0611 147.017 49.8435 147.044 49.6601C147.249 48.3045 147.148 46.9276 147.328 45.5683C147.37 45.2548 147.541 44.9453 147.389 44.5921C147.313 44.4157 147.528 44.4119 147.677 44.4292C148.756 44.5542 149.842 44.7246 150.915 44.759C152.146 44.7983 153.333 45.1285 154.559 45.1304C154.995 45.1311 155.43 45.2317 155.867 45.2663C156.166 45.29 156.129 45.4836 156.127 45.6808ZM68.0843 103.827C67.9384 105.243 67.7642 106.655 67.6177 108.07C67.5688 108.542 67.6311 109.082 67.2417 109.4C66.7548 109.715 66.1804 109.868 65.6012 109.836C64.7523 109.884 63.9247 109.649 63.0779 109.64C62.377 109.633 61.6758 109.539 60.9764 109.556C60.5457 109.556 60.1187 109.476 59.7167 109.321C59.3618 109.192 59.3425 108.624 59.3379 108.213C59.3188 106.486 60.3648 105.301 61.3846 104.065C61.5507 103.805 61.7837 103.594 62.0591 103.455C62.3345 103.315 62.6423 103.253 62.9503 103.273C64.5583 103.341 65.9567 103.135 67.3629 103.105C67.9153 103.093 68.1416 103.271 68.0843 103.827ZM75.9229 89.1808C75.8184 90.1392 75.7679 91.1027 75.7717 92.0668C75.8048 92.2591 75.7624 92.4567 75.6534 92.6186C75.5445 92.7805 75.3773 92.8941 75.1867 92.9359C74.6942 93.1256 74.224 93.369 73.7848 93.6617C72.8833 94.1569 71.9528 94.603 71.0146 95.0254C70.7111 95.162 70.4371 95.6425 70.1146 95.3915C69.8833 95.2114 70.2184 94.8201 70.2828 94.5197C70.5911 93.0827 70.9136 91.6488 71.2297 90.2135C71.6225 88.4305 72.0247 86.6495 72.4004 84.863C72.5423 84.1883 72.8162 83.5422 72.9153 82.8702C73.0914 81.6754 73.5617 80.5509 73.6435 79.3296C73.7582 78.5854 73.9313 77.8513 74.1611 77.1342C74.4132 76.0427 74.6471 74.947 74.8951 73.8545C75.0037 73.2861 75.1521 72.726 75.3392 72.1784C75.4224 71.9596 75.5619 71.7138 75.225 71.56C75.208 71.5544 75.193 71.544 75.1818 71.5301C75.1705 71.5162 75.1636 71.4993 75.1618 71.4815C75.1599 71.4637 75.1633 71.4458 75.1714 71.4299C75.1795 71.4139 75.1921 71.4007 75.2076 71.3918C75.9048 70.9626 75.7845 70.1821 75.9208 69.5583C76.2659 67.9785 76.6486 66.4077 77.0061 64.831C77.0368 64.6956 77.0674 64.5601 77.098 64.4247C76.9329 65.8487 77.2908 67.2739 77.1888 68.7149C77.096 70.0276 77.092 71.3531 77.0185 72.6705C76.9145 74.5347 76.7144 76.3938 76.6263 78.2585C76.5156 79.4823 76.4667 80.7109 76.4799 81.9396C76.468 82.3795 76.4172 82.8175 76.3282 83.2485C76.2309 83.572 76.2413 83.9184 76.3579 84.2355C76.3869 84.2802 76.3994 84.3337 76.3932 84.3866C75.8879 85.9483 76.0276 87.5835 75.9229 89.1808ZM130.103 46.9107C131.348 46.3972 132.35 47.1167 133.451 47.3886C135.352 47.8582 136.88 49.0283 138.515 50.0262C137.503 49.8796 136.401 49.9091 135.813 48.8234C135.746 48.6891 135.637 48.5801 135.503 48.5132C135.369 48.4462 135.217 48.4248 135.069 48.4522C133.938 48.5729 132.81 48.3749 131.678 48.3938C131.225 48.3614 130.779 48.2581 130.358 48.0878C129.74 47.8764 129.06 48.0363 128.354 47.8014C128.917 47.4671 129.501 47.1696 130.103 46.9107ZM120.108 48.9872C120.917 48.8204 121.736 48.7071 122.56 48.6482C123.515 48.7 124.474 48.6731 125.425 48.568C126.16 48.4717 126.883 48.712 127.623 48.7326C128.457 48.7559 129.295 48.8629 130.133 48.9266C130.825 48.9793 131.457 49.3293 132.171 49.3273C132.995 49.3251 133.818 49.3866 134.641 49.433C134.847 49.4262 135.05 49.4747 135.231 49.5734C135.411 49.6721 135.562 49.8174 135.667 49.9941C135.797 50.2486 135.99 50.466 136.226 50.6265C136.463 50.7869 136.736 50.8851 137.021 50.912C138.196 51.1967 139.342 51.591 140.443 52.0897C142.392 52.8995 144.215 53.9623 146.077 54.9479C147.17 55.5267 148.08 56.3672 149.138 56.9962C149.453 57.1882 149.703 57.4712 149.854 57.8079C150.031 58.2372 150.444 58.4053 150.731 58.5997C151.626 59.132 152.385 59.8649 152.948 60.7407C153.381 61.3774 153.902 61.9519 154.31 62.6139C154.702 63.208 155.059 63.8241 155.38 64.4591C155.647 65.0273 155.866 65.6177 156.117 66.1936C156.264 66.5315 156.148 66.6541 155.805 66.6188C154.407 66.4746 153.011 66.2981 151.61 66.2007C151.072 66.1633 150.552 66.0186 150.014 66.0219C149.68 66.024 149.457 65.9289 149.391 65.5372C149.244 64.9469 148.974 64.3942 148.6 63.9149C148.53 63.81 148.432 63.6002 148.249 63.693C148.086 63.7756 148.114 63.9775 148.15 64.1269C148.219 64.4042 148.334 64.6699 148.403 64.9471C148.591 65.7029 148.438 65.8491 147.686 65.7735C146.552 65.6598 145.41 65.6162 144.278 65.5172C143.529 65.4517 142.762 65.2895 142.011 65.2474C141.73 65.2261 141.456 65.1463 141.208 65.0132C140.96 64.8801 140.742 64.6967 140.568 64.4745C139.938 63.7941 139.16 63.249 138.554 62.5907C137.338 61.2687 135.914 60.1734 134.717 58.8377C133.731 57.738 132.674 56.7024 131.591 55.6905C130.471 54.6428 129.255 53.7113 128.122 52.6794C127.211 51.871 126.151 51.249 125.001 50.8483C124.476 50.5711 123.935 50.3284 123.379 50.1217C122.767 49.9863 122.19 49.6994 121.581 49.5424C121.116 49.4457 120.645 49.3811 120.172 49.349C120.042 49.3342 119.904 49.3272 119.871 49.1877C119.826 49.0025 120.004 49.0065 120.108 48.9872ZM131.151 65.2213C130.247 65.6861 128.59 65.5929 127.786 64.8766C128.899 65.0675 130.023 65.1827 131.151 65.2213ZM123.162 130.437C122.627 131.456 122.269 132.559 121.657 133.539C121.574 133.731 121.43 133.89 121.247 133.991C121.064 134.092 120.853 134.128 120.647 134.095C119.837 134.065 119.049 133.827 118.359 133.404C117.893 133.168 117.378 133.029 116.928 132.744C116.694 132.624 116.514 132.422 116.42 132.177C116.327 131.932 116.327 131.661 116.421 131.416C116.617 130.861 116.831 130.302 117.017 129.753C117.25 129.232 117.444 128.694 117.598 128.145C117.637 127.927 117.702 127.847 117.986 127.905C119.458 128.231 120.898 128.69 122.287 129.276C122.434 129.335 122.571 129.422 122.72 129.474C123.472 129.736 123.519 129.758 123.162 130.437ZM114.61 96.3814C115.063 94.4339 115.53 92.4905 116.048 90.5582C116.53 88.7586 116.897 86.9279 117.312 85.1105C117.593 83.8809 117.962 82.677 118.318 81.4675C118.623 80.4322 118.797 79.3334 119.116 78.3238C119.588 76.8327 119.383 75.4699 119.054 74.0555C118.559 71.9285 118.049 69.8051 117.554 67.6782C117.419 67.0985 116.836 66.8995 116.553 66.4496C116.463 66.3066 116.247 66.2591 116.238 65.9137C116.77 66.1867 117.266 66.5229 117.717 66.9151C117.895 67.0549 117.667 67.2933 117.738 67.5137C118.458 69.7993 119.055 72.122 119.526 74.4718C119.743 75.5316 120.065 76.614 119.905 77.703C119.761 78.6829 120.032 79.6219 120.002 80.5769C119.953 82.1724 120.302 83.7437 120.232 85.3412C120.154 85.741 120.232 86.1555 120.448 86.5007C120.504 86.6273 120.516 86.7694 120.48 86.9035C120.203 88.9662 120.378 91.0388 120.342 93.1065C120.32 94.4194 120.301 95.7317 120.227 97.0437C120.172 98.0059 120.247 98.978 120.153 99.9347C120.071 100.762 120.228 101.584 120.093 102.41C120.042 102.587 120.047 102.775 120.107 102.948C120.166 103.122 120.278 103.273 120.426 103.382C120.487 103.422 120.556 103.554 120.533 103.601C120.482 103.76 120.462 103.928 120.476 104.094C120.49 104.26 120.537 104.422 120.614 104.57C120.805 105.196 120.69 105.862 120.903 106.479C121.1 107.051 120.625 107.511 120.633 108.059C120.635 108.198 120.435 108.145 120.315 108.136C118.549 107.993 116.778 107.908 115.023 107.64C114.937 107.618 114.848 107.615 114.76 107.63C113.781 107.933 112.844 107.338 111.859 107.499C111.559 107.549 111.325 107.26 111.56 106.882C112.172 105.895 112.612 104.81 112.862 103.676C113.078 102.717 113.577 101.836 113.669 100.843C113.88 99.3359 114.195 97.8453 114.61 96.3814ZM110.931 55.8433C110.949 55.7299 110.987 55.6354 111.118 55.6274C111.223 55.6211 111.261 55.6926 111.299 55.782C111.482 56.2104 111.755 56.5948 112.099 56.9095C112.443 57.2242 112.85 57.462 113.292 57.6071C113.335 57.623 113.367 57.6669 113.478 57.7588C113.307 57.8031 113.128 57.8106 112.953 57.7806C112.779 57.7506 112.613 57.684 112.466 57.5851C111.918 57.3305 111.45 56.9328 111.109 56.4339C111.04 56.3531 110.989 56.2589 110.958 56.1573C110.927 56.0556 110.918 55.9487 110.931 55.8433ZM102.324 129.417C102.482 129.41 102.639 129.382 102.79 129.331C102.685 129.508 102.482 129.438 102.324 129.417ZM108.571 110.496C108.518 110.504 108.467 110.523 108.422 110.552C107.161 111.398 105.696 111.27 104.288 111.445C103.216 111.579 102.141 111.601 101.068 111.681C100.655 111.711 100.419 111.792 100.537 112.366C100.795 113.62 100.871 114.911 101.119 116.167C101.338 117.274 101.213 118.388 101.343 119.488C101.355 120.17 101.449 120.849 101.621 121.51C101.679 121.667 101.577 121.777 101.56 121.907C101.542 121.979 101.541 122.055 101.557 122.128C101.572 122.201 101.604 122.27 101.65 122.328C101.696 122.387 101.754 122.435 101.821 122.468C101.888 122.501 101.962 122.518 102.037 122.518C101.547 122.506 101.572 122.836 101.61 123.116C101.725 123.952 101.733 124.796 101.805 125.627C101.802 126.147 101.84 126.665 101.918 127.178C101.987 127.736 102.019 128.298 102.014 128.86C102.053 129.232 102.104 129.388 102.278 129.415C102.197 129.411 102.132 129.429 102.11 129.523C102.01 129.935 102.005 130.364 102.095 130.778C102.187 131.347 102.214 131.924 102.175 132.499C102.196 133.897 102.287 135.291 102.324 136.687C102.346 137.547 102.282 138.409 102.281 139.27C102.24 140.071 102.267 140.873 102.36 141.67C102.371 142.124 102.352 142.579 102.3 143.03C102.329 144.138 102.275 145.247 102.254 146.356C102.191 147.296 102.185 148.24 102.236 149.181C102.279 149.601 102.091 149.942 102.123 150.332C102.143 150.576 101.896 150.686 101.712 150.766C100.59 151.254 100.825 151.581 100.84 152.626C100.861 153.497 101.215 154.327 101.828 154.946C101.881 155.002 102.031 155.063 101.954 155.143C101.665 155.446 101.682 155.921 101.405 156.191C101.268 156.323 101.16 156.483 101.088 156.659C101.016 156.836 100.981 157.025 100.986 157.216C100.97 157.606 100.97 157.887 100.337 157.829C98.6738 157.676 97.0235 157.437 95.3665 157.252C94.4143 157.145 93.4543 157.036 92.4947 156.959C91.1156 156.848 89.7434 156.652 88.3676 156.498C87.3929 156.389 86.4171 156.289 85.4419 156.184C84.2837 156.061 83.1264 155.927 81.967 155.817C81.2687 155.75 80.5955 155.536 79.8906 155.505C79.374 155.482 78.5447 154.927 78.5695 154.597C78.6126 154.025 78.5681 153.454 78.6026 152.885C78.6763 152.127 78.695 151.366 78.6586 150.605C78.5101 148.911 78.6223 147.22 78.6269 145.534C78.631 143.987 78.5554 142.446 78.545 140.901C78.5367 139.65 78.6306 138.396 78.5724 137.148C78.5288 136.213 78.6142 135.282 78.5518 134.345C78.4839 133.322 78.6281 132.286 78.5916 131.259C78.5517 130.139 78.4753 129.002 78.5295 127.901C78.5874 126.723 78.3992 125.556 78.5347 124.383C78.6104 123.336 78.628 122.285 78.5875 121.236C78.5917 120.259 78.5728 119.261 78.5404 118.278C78.5061 117.425 78.5293 116.571 78.61 115.721C78.6573 114.868 78.6225 114.012 78.506 113.166C78.4761 112.839 78.4959 112.694 78.8572 112.626C79.9628 112.419 81.085 112.406 82.1986 112.301C84.0652 112.126 85.9503 112.259 87.8126 112.021C89.6986 111.78 91.6011 111.727 93.4861 111.468C94.4432 111.336 95.4238 111.444 96.3867 111.293C97.8094 111.071 99.2507 111.185 100.681 111.068C102.565 110.963 104.44 110.726 106.292 110.36C107.553 110.088 108.75 109.573 109.815 108.845C109.926 108.733 110.062 108.648 110.212 108.596C110.361 108.543 110.52 108.526 110.677 108.544C110.89 108.592 111.206 108.486 111.282 108.728C111.344 108.928 111.065 109.071 110.904 109.191C110.184 109.726 109.509 110.349 108.571 110.496ZM164.241 163.983C164.001 164.778 163.403 165.059 162.559 165.005C161.262 164.921 159.993 164.591 158.696 164.569C157.672 164.551 156.685 164.295 155.67 164.21C153.223 164.007 150.797 163.592 148.348 163.361C146.976 163.232 145.596 163.098 144.224 162.886C143.026 162.642 141.808 162.511 140.585 162.495C139.892 162.519 139.213 162.206 138.5 162.238C137.558 162.281 136.671 161.885 135.711 161.931C134.94 161.884 134.174 161.793 133.414 161.658C132.527 161.595 131.66 161.406 130.78 161.311C129.91 161.218 129.026 161.194 128.174 161.018C127.475 160.873 126.769 160.918 126.077 160.792C125.922 160.764 125.754 160.798 125.602 160.761C125.276 160.682 124.998 160.61 125.07 160.118C125.197 159.409 125.232 158.686 125.172 157.968C125.068 157.104 125.428 156.316 125.396 155.463C125.364 154.595 125.589 153.72 125.597 152.847C125.605 152.049 125.87 151.277 125.737 150.46C125.751 150.029 125.793 149.599 125.863 149.173C125.871 149.092 125.85 149.009 125.804 148.941C125.758 148.873 125.69 148.823 125.611 148.8C123.796 147.93 121.953 147.122 120.094 146.351C118.86 145.839 117.633 145.31 116.409 144.777C116.134 144.657 116.078 144.638 116.079 145.005C116.08 145.843 115.964 146.679 115.933 147.517C115.893 148.607 115.868 149.697 115.874 150.787C115.883 152.302 115.628 153.801 115.632 155.313C115.634 156.173 115.419 157.011 115.396 157.86C115.384 158.312 115.276 158.749 115.281 159.189C115.285 159.603 115.071 159.621 114.787 159.587C113.587 159.357 112.375 159.201 111.156 159.121C110.91 159.121 110.918 158.958 110.928 158.799C110.98 157.995 111.022 157.19 111.096 156.388C111.178 154.586 111.37 152.792 111.669 151.013C111.986 149.556 112.047 148.056 112.516 146.619C112.728 145.931 112.858 145.22 112.903 144.501C112.907 144.449 112.88 144.383 112.903 144.344C113.3 143.677 112.779 143.498 112.346 143.238C111.66 142.827 110.884 142.627 110.177 142.271C109.55 141.956 109.519 141.839 109.948 141.303C110.348 140.802 110.527 140.174 110.887 139.657C112.085 137.934 113.123 136.112 114.197 134.314C114.973 133.013 115.631 131.635 115.195 130.026C115.101 129.68 115.283 129.347 115.274 128.992C115.237 127.591 115.237 126.188 115.254 124.786C115.263 124.038 115.347 123.28 115.314 122.543C115.258 121.297 115.261 120.052 115.238 118.806C115.279 118.207 115.27 117.606 115.211 117.008C115.164 116.366 115.168 115.722 115.222 115.08C115.198 114.395 115.283 113.701 115.213 113.029C115.124 112.172 115.27 111.32 115.158 110.471C115.14 110.334 115.096 110.152 115.271 110.116C115.475 110.074 115.464 110.294 115.485 110.409C115.63 111.194 115.758 111.981 115.844 112.776C115.948 113.728 116.106 114.674 116.234 115.623C116.446 117.2 116.689 118.772 117.017 120.33C117.026 120.373 117.07 120.407 117.129 120.489C117.428 119.987 117.653 119.444 117.795 118.877C118.677 116.294 119.31 113.634 119.688 110.932C119.743 110.461 119.843 109.995 119.907 109.524C119.933 109.334 119.997 109.237 120.207 109.251C120.435 109.266 120.444 109.395 120.433 109.575C120.35 110.718 120.175 111.853 119.908 112.968C119.368 115.33 118.986 117.737 118.088 120.006C117.751 120.857 117.382 121.695 117.019 122.535C116.823 122.969 116.536 123.356 116.176 123.668C116.095 123.718 116.029 123.788 115.983 123.871C115.936 123.953 115.912 124.047 115.911 124.142C115.911 124.236 115.934 124.33 115.979 124.413C116.025 124.497 116.091 124.567 116.171 124.618C116.562 124.916 116.473 125.202 116.267 125.544C115.719 126.454 115.709 126.469 116.359 127.281C116.533 127.527 116.633 127.819 116.646 128.12C116.659 128.421 116.585 128.72 116.433 128.98C116.095 129.862 115.85 130.777 115.7 131.71C115.413 133.099 114.601 134.245 113.961 135.468C112.905 137.485 111.671 139.397 110.437 141.307C110.264 141.574 110.418 141.643 110.607 141.725C111.845 142.263 112.945 143.08 114.245 143.499C118.149 144.759 121.762 146.727 125.586 148.185C126.29 148.4 126.95 148.742 127.531 149.195C127.916 149.553 128.4 149.787 128.92 149.867C128.982 149.874 129.041 149.894 129.094 149.926C129.148 149.957 129.194 149.999 129.23 150.049C129.403 150.258 129.622 150.394 129.863 150.197C129.991 150.113 130.083 149.984 130.12 149.835C130.158 149.687 130.139 149.53 130.067 149.395C129.877 149.017 129.708 148.626 129.484 148.269C128.606 146.871 127.693 145.497 126.716 144.166C126.323 143.631 125.939 143.088 125.579 142.53C125.407 142.263 125.295 142.241 125.001 142.403C124.272 142.735 123.505 142.976 122.717 143.122C122.88 142.785 123.166 142.524 123.516 142.393C123.827 142.228 124.149 142.086 124.481 141.968C125.239 141.667 125.249 141.621 124.769 140.961C124.75 140.918 124.721 140.881 124.686 140.851C124.65 140.821 124.608 140.798 124.564 140.786C124.519 140.773 124.472 140.77 124.426 140.778C124.38 140.785 124.336 140.802 124.297 140.828C123.631 141.094 122.947 141.315 122.266 141.541C122.088 141.588 121.907 141.623 121.724 141.645C121.668 141.417 121.804 141.392 121.911 141.339C122.574 141.013 123.23 140.668 123.904 140.365C124.221 140.223 124.322 140.055 124.112 139.774C123.934 139.537 123.938 139.024 123.384 139.316C122.883 139.566 122.368 139.789 121.842 139.983C121.719 140.031 121.54 140.244 121.439 140.03C121.359 139.858 121.595 139.79 121.725 139.713C122.194 139.435 122.656 139.142 123.142 138.898C123.405 138.766 123.518 138.656 123.38 138.355C122.94 137.337 122.712 136.24 122.711 135.131C122.695 134.584 122.804 134.04 123.032 133.541C123.408 132.669 123.827 131.815 124.229 130.954C124.259 130.89 124.325 130.826 124.321 130.765C124.264 129.968 124.783 130.08 125.283 130.139C125.477 130.16 125.672 130.164 125.866 130.15C126.313 130.122 126.595 129.928 126.58 129.428C126.562 128.863 126.573 128.296 126.549 127.731C126.529 127.627 126.542 127.519 126.588 127.423C126.633 127.327 126.709 127.249 126.803 127.199C127.483 126.855 127.722 126.201 127.932 125.545C128.528 123.672 129.155 121.807 129.673 119.912C130.115 118.298 130.852 116.781 131.199 115.142C131.537 113.539 132.263 112.053 132.561 110.437C132.63 110.066 133.123 110.114 133.312 110.196C133.712 110.318 134.13 110.373 134.549 110.359C136.573 110.559 138.605 110.676 140.632 110.84C142.063 110.955 143.505 110.95 144.93 111.185C145.612 111.27 146.3 111.298 146.986 111.268C147.484 111.265 147.966 111.365 148.456 111.406C149.753 111.514 151.061 111.523 152.351 111.682C153.498 111.836 154.654 111.904 155.811 111.886C156.626 111.917 157.438 112.005 158.241 112.149C158.912 112.26 159.595 112.277 160.27 112.202C160.597 112.123 160.936 112.103 161.271 112.142C161.857 112.26 161.883 111.921 161.787 111.553C161.61 110.874 161.982 110.254 161.934 109.594C161.92 109.408 162.07 109.308 162.264 109.361C162.726 109.472 163.202 109.518 163.677 109.497C163.968 109.495 164.063 109.642 164.008 109.897C163.974 110.016 163.968 110.141 163.99 110.263C164.013 110.384 164.064 110.499 164.139 110.597C164.168 110.634 164.256 110.677 164.184 110.761C163.806 111.202 164 111.741 164.013 112.212C164.068 114.248 164.015 116.285 164.044 118.321C164.061 119.508 164.061 120.707 164.025 121.901C163.985 123.244 163.999 124.603 164.06 125.954C164.097 126.777 164.016 127.604 164.051 128.427C164.124 130.161 164.051 131.896 164.096 133.631C164.121 134.587 164.142 135.55 164.13 136.51C164.115 137.632 164.178 138.755 164.154 139.876C164.112 141.804 164.216 143.732 164.114 145.66C164.074 146.424 164.224 147.185 164.189 147.958C164.101 149.88 164.286 151.803 164.186 153.73C164.139 154.644 164.216 155.571 164.217 156.489C164.218 157.556 164.202 158.623 164.279 159.687C164.27 160.259 164.292 160.831 164.344 161.4C164.379 161.904 164.329 162.409 164.197 162.896C164.126 163.275 164.349 163.624 164.241 163.983ZM203.087 145.48C203.081 145.641 203.023 145.795 202.921 145.919C202.819 146.044 202.679 146.131 202.522 146.167C201.675 146.318 201.084 146.969 200.302 147.237C199.633 147.465 199.059 147.887 198.404 148.165C197.728 148.441 197.078 148.777 196.462 149.169C195.646 149.705 194.686 149.985 193.852 150.51C193.437 150.771 193.265 150.648 193.249 150.168C193.198 148.576 193.21 146.979 193.072 145.394C192.975 144.289 192.896 143.184 192.814 142.078C192.803 141.923 192.828 141.729 192.622 141.691C192.453 141.66 192.4 141.842 192.313 141.944C192.087 142.21 191.998 142.56 191.718 142.807C191.043 143.402 190.502 143.323 190.207 142.465C190 141.862 189.505 141.41 189.4 140.765C189.364 140.646 189.286 140.544 189.18 140.48C189.053 140.398 188.954 140.216 188.777 140.269C188.575 140.33 188.65 140.535 188.62 140.68C188.503 141.638 188.311 142.586 188.046 143.514C187.847 144.053 187.662 144.124 187.221 143.761C187.013 143.596 186.855 143.377 186.763 143.128C186.741 143.059 186.695 143 186.633 142.962C186.571 142.924 186.498 142.91 186.427 142.921C186.356 142.928 186.288 142.957 186.235 143.005C186.182 143.053 186.146 143.117 186.133 143.187C185.917 144.035 185.236 144.588 184.784 145.285C184.604 145.561 183.96 145.558 183.673 145.346C183.562 145.264 183.453 145.136 183.3 145.22C183.152 145.301 183.182 145.472 183.184 145.605C183.195 146.566 183.213 147.526 183.238 148.486C183.273 149.856 183.275 151.229 183.372 152.594C183.357 153.546 183.431 154.496 183.593 155.434C183.613 155.512 183.607 155.668 183.578 155.677C183.117 155.823 182.814 156.269 182.307 156.331C182.155 156.367 182.01 156.429 181.878 156.514C180.416 157.263 178.972 158.046 177.479 158.738C176.437 159.216 175.425 159.76 174.45 160.364C174.068 160.602 173.64 160.636 173.272 160.863C172.855 161.12 172.411 161.333 171.978 161.565C171.961 161.57 171.944 161.574 171.927 161.576C171.468 161.742 171.211 162.198 170.596 162.24C170.205 162.266 169.696 162.7 169.24 162.946C168.53 163.329 167.759 163.607 167.082 164.035C166.894 164.17 166.675 164.255 166.446 164.281C166.216 164.307 165.984 164.274 165.771 164.185C165.631 164.133 165.48 164.067 165.464 163.924C165.332 163.327 165.283 162.714 165.319 162.103C165.372 161.441 165.384 160.775 165.356 160.111C165.394 158.953 165.357 157.786 165.302 156.635C165.245 155.463 165.266 154.291 165.289 153.13C165.313 151.985 165.168 150.847 165.247 149.704C165.309 149.416 165.27 149.114 165.136 148.851C165.092 148.781 165.307 148.439 165.291 148.195C165.206 147.478 165.211 146.753 165.307 146.038C165.324 145.987 165.326 145.933 165.314 145.881C164.992 145.23 165.332 144.56 165.254 143.894C165.192 143.215 165.19 142.531 165.25 141.852C165.329 140.348 165.327 138.84 165.243 137.337C165.133 134.863 165.325 132.393 165.232 129.925C165.132 127.267 165.259 124.609 165.134 121.951C165.068 120.557 165.226 119.151 165.14 117.76C165.083 116.845 165.233 115.948 165.173 115.04C165.111 114.093 165.12 113.141 165.111 112.192C165.094 110.344 165.155 108.497 165.11 106.649C165.067 104.894 165.162 103.135 165.076 101.383C164.998 99.785 165.006 98.1857 165.038 96.5939C165.076 94.737 164.999 92.8815 165.039 91.0243C165.083 89.7103 165.053 88.395 164.95 87.0844C164.918 86.7341 165.035 86.3938 164.982 86.0416C165.367 86.3696 165.289 86.827 165.421 87.2139C165.735 88.1356 165.964 89.0859 166.25 90.0177C166.575 91.0753 166.919 92.1246 167.197 93.1986C167.483 94.1879 167.834 95.1572 168.248 96.1003C168.303 96.2231 168.382 96.3333 168.482 96.4242C168.581 96.5151 168.698 96.5847 168.825 96.6288C168.953 96.6729 169.087 96.6905 169.222 96.6806C169.356 96.6706 169.487 96.6334 169.606 96.571C170.111 96.3221 170.601 96.0439 171.097 95.777C171.189 95.7274 171.273 95.6631 171.368 95.6181C172.111 95.2633 172.284 95.3415 172.502 96.1207C172.592 96.4421 172.681 96.7639 172.776 97.0836C172.872 97.3478 173.021 97.5897 173.213 97.7946C173.406 97.9994 173.638 98.1628 173.896 98.2749C174.385 98.5337 174.771 98.0767 175.12 97.8387C176.093 97.1754 177.151 96.6614 178.133 96.0171C179.01 95.4414 179.956 94.9834 180.833 94.4032C181.632 93.8754 182.52 93.4586 183.296 92.9205C184.024 92.4163 184.825 92.0732 185.548 91.5883C186.581 90.8958 187.697 90.3438 188.743 89.6795C190.216 88.7432 191.719 87.8587 193.22 86.9694C194.007 86.5031 194.77 86.0017 195.576 85.5611C196.106 85.271 196.759 85.0659 197.068 84.4473C198.049 84.4158 198.557 83.5099 199.392 83.1939C200.165 82.8154 200.914 82.3908 201.635 81.9223C202.19 81.6319 202.154 81.6991 202.251 82.294C202.406 83.2412 202.012 84.1854 202.3 85.1087C202.526 85.8303 202.245 86.5312 202.277 87.2485C202.324 88.2725 202.289 89.3095 202.328 90.3316C202.385 91.8346 202.312 93.3343 202.357 94.8346C202.4 96.2546 202.433 97.6749 202.477 99.0949C202.54 101.114 202.447 103.135 202.53 105.155C202.577 106.278 202.467 107.41 202.554 108.528C202.622 109.223 202.645 109.922 202.62 110.62C202.556 111.74 202.792 112.851 202.635 113.973C202.593 114.48 202.604 114.991 202.667 115.496C202.777 117.107 202.638 118.719 202.731 120.335C202.8 121.519 202.777 122.723 202.79 123.915C202.798 124.731 202.817 125.561 202.853 126.379C202.932 127.353 202.927 128.332 202.839 129.306C202.751 129.981 202.98 130.629 202.907 131.294C202.796 132.296 203.007 133.297 202.901 134.302C202.883 134.813 202.895 135.323 202.939 135.832C202.966 137.201 203 138.57 203.008 139.939C203.016 141.367 203.186 142.791 203.053 144.222C203.015 144.636 203.152 145.05 203.087 145.48H203.087ZM203.23 79.6422C203.179 79.7236 203.107 79.7896 203.021 79.8329C202.935 79.8763 202.839 79.8954 202.743 79.8881C202.358 79.6498 202.219 79.9541 202.007 80.2439C201.729 80.6249 201.536 80.549 201.346 80.1222C200.648 78.5588 200.135 76.9049 199 75.5561C198.757 75.1613 198.566 74.7364 198.432 74.292C198.197 73.7696 198.007 73.7286 197.653 74.1722C197.375 74.5199 197.167 74.9223 196.758 74.3058C196.662 74.1606 196.506 74.2046 196.387 74.3092C196.256 74.4246 196.29 74.5505 196.37 74.6868C196.624 75.1224 197.125 75.082 197.506 75.2658C197.634 75.3274 197.685 75.0835 197.756 74.9687C197.81 74.8816 197.827 74.7414 197.959 74.7602C198.068 74.7758 198.116 74.8904 198.153 74.9924C198.577 76.1546 199.288 77.1708 199.813 78.2781C200.045 78.7662 200.175 79.3137 200.434 79.8016C200.497 79.9265 200.569 80.0466 200.65 80.1607C200.985 80.6131 200.952 80.8562 200.489 81.1443C198.587 82.3273 196.698 83.5331 194.769 84.6719C194.153 85.0354 193.553 85.4269 192.925 85.7721C192.584 85.9597 192.488 85.8421 192.339 85.5153C192.1 84.8069 191.824 84.1115 191.512 83.432C191.353 83.0516 191.228 82.6583 191.136 82.2564C190.807 81.3144 190.51 80.3615 190.194 79.4149C190.127 79.1769 189.998 78.9611 189.82 78.7901C189.696 78.6799 189.682 78.5321 189.865 78.4553C189.978 78.4083 190.126 78.2827 190.199 78.5215C190.287 78.8072 190.59 78.8543 190.785 79.0218C190.823 79.0657 190.87 79.1002 190.923 79.1223C190.977 79.1445 191.035 79.1538 191.092 79.1493C191.15 79.1449 191.205 79.1269 191.255 79.0969C191.304 79.0668 191.346 79.0256 191.376 78.9764C191.505 78.7849 191.518 78.5979 191.198 78.5305C191.089 78.5075 190.977 78.2649 191.135 78.2108C191.562 78.0647 191.501 77.6976 191.554 77.3995C191.678 76.6915 191.78 75.9786 191.856 75.264C191.892 74.9156 192.019 74.8887 192.3 75.0167C192.613 75.2119 192.911 75.4284 193.194 75.6647C193.402 75.7952 193.542 76.0969 193.873 75.8804C193.986 75.8064 194.013 75.9481 194.007 76.0246C193.953 76.6878 194.545 76.5469 194.868 76.66C195.194 76.7743 195.381 76.4489 195.425 76.1624C195.506 75.6295 195.956 75.1374 195.593 74.5438C195.51 74.4088 195.714 74.4353 195.803 74.4187C195.84 74.4177 195.875 74.4075 195.906 74.389C195.937 74.3705 195.963 74.3444 195.981 74.3131C196 74.2817 196.01 74.2463 196.01 74.2101C196.011 74.1739 196.002 74.1381 195.985 74.1061C195.895 73.8926 195.758 74.0366 195.643 74.1018C195.553 74.1583 195.477 74.2336 195.418 74.3225C195.36 74.4113 195.322 74.5117 195.306 74.6167C195.234 74.9252 195.132 75.226 195.002 75.5152C194.734 76.1658 194.754 76.1434 194.185 75.7128C193.54 75.224 193.013 74.5657 192.186 74.3272C191.755 74.203 191.521 74.3012 191.596 74.7296C191.665 75.1221 191.319 75.2631 191.257 75.5761C191.098 76.3827 191.031 77.1998 190.916 78.0105C190.868 78.3516 190.742 78.3406 190.506 78.2324C190.428 78.1928 190.347 78.1588 190.263 78.1307C189.681 77.9602 189.557 78.0848 189.659 78.664C189.712 78.9641 189.87 79.2651 189.725 79.5855C189.698 79.6447 189.683 79.764 189.714 79.7869C190.373 80.2761 189.898 81.0572 190.212 81.6732C190.528 82.2946 190.547 83.061 190.75 83.748C190.971 84.5028 191.23 85.2461 191.526 85.975C191.663 86.3108 191.67 86.5301 191.348 86.7244C190.913 86.9873 190.486 87.2643 190.05 87.5277C188.803 88.2821 187.586 89.0911 186.343 89.8448C184.652 90.8703 182.976 91.9297 181.249 92.8935C179.889 93.6529 178.608 94.5385 177.246 95.2869C176.276 95.8201 175.35 96.422 174.402 96.988C174.099 97.1686 173.969 97.0755 173.888 96.7798C173.611 95.764 173.323 94.7452 172.979 93.7558C172.627 92.7429 172.404 91.6947 172.038 90.6841C171.789 89.9898 171.583 89.281 171.42 88.5618C171.232 87.7454 170.881 86.9677 170.65 86.1674C170.431 85.4098 170.196 84.6539 169.98 83.8939C169.602 82.5639 169.212 81.2373 168.826 79.9095C168.587 79.0872 168.323 78.2713 168.116 77.441C168.009 77.0123 167.836 76.612 167.708 76.195C167.421 75.2604 167.154 74.3196 166.907 73.3726C166.607 72.2353 166.18 71.1402 165.84 70.0171C165.675 69.4235 165.46 68.8448 165.198 68.2871C165.083 68.0575 165.092 67.9033 165.321 67.7582C166.033 67.2498 166.77 66.7775 167.53 66.3432C168.398 65.9049 169.293 65.5009 170.166 65.0742C170.988 64.672 171.866 64.3483 172.716 63.9809C173.282 63.8302 173.807 63.5545 174.252 63.174C174.426 62.9865 174.913 62.9704 175.239 62.819C176.141 62.4003 177.07 62.0467 177.968 61.6133C179.653 60.8008 181.411 60.1404 183.089 59.315C184.547 58.5973 186.037 57.951 187.524 57.3061C188.988 56.6709 190.457 56.0458 191.888 55.3419C193.65 54.4753 195.486 53.7778 197.247 52.9154C198.517 52.2932 199.907 51.9367 201.096 51.1452C201.596 50.8125 201.958 51.0286 202.282 51.4172C202.927 52.0906 203.445 52.8763 203.809 53.7356C203.901 54.0002 203.975 54.2723 204.086 54.5293C204.726 56.0224 205.41 57.4972 205.92 59.043C205.931 59.0765 205.931 59.1262 205.954 59.1416C206.736 59.6644 206.538 60.6038 206.885 61.3078C207.076 61.6955 207.243 62.0978 207.44 62.4743C207.884 63.3207 208.111 64.259 208.559 65.0858C208.985 65.873 209.288 66.7061 209.656 67.5116C210.338 69.0009 210.944 70.5264 211.544 72.0513C211.774 72.6357 212.239 73.095 212.354 73.7458C212.397 73.9902 212.378 74.0841 212.182 74.1936C211 74.8556 209.891 75.6388 208.66 76.2232C207.954 76.5995 207.271 77.0169 206.614 77.4732C205.769 78.0039 204.949 78.576 204.054 79.0219C203.723 79.1396 203.435 79.3561 203.23 79.6422H203.23Z" fill="#020202"/>
<path d="M101.059 75.0645C101.04 75.1748 101.05 75.2883 101.088 75.3937C101.126 75.4991 101.191 75.5927 101.276 75.6654C101.221 75.3772 101.209 75.0822 101.242 74.7905C101.116 74.7962 101.051 74.9295 101.059 75.0645Z" fill="#020202"/>
<path d="M136.62 88.2942C136.478 88.462 136.275 88.5881 136.231 88.8302C136.226 88.8627 136.212 88.8932 136.191 88.9189C136.66 88.9684 136.524 88.5379 136.62 88.2942Z" fill="#020202"/>
<path d="M130.073 121.867C129.936 122.19 129.816 122.522 129.707 122.855C129.316 124.05 128.573 125.081 128.124 126.244C127.989 126.719 127.687 127.13 127.273 127.4C127.147 127.462 127.046 127.567 126.989 127.696C126.933 127.826 126.924 127.971 126.964 128.106C127.06 128.591 127.095 129.087 127.068 129.581C127.068 129.812 126.987 130.036 126.838 130.213C126.69 130.39 126.483 130.508 126.255 130.548C125.908 130.593 125.558 130.62 125.208 130.628C125.021 130.658 124.919 130.681 124.827 130.888C124.427 131.789 123.977 132.667 123.565 133.562C123.358 133.888 123.212 134.249 123.133 134.627C123.042 135.897 123.281 137.169 123.828 138.319C124.888 140.524 126.145 142.628 127.583 144.607C127.696 144.765 127.721 145.016 128.007 145.069C128.067 144.538 128.162 144.027 128.174 143.499C128.153 143.026 128.211 142.552 128.347 142.097C128.648 141.258 128.346 140.32 128.629 139.435C129 138.274 128.831 137.034 129.047 135.84C129.163 135.198 129.113 134.506 129.227 133.87C129.402 132.896 129.464 131.912 129.619 130.938C129.831 129.608 129.833 128.246 130.022 126.912C130.249 125.311 130.319 123.694 130.548 122.095C130.558 121.867 130.546 121.639 130.512 121.413C130.203 121.453 130.151 121.683 130.073 121.867ZM129.223 130.843C129.028 130.798 128.975 130.604 129.005 130.406C129.023 130.286 128.924 130.126 129.113 130.059C129.386 130.141 129.294 130.409 129.389 130.575C129.431 130.649 129.341 130.871 129.223 130.843Z" fill="#020202"/>
<path d="M140.004 58.4261C140.124 58.0354 140.434 57.6955 140.344 57.2477C140.301 57.0358 140.124 56.9741 139.998 57.1092C139.823 57.3284 139.668 57.5627 139.534 57.8092C139.531 57.9211 139.553 58.0323 139.597 58.1352C139.642 58.238 139.708 58.3302 139.791 58.4054C139.863 58.4712 139.973 58.5268 140.004 58.4261Z" fill="#020202"/>
</svg>
