<svg width="157" height="260" viewBox="0 0 157 260" fill="none" xmlns="http://www.w3.org/2000/svg">
<g filter="url(#filter0_d_97_49282)">
<path d="M20 28C20 23.5817 23.5817 20 28 20H129C133.418 20 137 23.5817 137 28V52C137 56.4183 133.418 60 129 60H28C23.5817 60 20 56.4183 20 52V28Z" fill="#4640DE"/>
<path d="M37.9787 45H36.348L40.0121 34.8182H41.7869L45.451 45H43.8203L40.9418 36.6676H40.8622L37.9787 45ZM38.2521 41.0128H43.5419V42.3054H38.2521V41.0128ZM46.802 47.8636V37.3636H48.2537V38.6016H48.378C48.4642 38.4425 48.5885 38.2585 48.7509 38.0497C48.9133 37.8409 49.1387 37.6586 49.427 37.5028C49.7154 37.3438 50.0965 37.2642 50.5705 37.2642C51.187 37.2642 51.7372 37.42 52.2211 37.7315C52.705 38.0431 53.0845 38.4922 53.3596 39.0788C53.638 39.6655 53.7772 40.3714 53.7772 41.1967C53.7772 42.022 53.6396 42.7296 53.3645 43.3196C53.0894 43.9062 52.7116 44.3587 52.231 44.6768C51.7504 44.9917 51.2019 45.1491 50.5854 45.1491C50.1214 45.1491 49.7419 45.0713 49.4469 44.9155C49.1552 44.7597 48.9266 44.5774 48.7608 44.3686C48.5951 44.1598 48.4675 43.9742 48.378 43.8118H48.2885V47.8636H46.802ZM48.2587 41.1818C48.2587 41.7187 48.3366 42.1894 48.4924 42.5938C48.6481 42.9981 48.8735 43.3146 49.1685 43.5433C49.4635 43.7687 49.8248 43.8814 50.2523 43.8814C50.6964 43.8814 51.0676 43.7637 51.3659 43.5284C51.6642 43.2898 51.8896 42.9666 52.0421 42.5589C52.1979 42.1513 52.2757 41.6922 52.2757 41.1818C52.2757 40.678 52.1995 40.2256 52.0471 39.8246C51.8979 39.4235 51.6725 39.107 51.3709 38.875C51.0726 38.643 50.6998 38.527 50.2523 38.527C49.8214 38.527 49.4569 38.638 49.1586 38.8601C48.8636 39.0821 48.6399 39.392 48.4874 39.7898C48.3349 40.1875 48.2587 40.6515 48.2587 41.1818ZM55.4426 47.8636V37.3636H56.8944V38.6016H57.0186C57.1048 38.4425 57.2291 38.2585 57.3915 38.0497C57.5539 37.8409 57.7793 37.6586 58.0676 37.5028C58.356 37.3438 58.7372 37.2642 59.2111 37.2642C59.8276 37.2642 60.3778 37.42 60.8617 37.7315C61.3456 38.0431 61.7251 38.4922 62.0002 39.0788C62.2786 39.6655 62.4178 40.3714 62.4178 41.1967C62.4178 42.022 62.2802 42.7296 62.0051 43.3196C61.7301 43.9062 61.3522 44.3587 60.8716 44.6768C60.391 44.9917 59.8425 45.1491 59.226 45.1491C58.762 45.1491 58.3825 45.0713 58.0875 44.9155C57.7959 44.7597 57.5672 44.5774 57.4015 44.3686C57.2357 44.1598 57.1081 43.9742 57.0186 43.8118H56.9292V47.8636H55.4426ZM56.8993 41.1818C56.8993 41.7187 56.9772 42.1894 57.133 42.5938C57.2888 42.9981 57.5141 43.3146 57.8091 43.5433C58.1041 43.7687 58.4654 43.8814 58.8929 43.8814C59.3371 43.8814 59.7083 43.7637 60.0066 43.5284C60.3049 43.2898 60.5302 42.9666 60.6827 42.5589C60.8385 42.1513 60.9164 41.6922 60.9164 41.1818C60.9164 40.678 60.8401 40.2256 60.6877 39.8246C60.5385 39.4235 60.3132 39.107 60.0115 38.875C59.7132 38.643 59.3404 38.527 58.8929 38.527C58.4621 38.527 58.0975 38.638 57.7992 38.8601C57.5042 39.0821 57.2805 39.392 57.128 39.7898C56.9756 40.1875 56.8993 40.6515 56.8993 41.1818ZM65.5698 34.8182V45H64.0833V34.8182H65.5698ZM68.5092 47.8636C68.2872 47.8636 68.085 47.8454 67.9027 47.8089C67.7204 47.7758 67.5845 47.7393 67.495 47.6996L67.853 46.4815C68.1248 46.5545 68.3667 46.5859 68.5788 46.576C68.791 46.5661 68.9782 46.4865 69.1406 46.3374C69.3063 46.1882 69.4522 45.9446 69.5781 45.6065L69.7621 45.0994L66.968 37.3636H68.5589L70.4929 43.2898H70.5724L72.5064 37.3636H74.1023L70.9553 46.0192C70.8094 46.4169 70.6238 46.7533 70.3984 47.0284C70.1731 47.3068 69.9046 47.5156 69.593 47.6548C69.2815 47.794 68.9202 47.8636 68.5092 47.8636ZM82.769 37.3636V38.5568H78.5978V37.3636H82.769ZM79.7164 35.5341H81.2029V42.7578C81.2029 43.0462 81.246 43.2633 81.3322 43.4091C81.4184 43.5516 81.5294 43.6494 81.6653 43.7024C81.8045 43.7521 81.9553 43.777 82.1177 43.777C82.237 43.777 82.3414 43.7687 82.4309 43.7521C82.5204 43.7356 82.59 43.7223 82.6397 43.7124L82.9082 44.9403C82.822 44.9735 82.6994 45.0066 82.5403 45.0398C82.3812 45.0762 82.1824 45.0961 81.9437 45.0994C81.5526 45.1061 81.188 45.0365 80.85 44.8906C80.5119 44.7448 80.2385 44.5194 80.0297 44.2145C79.8208 43.9096 79.7164 43.5268 79.7164 43.0661V35.5341ZM87.5479 45.1541C86.832 45.1541 86.2073 44.9901 85.6737 44.6619C85.14 44.3338 84.7257 43.8748 84.4308 43.2848C84.1358 42.6948 83.9883 42.0054 83.9883 41.2166C83.9883 40.4245 84.1358 39.7318 84.4308 39.1385C84.7257 38.5452 85.14 38.0845 85.6737 37.7564C86.2073 37.4283 86.832 37.2642 87.5479 37.2642C88.2638 37.2642 88.8886 37.4283 89.4222 37.7564C89.9558 38.0845 90.3701 38.5452 90.6651 39.1385C90.9601 39.7318 91.1076 40.4245 91.1076 41.2166C91.1076 42.0054 90.9601 42.6948 90.6651 43.2848C90.3701 43.8748 89.9558 44.3338 89.4222 44.6619C88.8886 44.9901 88.2638 45.1541 87.5479 45.1541ZM87.5529 43.9062C88.0169 43.9062 88.4014 43.7836 88.7063 43.5384C89.0112 43.2931 89.2366 42.9666 89.3825 42.5589C89.5316 42.1513 89.6062 41.7022 89.6062 41.2116C89.6062 40.7244 89.5316 40.277 89.3825 39.8693C89.2366 39.4583 89.0112 39.1286 88.7063 38.88C88.4014 38.6314 88.0169 38.5071 87.5529 38.5071C87.0856 38.5071 86.6978 38.6314 86.3896 38.88C86.0846 39.1286 85.8576 39.4583 85.7085 39.8693C85.5626 40.277 85.4897 40.7244 85.4897 41.2116C85.4897 41.7022 85.5626 42.1513 85.7085 42.5589C85.8576 42.9666 86.0846 43.2931 86.3896 43.5384C86.6978 43.7836 87.0856 43.9062 87.5529 43.9062ZM100.549 34.8182H102.08V42.0369C102.08 42.6899 101.951 43.2483 101.692 43.7124C101.437 44.1764 101.077 44.531 100.613 44.7763C100.149 45.0182 99.6057 45.1392 98.9826 45.1392C98.4092 45.1392 97.8938 45.0348 97.4364 44.826C96.9824 44.6172 96.6228 44.3139 96.3576 43.9162C96.0958 43.5152 95.9648 43.0279 95.9648 42.4545H97.4911C97.4911 42.7363 97.5558 42.9799 97.685 43.1854C97.8176 43.3909 97.9982 43.5516 98.2269 43.6676C98.4589 43.7803 98.7241 43.8366 99.0224 43.8366C99.3472 43.8366 99.6223 43.7687 99.8477 43.6328C100.076 43.4936 100.25 43.2898 100.37 43.0213C100.489 42.7528 100.549 42.4247 100.549 42.0369V34.8182ZM107.413 45.1541C106.697 45.1541 106.073 44.9901 105.539 44.6619C105.005 44.3338 104.591 43.8748 104.296 43.2848C104.001 42.6948 103.854 42.0054 103.854 41.2166C103.854 40.4245 104.001 39.7318 104.296 39.1385C104.591 38.5452 105.005 38.0845 105.539 37.7564C106.073 37.4283 106.697 37.2642 107.413 37.2642C108.129 37.2642 108.754 37.4283 109.287 37.7564C109.821 38.0845 110.235 38.5452 110.53 39.1385C110.825 39.7318 110.973 40.4245 110.973 41.2166C110.973 42.0054 110.825 42.6948 110.53 43.2848C110.235 43.8748 109.821 44.3338 109.287 44.6619C108.754 44.9901 108.129 45.1541 107.413 45.1541ZM107.418 43.9062C107.882 43.9062 108.267 43.7836 108.572 43.5384C108.876 43.2931 109.102 42.9666 109.248 42.5589C109.397 42.1513 109.471 41.7022 109.471 41.2116C109.471 40.7244 109.397 40.277 109.248 39.8693C109.102 39.4583 108.876 39.1286 108.572 38.88C108.267 38.6314 107.882 38.5071 107.418 38.5071C106.951 38.5071 106.563 38.6314 106.255 38.88C105.95 39.1286 105.723 39.4583 105.574 39.8693C105.428 40.277 105.355 40.7244 105.355 41.2116C105.355 41.7022 105.428 42.1513 105.574 42.5589C105.723 42.9666 105.95 43.2931 106.255 43.5384C106.563 43.7836 106.951 43.9062 107.418 43.9062ZM112.751 45V34.8182H114.238V38.6016H114.327C114.414 38.4425 114.538 38.2585 114.7 38.0497C114.863 37.8409 115.088 37.6586 115.376 37.5028C115.665 37.3438 116.046 37.2642 116.52 37.2642C117.136 37.2642 117.687 37.42 118.17 37.7315C118.654 38.0431 119.034 38.4922 119.309 39.0788C119.587 39.6655 119.727 40.3714 119.727 41.1967C119.727 42.022 119.589 42.7296 119.314 43.3196C119.039 43.9062 118.661 44.3587 118.18 44.6768C117.7 44.9917 117.151 45.1491 116.535 45.1491C116.071 45.1491 115.691 45.0713 115.396 44.9155C115.105 44.7597 114.876 44.5774 114.71 44.3686C114.545 44.1598 114.417 43.9742 114.327 43.8118H114.203V45H112.751ZM114.208 41.1818C114.208 41.7187 114.286 42.1894 114.442 42.5938C114.598 42.9981 114.823 43.3146 115.118 43.5433C115.413 43.7687 115.774 43.8814 116.202 43.8814C116.646 43.8814 117.017 43.7637 117.315 43.5284C117.614 43.2898 117.839 42.9666 117.991 42.5589C118.147 42.1513 118.225 41.6922 118.225 41.1818C118.225 40.678 118.149 40.2256 117.996 39.8246C117.847 39.4235 117.622 39.107 117.32 38.875C117.022 38.643 116.649 38.527 116.202 38.527C115.771 38.527 115.406 38.638 115.108 38.8601C114.813 39.0821 114.589 39.392 114.437 39.7898C114.284 40.1875 114.208 40.6515 114.208 41.1818Z" fill="white"/>
<path d="M28 21H129V19H28V21ZM136 28V52H138V28H136ZM129 59H28V61H129V59ZM21 52V28H19V52H21ZM28 59C24.134 59 21 55.866 21 52H19C19 56.9706 23.0294 61 28 61V59ZM136 52C136 55.866 132.866 59 129 59V61C133.971 61 138 56.9706 138 52H136ZM129 21C132.866 21 136 24.134 136 28H138C138 23.0294 133.971 19 129 19V21ZM28 19C23.0294 19 19 23.0294 19 28H21C21 24.134 24.134 21 28 21V19Z" fill="#4640DE"/>
</g>
<g filter="url(#filter1_d_97_49282)">
<path d="M20 148C20 143.582 23.5817 140 28 140H129C133.418 140 137 143.582 137 148V172C137 176.418 133.418 180 129 180H28C23.5817 180 20 176.418 20 172V148Z" fill="#4640DE"/>
<path d="M37.9787 165H36.348L40.0121 154.818H41.7869L45.451 165H43.8203L40.9418 156.668H40.8622L37.9787 165ZM38.2521 161.013H43.5419V162.305H38.2521V161.013ZM46.802 167.864V157.364H48.2537V158.602H48.378C48.4642 158.442 48.5885 158.259 48.7509 158.05C48.9133 157.841 49.1387 157.659 49.427 157.503C49.7154 157.344 50.0965 157.264 50.5705 157.264C51.187 157.264 51.7372 157.42 52.2211 157.732C52.705 158.043 53.0845 158.492 53.3596 159.079C53.638 159.665 53.7772 160.371 53.7772 161.197C53.7772 162.022 53.6396 162.73 53.3645 163.32C53.0894 163.906 52.7116 164.359 52.231 164.677C51.7504 164.992 51.2019 165.149 50.5854 165.149C50.1214 165.149 49.7419 165.071 49.4469 164.915C49.1552 164.76 48.9266 164.577 48.7608 164.369C48.5951 164.16 48.4675 163.974 48.378 163.812H48.2885V167.864H46.802ZM48.2587 161.182C48.2587 161.719 48.3366 162.189 48.4924 162.594C48.6481 162.998 48.8735 163.315 49.1685 163.543C49.4635 163.769 49.8248 163.881 50.2523 163.881C50.6964 163.881 51.0676 163.764 51.3659 163.528C51.6642 163.29 51.8896 162.967 52.0421 162.559C52.1979 162.151 52.2757 161.692 52.2757 161.182C52.2757 160.678 52.1995 160.226 52.0471 159.825C51.8979 159.424 51.6725 159.107 51.3709 158.875C51.0726 158.643 50.6998 158.527 50.2523 158.527C49.8214 158.527 49.4569 158.638 49.1586 158.86C48.8636 159.082 48.6399 159.392 48.4874 159.79C48.3349 160.187 48.2587 160.652 48.2587 161.182ZM55.4426 167.864V157.364H56.8944V158.602H57.0186C57.1048 158.442 57.2291 158.259 57.3915 158.05C57.5539 157.841 57.7793 157.659 58.0676 157.503C58.356 157.344 58.7372 157.264 59.2111 157.264C59.8276 157.264 60.3778 157.42 60.8617 157.732C61.3456 158.043 61.7251 158.492 62.0002 159.079C62.2786 159.665 62.4178 160.371 62.4178 161.197C62.4178 162.022 62.2802 162.73 62.0051 163.32C61.7301 163.906 61.3522 164.359 60.8716 164.677C60.391 164.992 59.8425 165.149 59.226 165.149C58.762 165.149 58.3825 165.071 58.0875 164.915C57.7959 164.76 57.5672 164.577 57.4015 164.369C57.2357 164.16 57.1081 163.974 57.0186 163.812H56.9292V167.864H55.4426ZM56.8993 161.182C56.8993 161.719 56.9772 162.189 57.133 162.594C57.2888 162.998 57.5141 163.315 57.8091 163.543C58.1041 163.769 58.4654 163.881 58.8929 163.881C59.3371 163.881 59.7083 163.764 60.0066 163.528C60.3049 163.29 60.5302 162.967 60.6827 162.559C60.8385 162.151 60.9164 161.692 60.9164 161.182C60.9164 160.678 60.8401 160.226 60.6877 159.825C60.5385 159.424 60.3132 159.107 60.0115 158.875C59.7132 158.643 59.3404 158.527 58.8929 158.527C58.4621 158.527 58.0975 158.638 57.7992 158.86C57.5042 159.082 57.2805 159.392 57.128 159.79C56.9756 160.187 56.8993 160.652 56.8993 161.182ZM65.5698 154.818V165H64.0833V154.818H65.5698ZM68.5092 167.864C68.2872 167.864 68.085 167.845 67.9027 167.809C67.7204 167.776 67.5845 167.739 67.495 167.7L67.853 166.482C68.1248 166.554 68.3667 166.586 68.5788 166.576C68.791 166.566 68.9782 166.487 69.1406 166.337C69.3063 166.188 69.4522 165.945 69.5781 165.607L69.7621 165.099L66.968 157.364H68.5589L70.4929 163.29H70.5724L72.5064 157.364H74.1023L70.9553 166.019C70.8094 166.417 70.6238 166.753 70.3984 167.028C70.1731 167.307 69.9046 167.516 69.593 167.655C69.2815 167.794 68.9202 167.864 68.5092 167.864ZM82.769 157.364V158.557H78.5978V157.364H82.769ZM79.7164 155.534H81.2029V162.758C81.2029 163.046 81.246 163.263 81.3322 163.409C81.4184 163.552 81.5294 163.649 81.6653 163.702C81.8045 163.752 81.9553 163.777 82.1177 163.777C82.237 163.777 82.3414 163.769 82.4309 163.752C82.5204 163.736 82.59 163.722 82.6397 163.712L82.9082 164.94C82.822 164.973 82.6994 165.007 82.5403 165.04C82.3812 165.076 82.1824 165.096 81.9437 165.099C81.5526 165.106 81.188 165.036 80.85 164.891C80.5119 164.745 80.2385 164.519 80.0297 164.214C79.8208 163.91 79.7164 163.527 79.7164 163.066V155.534ZM87.5479 165.154C86.832 165.154 86.2073 164.99 85.6737 164.662C85.14 164.334 84.7257 163.875 84.4308 163.285C84.1358 162.695 83.9883 162.005 83.9883 161.217C83.9883 160.424 84.1358 159.732 84.4308 159.138C84.7257 158.545 85.14 158.085 85.6737 157.756C86.2073 157.428 86.832 157.264 87.5479 157.264C88.2638 157.264 88.8886 157.428 89.4222 157.756C89.9558 158.085 90.3701 158.545 90.6651 159.138C90.9601 159.732 91.1076 160.424 91.1076 161.217C91.1076 162.005 90.9601 162.695 90.6651 163.285C90.3701 163.875 89.9558 164.334 89.4222 164.662C88.8886 164.99 88.2638 165.154 87.5479 165.154ZM87.5529 163.906C88.0169 163.906 88.4014 163.784 88.7063 163.538C89.0112 163.293 89.2366 162.967 89.3825 162.559C89.5316 162.151 89.6062 161.702 89.6062 161.212C89.6062 160.724 89.5316 160.277 89.3825 159.869C89.2366 159.458 89.0112 159.129 88.7063 158.88C88.4014 158.631 88.0169 158.507 87.5529 158.507C87.0856 158.507 86.6978 158.631 86.3896 158.88C86.0846 159.129 85.8576 159.458 85.7085 159.869C85.5626 160.277 85.4897 160.724 85.4897 161.212C85.4897 161.702 85.5626 162.151 85.7085 162.559C85.8576 162.967 86.0846 163.293 86.3896 163.538C86.6978 163.784 87.0856 163.906 87.5529 163.906ZM100.549 154.818H102.08V162.037C102.08 162.69 101.951 163.248 101.692 163.712C101.437 164.176 101.077 164.531 100.613 164.776C100.149 165.018 99.6057 165.139 98.9826 165.139C98.4092 165.139 97.8938 165.035 97.4364 164.826C96.9824 164.617 96.6228 164.314 96.3576 163.916C96.0958 163.515 95.9648 163.028 95.9648 162.455H97.4911C97.4911 162.736 97.5558 162.98 97.685 163.185C97.8176 163.391 97.9982 163.552 98.2269 163.668C98.4589 163.78 98.7241 163.837 99.0224 163.837C99.3472 163.837 99.6223 163.769 99.8477 163.633C100.076 163.494 100.25 163.29 100.37 163.021C100.489 162.753 100.549 162.425 100.549 162.037V154.818ZM107.413 165.154C106.697 165.154 106.073 164.99 105.539 164.662C105.005 164.334 104.591 163.875 104.296 163.285C104.001 162.695 103.854 162.005 103.854 161.217C103.854 160.424 104.001 159.732 104.296 159.138C104.591 158.545 105.005 158.085 105.539 157.756C106.073 157.428 106.697 157.264 107.413 157.264C108.129 157.264 108.754 157.428 109.287 157.756C109.821 158.085 110.235 158.545 110.53 159.138C110.825 159.732 110.973 160.424 110.973 161.217C110.973 162.005 110.825 162.695 110.53 163.285C110.235 163.875 109.821 164.334 109.287 164.662C108.754 164.99 108.129 165.154 107.413 165.154ZM107.418 163.906C107.882 163.906 108.267 163.784 108.572 163.538C108.876 163.293 109.102 162.967 109.248 162.559C109.397 162.151 109.471 161.702 109.471 161.212C109.471 160.724 109.397 160.277 109.248 159.869C109.102 159.458 108.876 159.129 108.572 158.88C108.267 158.631 107.882 158.507 107.418 158.507C106.951 158.507 106.563 158.631 106.255 158.88C105.95 159.129 105.723 159.458 105.574 159.869C105.428 160.277 105.355 160.724 105.355 161.212C105.355 161.702 105.428 162.151 105.574 162.559C105.723 162.967 105.95 163.293 106.255 163.538C106.563 163.784 106.951 163.906 107.418 163.906ZM112.751 165V154.818H114.238V158.602H114.327C114.414 158.442 114.538 158.259 114.7 158.05C114.863 157.841 115.088 157.659 115.376 157.503C115.665 157.344 116.046 157.264 116.52 157.264C117.136 157.264 117.687 157.42 118.17 157.732C118.654 158.043 119.034 158.492 119.309 159.079C119.587 159.665 119.727 160.371 119.727 161.197C119.727 162.022 119.589 162.73 119.314 163.32C119.039 163.906 118.661 164.359 118.18 164.677C117.7 164.992 117.151 165.149 116.535 165.149C116.071 165.149 115.691 165.071 115.396 164.915C115.105 164.76 114.876 164.577 114.71 164.369C114.545 164.16 114.417 163.974 114.327 163.812H114.203V165H112.751ZM114.208 161.182C114.208 161.719 114.286 162.189 114.442 162.594C114.598 162.998 114.823 163.315 115.118 163.543C115.413 163.769 115.774 163.881 116.202 163.881C116.646 163.881 117.017 163.764 117.315 163.528C117.614 163.29 117.839 162.967 117.991 162.559C118.147 162.151 118.225 161.692 118.225 161.182C118.225 160.678 118.149 160.226 117.996 159.825C117.847 159.424 117.622 159.107 117.32 158.875C117.022 158.643 116.649 158.527 116.202 158.527C115.771 158.527 115.406 158.638 115.108 158.86C114.813 159.082 114.589 159.392 114.437 159.79C114.284 160.187 114.208 160.652 114.208 161.182Z" fill="white"/>
<path d="M28 141H129V139H28V141ZM136 148V172H138V148H136ZM129 179H28V181H129V179ZM21 172V148H19V172H21ZM28 179C24.134 179 21 175.866 21 172H19C19 176.971 23.0294 181 28 181V179ZM136 172C136 175.866 132.866 179 129 179V181C133.971 181 138 176.971 138 172H136ZM129 141C132.866 141 136 144.134 136 148H138C138 143.029 133.971 139 129 139V141ZM28 139C23.0294 139 19 143.029 19 148H21C21 144.134 24.134 141 28 141V139Z" fill="#4640DE"/>
</g>
<path d="M28 144H129V136H28V144ZM133 148V172H141V148H133ZM129 176H28V184H129V176ZM24 172V148H16V172H24ZM28 176C25.7909 176 24 174.209 24 172H16C16 178.627 21.3726 184 28 184V176ZM133 172C133 174.209 131.209 176 129 176V184C135.627 184 141 178.627 141 172H133ZM129 144C131.209 144 133 145.791 133 148H141C141 141.373 135.627 136 129 136V144ZM28 136C21.3726 136 16 141.373 16 148H24C24 145.791 25.7909 144 28 144V136Z" fill="#CBC9FF"/>
<g filter="url(#filter2_d_97_49282)">
<path d="M20 88C20 83.5817 23.5817 80 28 80H129C133.418 80 137 83.5817 137 88V112C137 116.418 133.418 120 129 120H28C23.5817 120 20 116.418 20 112V88Z" fill="#0E08A5"/>
<path d="M37.9787 105H36.348L40.0121 94.8182H41.7869L45.451 105H43.8203L40.9418 96.6676H40.8622L37.9787 105ZM38.2521 101.013H43.5419V102.305H38.2521V101.013ZM46.802 107.864V97.3636H48.2537V98.6016H48.378C48.4642 98.4425 48.5885 98.2585 48.7509 98.0497C48.9133 97.8409 49.1387 97.6586 49.427 97.5028C49.7154 97.3438 50.0965 97.2642 50.5705 97.2642C51.187 97.2642 51.7372 97.42 52.2211 97.7315C52.705 98.0431 53.0845 98.4922 53.3596 99.0788C53.638 99.6655 53.7772 100.371 53.7772 101.197C53.7772 102.022 53.6396 102.73 53.3645 103.32C53.0894 103.906 52.7116 104.359 52.231 104.677C51.7504 104.992 51.2019 105.149 50.5854 105.149C50.1214 105.149 49.7419 105.071 49.4469 104.915C49.1552 104.76 48.9266 104.577 48.7608 104.369C48.5951 104.16 48.4675 103.974 48.378 103.812H48.2885V107.864H46.802ZM48.2587 101.182C48.2587 101.719 48.3366 102.189 48.4924 102.594C48.6481 102.998 48.8735 103.315 49.1685 103.543C49.4635 103.769 49.8248 103.881 50.2523 103.881C50.6964 103.881 51.0676 103.764 51.3659 103.528C51.6642 103.29 51.8896 102.967 52.0421 102.559C52.1979 102.151 52.2757 101.692 52.2757 101.182C52.2757 100.678 52.1995 100.226 52.0471 99.8246C51.8979 99.4235 51.6725 99.107 51.3709 98.875C51.0726 98.643 50.6998 98.527 50.2523 98.527C49.8214 98.527 49.4569 98.638 49.1586 98.8601C48.8636 99.0821 48.6399 99.392 48.4874 99.7898C48.3349 100.187 48.2587 100.652 48.2587 101.182ZM55.4426 107.864V97.3636H56.8944V98.6016H57.0186C57.1048 98.4425 57.2291 98.2585 57.3915 98.0497C57.5539 97.8409 57.7793 97.6586 58.0676 97.5028C58.356 97.3438 58.7372 97.2642 59.2111 97.2642C59.8276 97.2642 60.3778 97.42 60.8617 97.7315C61.3456 98.0431 61.7251 98.4922 62.0002 99.0788C62.2786 99.6655 62.4178 100.371 62.4178 101.197C62.4178 102.022 62.2802 102.73 62.0051 103.32C61.7301 103.906 61.3522 104.359 60.8716 104.677C60.391 104.992 59.8425 105.149 59.226 105.149C58.762 105.149 58.3825 105.071 58.0875 104.915C57.7959 104.76 57.5672 104.577 57.4015 104.369C57.2357 104.16 57.1081 103.974 57.0186 103.812H56.9292V107.864H55.4426ZM56.8993 101.182C56.8993 101.719 56.9772 102.189 57.133 102.594C57.2888 102.998 57.5141 103.315 57.8091 103.543C58.1041 103.769 58.4654 103.881 58.8929 103.881C59.3371 103.881 59.7083 103.764 60.0066 103.528C60.3049 103.29 60.5302 102.967 60.6827 102.559C60.8385 102.151 60.9164 101.692 60.9164 101.182C60.9164 100.678 60.8401 100.226 60.6877 99.8246C60.5385 99.4235 60.3132 99.107 60.0115 98.875C59.7132 98.643 59.3404 98.527 58.8929 98.527C58.4621 98.527 58.0975 98.638 57.7992 98.8601C57.5042 99.0821 57.2805 99.392 57.128 99.7898C56.9756 100.187 56.8993 100.652 56.8993 101.182ZM65.5698 94.8182V105H64.0833V94.8182H65.5698ZM68.5092 107.864C68.2872 107.864 68.085 107.845 67.9027 107.809C67.7204 107.776 67.5845 107.739 67.495 107.7L67.853 106.482C68.1248 106.554 68.3667 106.586 68.5788 106.576C68.791 106.566 68.9782 106.487 69.1406 106.337C69.3063 106.188 69.4522 105.945 69.5781 105.607L69.7621 105.099L66.968 97.3636H68.5589L70.4929 103.29H70.5724L72.5064 97.3636H74.1023L70.9553 106.019C70.8094 106.417 70.6238 106.753 70.3984 107.028C70.1731 107.307 69.9046 107.516 69.593 107.655C69.2815 107.794 68.9202 107.864 68.5092 107.864ZM82.769 97.3636V98.5568H78.5978V97.3636H82.769ZM79.7164 95.5341H81.2029V102.758C81.2029 103.046 81.246 103.263 81.3322 103.409C81.4184 103.552 81.5294 103.649 81.6653 103.702C81.8045 103.752 81.9553 103.777 82.1177 103.777C82.237 103.777 82.3414 103.769 82.4309 103.752C82.5204 103.736 82.59 103.722 82.6397 103.712L82.9082 104.94C82.822 104.973 82.6994 105.007 82.5403 105.04C82.3812 105.076 82.1824 105.096 81.9437 105.099C81.5526 105.106 81.188 105.036 80.85 104.891C80.5119 104.745 80.2385 104.519 80.0297 104.214C79.8208 103.91 79.7164 103.527 79.7164 103.066V95.5341ZM87.5479 105.154C86.832 105.154 86.2073 104.99 85.6737 104.662C85.14 104.334 84.7257 103.875 84.4308 103.285C84.1358 102.695 83.9883 102.005 83.9883 101.217C83.9883 100.424 84.1358 99.7318 84.4308 99.1385C84.7257 98.5452 85.14 98.0845 85.6737 97.7564C86.2073 97.4283 86.832 97.2642 87.5479 97.2642C88.2638 97.2642 88.8886 97.4283 89.4222 97.7564C89.9558 98.0845 90.3701 98.5452 90.6651 99.1385C90.9601 99.7318 91.1076 100.424 91.1076 101.217C91.1076 102.005 90.9601 102.695 90.6651 103.285C90.3701 103.875 89.9558 104.334 89.4222 104.662C88.8886 104.99 88.2638 105.154 87.5479 105.154ZM87.5529 103.906C88.0169 103.906 88.4014 103.784 88.7063 103.538C89.0112 103.293 89.2366 102.967 89.3825 102.559C89.5316 102.151 89.6062 101.702 89.6062 101.212C89.6062 100.724 89.5316 100.277 89.3825 99.8693C89.2366 99.4583 89.0112 99.1286 88.7063 98.88C88.4014 98.6314 88.0169 98.5071 87.5529 98.5071C87.0856 98.5071 86.6978 98.6314 86.3896 98.88C86.0846 99.1286 85.8576 99.4583 85.7085 99.8693C85.5626 100.277 85.4897 100.724 85.4897 101.212C85.4897 101.702 85.5626 102.151 85.7085 102.559C85.8576 102.967 86.0846 103.293 86.3896 103.538C86.6978 103.784 87.0856 103.906 87.5529 103.906ZM100.549 94.8182H102.08V102.037C102.08 102.69 101.951 103.248 101.692 103.712C101.437 104.176 101.077 104.531 100.613 104.776C100.149 105.018 99.6057 105.139 98.9826 105.139C98.4092 105.139 97.8938 105.035 97.4364 104.826C96.9824 104.617 96.6228 104.314 96.3576 103.916C96.0958 103.515 95.9648 103.028 95.9648 102.455H97.4911C97.4911 102.736 97.5558 102.98 97.685 103.185C97.8176 103.391 97.9982 103.552 98.2269 103.668C98.4589 103.78 98.7241 103.837 99.0224 103.837C99.3472 103.837 99.6223 103.769 99.8477 103.633C100.076 103.494 100.25 103.29 100.37 103.021C100.489 102.753 100.549 102.425 100.549 102.037V94.8182ZM107.413 105.154C106.697 105.154 106.073 104.99 105.539 104.662C105.005 104.334 104.591 103.875 104.296 103.285C104.001 102.695 103.854 102.005 103.854 101.217C103.854 100.424 104.001 99.7318 104.296 99.1385C104.591 98.5452 105.005 98.0845 105.539 97.7564C106.073 97.4283 106.697 97.2642 107.413 97.2642C108.129 97.2642 108.754 97.4283 109.287 97.7564C109.821 98.0845 110.235 98.5452 110.53 99.1385C110.825 99.7318 110.973 100.424 110.973 101.217C110.973 102.005 110.825 102.695 110.53 103.285C110.235 103.875 109.821 104.334 109.287 104.662C108.754 104.99 108.129 105.154 107.413 105.154ZM107.418 103.906C107.882 103.906 108.267 103.784 108.572 103.538C108.876 103.293 109.102 102.967 109.248 102.559C109.397 102.151 109.471 101.702 109.471 101.212C109.471 100.724 109.397 100.277 109.248 99.8693C109.102 99.4583 108.876 99.1286 108.572 98.88C108.267 98.6314 107.882 98.5071 107.418 98.5071C106.951 98.5071 106.563 98.6314 106.255 98.88C105.95 99.1286 105.723 99.4583 105.574 99.8693C105.428 100.277 105.355 100.724 105.355 101.212C105.355 101.702 105.428 102.151 105.574 102.559C105.723 102.967 105.95 103.293 106.255 103.538C106.563 103.784 106.951 103.906 107.418 103.906ZM112.751 105V94.8182H114.238V98.6016H114.327C114.414 98.4425 114.538 98.2585 114.7 98.0497C114.863 97.8409 115.088 97.6586 115.376 97.5028C115.665 97.3438 116.046 97.2642 116.52 97.2642C117.136 97.2642 117.687 97.42 118.17 97.7315C118.654 98.0431 119.034 98.4922 119.309 99.0788C119.587 99.6655 119.727 100.371 119.727 101.197C119.727 102.022 119.589 102.73 119.314 103.32C119.039 103.906 118.661 104.359 118.18 104.677C117.7 104.992 117.151 105.149 116.535 105.149C116.071 105.149 115.691 105.071 115.396 104.915C115.105 104.76 114.876 104.577 114.71 104.369C114.545 104.16 114.417 103.974 114.327 103.812H114.203V105H112.751ZM114.208 101.182C114.208 101.719 114.286 102.189 114.442 102.594C114.598 102.998 114.823 103.315 115.118 103.543C115.413 103.769 115.774 103.881 116.202 103.881C116.646 103.881 117.017 103.764 117.315 103.528C117.614 103.29 117.839 102.967 117.991 102.559C118.147 102.151 118.225 101.692 118.225 101.182C118.225 100.678 118.149 100.226 117.996 99.8246C117.847 99.4235 117.622 99.107 117.32 98.875C117.022 98.643 116.649 98.527 116.202 98.527C115.771 98.527 115.406 98.638 115.108 98.8601C114.813 99.0821 114.589 99.392 114.437 99.7898C114.284 100.187 114.208 100.652 114.208 101.182Z" fill="white"/>
<path d="M28 81H129V79H28V81ZM136 88V112H138V88H136ZM129 119H28V121H129V119ZM21 112V88H19V112H21ZM28 119C24.134 119 21 115.866 21 112H19C19 116.971 23.0294 121 28 121V119ZM136 112C136 115.866 132.866 119 129 119V121C133.971 121 138 116.971 138 112H136ZM129 81C132.866 81 136 84.134 136 88H138C138 83.0294 133.971 79 129 79V81ZM28 79C23.0294 79 19 83.0294 19 88H21C21 84.134 24.134 81 28 81V79Z" fill="#4640DE"/>
</g>
<g filter="url(#filter3_d_97_49282)">
<path d="M20 208C20 203.582 23.5817 200 28 200H129C133.418 200 137 203.582 137 208V232C137 236.418 133.418 240 129 240H28C23.5817 240 20 236.418 20 232V208Z" fill="#D0D5DD"/>
<path opacity="0.5" d="M37.9787 225H36.348L40.0121 214.818H41.7869L45.451 225H43.8203L40.9418 216.668H40.8622L37.9787 225ZM38.2521 221.013H43.5419V222.305H38.2521V221.013ZM46.802 227.864V217.364H48.2537V218.602H48.378C48.4642 218.442 48.5885 218.259 48.7509 218.05C48.9133 217.841 49.1387 217.659 49.427 217.503C49.7154 217.344 50.0965 217.264 50.5705 217.264C51.187 217.264 51.7372 217.42 52.2211 217.732C52.705 218.043 53.0845 218.492 53.3596 219.079C53.638 219.665 53.7772 220.371 53.7772 221.197C53.7772 222.022 53.6396 222.73 53.3645 223.32C53.0894 223.906 52.7116 224.359 52.231 224.677C51.7504 224.992 51.2019 225.149 50.5854 225.149C50.1214 225.149 49.7419 225.071 49.4469 224.915C49.1552 224.76 48.9266 224.577 48.7608 224.369C48.5951 224.16 48.4675 223.974 48.378 223.812H48.2885V227.864H46.802ZM48.2587 221.182C48.2587 221.719 48.3366 222.189 48.4924 222.594C48.6481 222.998 48.8735 223.315 49.1685 223.543C49.4635 223.769 49.8248 223.881 50.2523 223.881C50.6964 223.881 51.0676 223.764 51.3659 223.528C51.6642 223.29 51.8896 222.967 52.0421 222.559C52.1979 222.151 52.2757 221.692 52.2757 221.182C52.2757 220.678 52.1995 220.226 52.0471 219.825C51.8979 219.424 51.6725 219.107 51.3709 218.875C51.0726 218.643 50.6998 218.527 50.2523 218.527C49.8214 218.527 49.4569 218.638 49.1586 218.86C48.8636 219.082 48.6399 219.392 48.4874 219.79C48.3349 220.187 48.2587 220.652 48.2587 221.182ZM55.4426 227.864V217.364H56.8944V218.602H57.0186C57.1048 218.442 57.2291 218.259 57.3915 218.05C57.5539 217.841 57.7793 217.659 58.0676 217.503C58.356 217.344 58.7372 217.264 59.2111 217.264C59.8276 217.264 60.3778 217.42 60.8617 217.732C61.3456 218.043 61.7251 218.492 62.0002 219.079C62.2786 219.665 62.4178 220.371 62.4178 221.197C62.4178 222.022 62.2802 222.73 62.0051 223.32C61.7301 223.906 61.3522 224.359 60.8716 224.677C60.391 224.992 59.8425 225.149 59.226 225.149C58.762 225.149 58.3825 225.071 58.0875 224.915C57.7959 224.76 57.5672 224.577 57.4015 224.369C57.2357 224.16 57.1081 223.974 57.0186 223.812H56.9292V227.864H55.4426ZM56.8993 221.182C56.8993 221.719 56.9772 222.189 57.133 222.594C57.2888 222.998 57.5141 223.315 57.8091 223.543C58.1041 223.769 58.4654 223.881 58.8929 223.881C59.3371 223.881 59.7083 223.764 60.0066 223.528C60.3049 223.29 60.5302 222.967 60.6827 222.559C60.8385 222.151 60.9164 221.692 60.9164 221.182C60.9164 220.678 60.8401 220.226 60.6877 219.825C60.5385 219.424 60.3132 219.107 60.0115 218.875C59.7132 218.643 59.3404 218.527 58.8929 218.527C58.4621 218.527 58.0975 218.638 57.7992 218.86C57.5042 219.082 57.2805 219.392 57.128 219.79C56.9756 220.187 56.8993 220.652 56.8993 221.182ZM65.5698 214.818V225H64.0833V214.818H65.5698ZM68.5092 227.864C68.2872 227.864 68.085 227.845 67.9027 227.809C67.7204 227.776 67.5845 227.739 67.495 227.7L67.853 226.482C68.1248 226.554 68.3667 226.586 68.5788 226.576C68.791 226.566 68.9782 226.487 69.1406 226.337C69.3063 226.188 69.4522 225.945 69.5781 225.607L69.7621 225.099L66.968 217.364H68.5589L70.4929 223.29H70.5724L72.5064 217.364H74.1023L70.9553 226.019C70.8094 226.417 70.6238 226.753 70.3984 227.028C70.1731 227.307 69.9046 227.516 69.593 227.655C69.2815 227.794 68.9202 227.864 68.5092 227.864ZM82.769 217.364V218.557H78.5978V217.364H82.769ZM79.7164 215.534H81.2029V222.758C81.2029 223.046 81.246 223.263 81.3322 223.409C81.4184 223.552 81.5294 223.649 81.6653 223.702C81.8045 223.752 81.9553 223.777 82.1177 223.777C82.237 223.777 82.3414 223.769 82.4309 223.752C82.5204 223.736 82.59 223.722 82.6397 223.712L82.9082 224.94C82.822 224.973 82.6994 225.007 82.5403 225.04C82.3812 225.076 82.1824 225.096 81.9437 225.099C81.5526 225.106 81.188 225.036 80.85 224.891C80.5119 224.745 80.2385 224.519 80.0297 224.214C79.8208 223.91 79.7164 223.527 79.7164 223.066V215.534ZM87.5479 225.154C86.832 225.154 86.2073 224.99 85.6737 224.662C85.14 224.334 84.7257 223.875 84.4308 223.285C84.1358 222.695 83.9883 222.005 83.9883 221.217C83.9883 220.424 84.1358 219.732 84.4308 219.138C84.7257 218.545 85.14 218.085 85.6737 217.756C86.2073 217.428 86.832 217.264 87.5479 217.264C88.2638 217.264 88.8886 217.428 89.4222 217.756C89.9558 218.085 90.3701 218.545 90.6651 219.138C90.9601 219.732 91.1076 220.424 91.1076 221.217C91.1076 222.005 90.9601 222.695 90.6651 223.285C90.3701 223.875 89.9558 224.334 89.4222 224.662C88.8886 224.99 88.2638 225.154 87.5479 225.154ZM87.5529 223.906C88.0169 223.906 88.4014 223.784 88.7063 223.538C89.0112 223.293 89.2366 222.967 89.3825 222.559C89.5316 222.151 89.6062 221.702 89.6062 221.212C89.6062 220.724 89.5316 220.277 89.3825 219.869C89.2366 219.458 89.0112 219.129 88.7063 218.88C88.4014 218.631 88.0169 218.507 87.5529 218.507C87.0856 218.507 86.6978 218.631 86.3896 218.88C86.0846 219.129 85.8576 219.458 85.7085 219.869C85.5626 220.277 85.4897 220.724 85.4897 221.212C85.4897 221.702 85.5626 222.151 85.7085 222.559C85.8576 222.967 86.0846 223.293 86.3896 223.538C86.6978 223.784 87.0856 223.906 87.5529 223.906ZM100.549 214.818H102.08V222.037C102.08 222.69 101.951 223.248 101.692 223.712C101.437 224.176 101.077 224.531 100.613 224.776C100.149 225.018 99.6057 225.139 98.9826 225.139C98.4092 225.139 97.8938 225.035 97.4364 224.826C96.9824 224.617 96.6228 224.314 96.3576 223.916C96.0958 223.515 95.9648 223.028 95.9648 222.455H97.4911C97.4911 222.736 97.5558 222.98 97.685 223.185C97.8176 223.391 97.9982 223.552 98.2269 223.668C98.4589 223.78 98.7241 223.837 99.0224 223.837C99.3472 223.837 99.6223 223.769 99.8477 223.633C100.076 223.494 100.25 223.29 100.37 223.021C100.489 222.753 100.549 222.425 100.549 222.037V214.818ZM107.413 225.154C106.697 225.154 106.073 224.99 105.539 224.662C105.005 224.334 104.591 223.875 104.296 223.285C104.001 222.695 103.854 222.005 103.854 221.217C103.854 220.424 104.001 219.732 104.296 219.138C104.591 218.545 105.005 218.085 105.539 217.756C106.073 217.428 106.697 217.264 107.413 217.264C108.129 217.264 108.754 217.428 109.287 217.756C109.821 218.085 110.235 218.545 110.53 219.138C110.825 219.732 110.973 220.424 110.973 221.217C110.973 222.005 110.825 222.695 110.53 223.285C110.235 223.875 109.821 224.334 109.287 224.662C108.754 224.99 108.129 225.154 107.413 225.154ZM107.418 223.906C107.882 223.906 108.267 223.784 108.572 223.538C108.876 223.293 109.102 222.967 109.248 222.559C109.397 222.151 109.471 221.702 109.471 221.212C109.471 220.724 109.397 220.277 109.248 219.869C109.102 219.458 108.876 219.129 108.572 218.88C108.267 218.631 107.882 218.507 107.418 218.507C106.951 218.507 106.563 218.631 106.255 218.88C105.95 219.129 105.723 219.458 105.574 219.869C105.428 220.277 105.355 220.724 105.355 221.212C105.355 221.702 105.428 222.151 105.574 222.559C105.723 222.967 105.95 223.293 106.255 223.538C106.563 223.784 106.951 223.906 107.418 223.906ZM112.751 225V214.818H114.238V218.602H114.327C114.414 218.442 114.538 218.259 114.7 218.05C114.863 217.841 115.088 217.659 115.376 217.503C115.665 217.344 116.046 217.264 116.52 217.264C117.136 217.264 117.687 217.42 118.17 217.732C118.654 218.043 119.034 218.492 119.309 219.079C119.587 219.665 119.727 220.371 119.727 221.197C119.727 222.022 119.589 222.73 119.314 223.32C119.039 223.906 118.661 224.359 118.18 224.677C117.7 224.992 117.151 225.149 116.535 225.149C116.071 225.149 115.691 225.071 115.396 224.915C115.105 224.76 114.876 224.577 114.71 224.369C114.545 224.16 114.417 223.974 114.327 223.812H114.203V225H112.751ZM114.208 221.182C114.208 221.719 114.286 222.189 114.442 222.594C114.598 222.998 114.823 223.315 115.118 223.543C115.413 223.769 115.774 223.881 116.202 223.881C116.646 223.881 117.017 223.764 117.315 223.528C117.614 223.29 117.839 222.967 117.991 222.559C118.147 222.151 118.225 221.692 118.225 221.182C118.225 220.678 118.149 220.226 117.996 219.825C117.847 219.424 117.622 219.107 117.32 218.875C117.022 218.643 116.649 218.527 116.202 218.527C115.771 218.527 115.406 218.638 115.108 218.86C114.813 219.082 114.589 219.392 114.437 219.79C114.284 220.187 114.208 220.652 114.208 221.182Z" fill="white"/>
<path d="M28 201H129V199H28V201ZM136 208V232H138V208H136ZM129 239H28V241H129V239ZM21 232V208H19V232H21ZM28 239C24.134 239 21 235.866 21 232H19C19 236.971 23.0294 241 28 241V239ZM136 232C136 235.866 132.866 239 129 239V241C133.971 241 138 236.971 138 232H136ZM129 201C132.866 201 136 204.134 136 208H138C138 203.029 133.971 199 129 199V201ZM28 199C23.0294 199 19 203.029 19 208H21C21 204.134 24.134 201 28 201V199Z" fill="#D0D5DD"/>
</g>
<rect x="0.5" y="0.5" width="156" height="259" rx="4.5" stroke="#7B61FF" stroke-dasharray="10 5"/>
<defs>
<filter id="filter0_d_97_49282" x="18" y="19" width="121" height="44" filterUnits="userSpaceOnUse" color-interpolation-filters="sRGB">
<feFlood flood-opacity="0" result="BackgroundImageFix"/>
<feColorMatrix in="SourceAlpha" type="matrix" values="0 0 0 0 0 0 0 0 0 0 0 0 0 0 0 0 0 0 127 0" result="hardAlpha"/>
<feOffset dy="1"/>
<feGaussianBlur stdDeviation="1"/>
<feColorMatrix type="matrix" values="0 0 0 0 0.0627451 0 0 0 0 0.0941176 0 0 0 0 0.156863 0 0 0 0.05 0"/>
<feBlend mode="normal" in2="BackgroundImageFix" result="effect1_dropShadow_97_49282"/>
<feBlend mode="normal" in="SourceGraphic" in2="effect1_dropShadow_97_49282" result="shape"/>
</filter>
<filter id="filter1_d_97_49282" x="18" y="139" width="121" height="44" filterUnits="userSpaceOnUse" color-interpolation-filters="sRGB">
<feFlood flood-opacity="0" result="BackgroundImageFix"/>
<feColorMatrix in="SourceAlpha" type="matrix" values="0 0 0 0 0 0 0 0 0 0 0 0 0 0 0 0 0 0 127 0" result="hardAlpha"/>
<feOffset dy="1"/>
<feGaussianBlur stdDeviation="1"/>
<feColorMatrix type="matrix" values="0 0 0 0 0.0627451 0 0 0 0 0.0941176 0 0 0 0 0.156863 0 0 0 0.05 0"/>
<feBlend mode="normal" in2="BackgroundImageFix" result="effect1_dropShadow_97_49282"/>
<feBlend mode="normal" in="SourceGraphic" in2="effect1_dropShadow_97_49282" result="shape"/>
</filter>
<filter id="filter2_d_97_49282" x="18" y="79" width="121" height="44" filterUnits="userSpaceOnUse" color-interpolation-filters="sRGB">
<feFlood flood-opacity="0" result="BackgroundImageFix"/>
<feColorMatrix in="SourceAlpha" type="matrix" values="0 0 0 0 0 0 0 0 0 0 0 0 0 0 0 0 0 0 127 0" result="hardAlpha"/>
<feOffset dy="1"/>
<feGaussianBlur stdDeviation="1"/>
<feColorMatrix type="matrix" values="0 0 0 0 0.0627451 0 0 0 0 0.0941176 0 0 0 0 0.156863 0 0 0 0.05 0"/>
<feBlend mode="normal" in2="BackgroundImageFix" result="effect1_dropShadow_97_49282"/>
<feBlend mode="normal" in="SourceGraphic" in2="effect1_dropShadow_97_49282" result="shape"/>
</filter>
<filter id="filter3_d_97_49282" x="18" y="199" width="121" height="44" filterUnits="userSpaceOnUse" color-interpolation-filters="sRGB">
<feFlood flood-opacity="0" result="BackgroundImageFix"/>
<feColorMatrix in="SourceAlpha" type="matrix" values="0 0 0 0 0 0 0 0 0 0 0 0 0 0 0 0 0 0 127 0" result="hardAlpha"/>
<feOffset dy="1"/>
<feGaussianBlur stdDeviation="1"/>
<feColorMatrix type="matrix" values="0 0 0 0 0.0627451 0 0 0 0 0.0941176 0 0 0 0 0.156863 0 0 0 0.05 0"/>
<feBlend mode="normal" in2="BackgroundImageFix" result="effect1_dropShadow_97_49282"/>
<feBlend mode="normal" in="SourceGraphic" in2="effect1_dropShadow_97_49282" result="shape"/>
</filter>
</defs>
</svg>
