<svg width="16" height="5" viewBox="0 0 16 5" fill="none" xmlns="http://www.w3.org/2000/svg">
<mask id="path-1-inside-1_309_71011" fill="white">
<path d="M8 5C10.6652 5 13.3304 2.8953 15.0607 1.17899C15.4599 0.783082 14.9792 0.21218 14.4822 0.474886C12.6013 1.46902 10.0181 2.6 8 2.6C5.98194 2.6 3.39867 1.46902 1.5178 0.474886C1.02076 0.212179 0.540123 0.78308 0.939264 1.17899C2.66956 2.89529 5.33478 5 8 5Z"/>
</mask>
<path d="M15.0607 1.17899L17.1734 3.30891V3.30891L15.0607 1.17899ZM0.939264 1.17899L-1.17342 3.30891H-1.17342L0.939264 1.17899ZM1.5178 0.474886L2.91967 -2.17743L2.91967 -2.17743L1.5178 0.474886ZM14.4822 0.474886L13.0803 -2.17743L13.0803 -2.17743L14.4822 0.474886ZM12.948 -0.950926C12.1783 -0.18736 11.2652 0.59533 10.3201 1.17117C9.34913 1.76271 8.56719 2 8 2V8C10.098 8 11.9813 7.18493 13.4419 6.29505C14.9282 5.38946 16.2129 4.26165 17.1734 3.30891L12.948 -0.950926ZM8 2C7.43281 2 6.65087 1.76271 5.67995 1.17117C4.73482 0.595329 3.82175 -0.187361 3.05195 -0.950927L-1.17342 3.30891C-0.212916 4.26165 1.07177 5.38946 2.55813 6.29505C4.0187 7.18493 5.90197 8 8 8V2ZM0.115926 3.1272C1.1314 3.66392 2.3827 4.26289 3.69336 4.73365C4.96695 5.19109 6.49206 5.6 8 5.6V-0.4C7.48988 -0.4 6.71432 -0.556582 5.72155 -0.913161C4.76584 -1.25643 3.78507 -1.72002 2.91967 -2.17743L0.115926 3.1272ZM8 5.6C9.50794 5.6 11.033 5.19109 12.3066 4.73365C13.6173 4.26289 14.8686 3.66392 15.8841 3.1272L13.0803 -2.17743C12.2149 -1.72002 11.2342 -1.25643 10.2785 -0.913161C9.28568 -0.556582 8.51013 -0.4 8 -0.4V5.6ZM17.1734 3.30891C17.7674 2.71973 18.1776 1.8995 18.2071 0.959266C18.2356 0.0550623 17.905 -0.747418 17.4152 -1.33702C16.4114 -2.54535 14.6321 -2.99762 13.0803 -2.17743L15.8841 3.1272C14.8293 3.68469 13.5389 3.38651 12.7999 2.49694C12.4425 2.06671 12.1883 1.46477 12.2101 0.770751C12.2331 0.0407001 12.5536 -0.559694 12.948 -0.950925L17.1734 3.30891ZM3.05195 -0.950927C3.44637 -0.559696 3.76695 0.0406991 3.7899 0.770753C3.81171 1.46477 3.55749 2.06672 3.2001 2.49694C2.46112 3.38651 1.17068 3.68469 0.115926 3.1272L2.91967 -2.17743C1.36787 -2.99762 -0.411398 -2.54535 -1.41517 -1.33703C-1.90496 -0.747426 -2.23557 0.0550548 -2.20714 0.959261C-2.17759 1.8995 -1.76741 2.71972 -1.17342 3.30891L3.05195 -0.950927Z" fill="white" mask="url(#path-1-inside-1_309_71011)"/>
</svg>
